<mxfile host="app.diagrams.net" agent="Mozilla/5.0 (Windows NT 10.0; Win64; x64) AppleWebKit/537.36 (KHTML, like Gecko) Chrome/129.0.0.0 Safari/537.36" version="24.8.3">
  <diagram name="PÃ¡gina-1" id="i9zkMtUA55Pb5jJknNdj">
    <mxGraphModel dx="1290" dy="557" grid="1" gridSize="10" guides="1" tooltips="1" connect="1" arrows="1" fold="1" page="1" pageScale="1" pageWidth="827" pageHeight="1169" math="0" shadow="0">
      <root>
        <mxCell id="0" />
        <mxCell id="1" parent="0" />
        <mxCell id="pOFbJB_o1-wz1Zq5x3c6-12" value="" style="rounded=0;whiteSpace=wrap;html=1;" vertex="1" parent="1">
          <mxGeometry x="90" y="150" width="150" height="335" as="geometry" />
        </mxCell>
        <mxCell id="pOFbJB_o1-wz1Zq5x3c6-4" value="" style="rounded=0;whiteSpace=wrap;html=1;" vertex="1" parent="1">
          <mxGeometry x="300" y="223.75" width="190" height="180" as="geometry" />
        </mxCell>
        <mxCell id="pOFbJB_o1-wz1Zq5x3c6-1" value="" style="shape=image;verticalLabelPosition=bottom;labelBackgroundColor=default;verticalAlign=top;aspect=fixed;imageAspect=0;image=data:image/png,iVBORw0KGgoAAAANSUhEUgAAAUUAAALDCAYAAACCdRIFAAAAAXNSR0IArs4c6QAAAARnQU1BAACxjwv8YQUAAAAJcEhZcwAADsMAAA7DAcdvqGQAAP+lSURBVHhe7H0FgGVHmfVpd7dxz8xk4u4GARaCLBAIBHeWP7Cwi8MiCyws7ixuQYMEQgSSEHcbd+2edpfnLf85X93qvv3yeqZnYhN4p7te1a1bt7xOfSW3bs7g8MgEHgM2bViP4uJiFBUVoaCgAPn5+aZyc3MnVU5OzjSVCd5e+sTEo6M0k71H+F6mMMLPS8/k5vGEDys9nPR0HCwuhxLXsL9PdPo8ZkpnGOF4Cd6t7Nvb263epEP3ampqrC4JeibdH49MYXv36c9lsvPPp9uFrwXvTsj0/MHgn/G6nssUzqFgtmELPqz0MDP54d1580zIdC/d/0wIx8VD5vHx8WnPp+th97KTGhsbw+jo6KRKJpNIJBJYsXJV4PLQcFik+MB996K8vBylpaWmCgsLrfLm5eVNkqAim0qlLIIjIyOIRCKIx+NmJ6XIKzE+QR7+2fTMCWeG4O2FsFnhy08P3QvHyfuj+Opa4Xh7PeevPfw9/1yY5IWwn4LM/nlvTncjyE5+efhnhLDbsDvvJux2Jn/C8QjbhZHuNv1+Ovz9TP55uzDS/fPhSKmu6FqEqA5VaQjHQeWgeuPhnxMyhev1TPDuw/4L6f7oOlMYQvq1z3Ppvq4K6e6E9HD1jK7T67gQvvZh+OdVP6WH3XizdPnn/fZtSvVc7VP3vJJ7rzzC/vlwZRb0jODbjJTsfNge3j6TOQw9J+XvhxH2M2xW2LqWAFZWVoaKigrrNGVW+nx4YWIU30gNDw+ju7sbFz/7OebXwXBIpHjn7behqqrKCNGToiKkTFSPv3XrVlM7d+60SIgIRYC6H06oz5BwZoXdCHIjhJ/LhPAzHmG3up8pPG/voev0+1KqiNFo1DJaBeAbsDBTnA4F8iMcl3AcBH8/bE63CyN839870PMzIfxsuj+CN/u8CLsTwm7D9kL43rx581BZWTlpJ7cqK6m9e/davqfHJawfCGG3Qtj9TM+nP5MJme57u5me9fZKVzjPwvDPeXvv36EgU/gKU5JTLBaze6rHnmSE9Ge82cfTI93fdKTf9/6G/U8PS9ce6W7DkL2U0uIFKV2Lf5qamrBq1SqsWbMGK1euxJIlS6yzFTGKf9R+1cEODQ2hra0NL/zXFwe+ZsZBSfGH3/+eVdy6ujqrvFJiaUWmtbUVN998M2699VYLUPfq6+stkiJPEYgkAg+fsLDy9l5PtxMy2XnIzmdmGAfK4EOB/FAhDAwMWHqlq2D8vXA46XGYCeF4pT97KP48HeDT6ZF+HUZ6Pvh8Ts+TTGbp6e7C8OGGOzSv/LVH2Jzun+6Fwwq7fbJwoLBnslN7XLBggbVPL1kJXg/X6YNhJjeP5dmZ8jE9rWF3shfpiXs6OzvR1dVlZvHO6aefjmc961lYvXq1uRUxSmLUfbXhC5/xTLPPhAOS4s9/+hPMmTPHxNTq6mrLWPUyGzduxI9//GO0tLRg6dKlpkSIylhFUiQipWuvlIBwxqdfe90rj/A9j7A5jJnsDwXywxdEOvw9j7Cbmdx7pPvp/cr03ExId5spLofqZxj+2bAuhP0L+58eVvq9MNKvDwYffth/wV+H7dPN4bDCZhGirqVkDl8LYbceskuPw6HA+5keLwfV9dnnzUzxCyN8PVt/Zwv5F07H4eRL5nzIjHR3/jpcbn7KTrqkXylJiPv378e2bduMly6//HKcd955Zi9iFCkODg6a1KgR7rv/4z/NX48DkuKNf73ByFBSonQNib/xjW+YxHTOOeeYnRhYgXlR1Y/plXhPhmGz4O3C1+l6up2Qyc5DdsqkdPfpGeuRyY9MOJi7TPd9uLN9djZuDwQf3nTIv9lVvvTnM/v31MPHK1Nepcc5Pf7+WvpMZq9n8j8M72Y2bg8FPg5CenpmQrqbQ70WZgpnJvtDwcH8OND99Hv+WrqUJ0cRolciRQ2dpSTMaQpPI1kJc1dccYUNs0WKfX19RpAixZe/4pXmr8eMpHj9tX8xUbu2ttYkxDvvvBPf//73cdFFF5m9CFJzFJrIDBNiJgnRq4MRozcLYXuvSykTMrkTwuYDYbbu0nEo/vsCFA43vMcTPk7pcTsQDsXtwXCofh3Iffjewfyd6V4m+3S7xzPOHofqZybM9vmwO2fM/Fy6f7qeTb7KjTdnQib7sF26+UBhyt7f82Yv7XtJMZ0UNYwuKSnB3LlzbWh900034bnPfS5e85rXGCGKGEWQunfZKy83v4Wc7Tv3PqrFPnDfXUaGjY2NxrY/+9nPsHbtWjz/+c83ZvWLKH51JywhSon8wuSoxEqFSVFmwV97Xchknq1dOmSvDAzfT78+HHh/M8H77e9nCjtdPxjS3YWvD3SPV1QH9/+JxExpnMn+sUB+zgSFdaD7TweE4z+b9Pj7Pp9ncj/bfDmQu0z3ZJcpnuHrA/kppLv1Kp0U/fBZc6YiRa1US4kYNQ0oYe6GG24wIe9jH/uYLb6IGDWU7unpwYXPeLYLgxGerJXf/OY3bUgspcUSefLDH/7QJjHPPfdcG6N3dHSYZxo2S1IMD539XKInRHkdJkWvPKbM0jM3kHT3yoyDuXu84MM7EHy4YXcHi4t3m/7sofoldzP5IYT98dD9mdym++WRyU/vT9g/Iew2E8LhCO5Z1Qt3LWRyk+k6k+6Rfs8j3Z3g76fbpyPTszPhQG4PHJ7uzZyux4rH4qd/1iN8fTD/Zrp/qPHw7qV7lS4tihBFjFIiRb91cP78+bYy/dBDDxl/fepTnzJC7O/vN/Xyl7/c+R2JxixV3/n2t4wINTGpOUR58Jvf/AY7duzAhRdeiE2bNmH37t0mdnpS1DK/CDF92KyMCiuPsPlAmK27g0H+KNO8HrbzmI2bA0Fuw8jktzcLmfz17tJ1j/Czme6Fr4VM/oTthPRnPNL9C7vP5J+Hd5cJM4V1KAjHwyM9Dh7pcfTPzuTeI1MYQvi5mfyYjb33XziQf95utn5mcnMwHO5zB4KPs0fYf28/Zafrw09D2L3MXmUiR7+3UUqLwitWrDA+k/uPfOQjtkYicpSSeXJO8eo//H5yQ6TIcf369UaKL3vZy2zvoYbPGn+HCTFMhkqYV4LXs8jiqUC40QhPt/qo+KanIYvMSM8nT46eIP38oqRFcdzRRx9tCy733HMPTjrpJOM4kaG4TRw3uTtTm7H1gJSgRZWXvvSlNoe4bt06m0f0E5N62C+weGJMJ8d/BGSJfWYcyXnzdCdEIUuIs4fnHK/EQ+IjTen5Tesa4WqILB4TnzU3N9uU4I033mgcpylDSZTiQZMUb7juWrPU0FlS4re//W0jR2321Kqz9iXKUz+HGB4mZ3FgKI+yFfzJxz8CMWbrzuMD5aGXHP0CjLhNpCjp8cEHH8RXv/pV29sogc9I8Y7bbjVSFEuKXT/60Y/iLW95CzZv3myrNb29vZOEKHFTCy9+HL5w4UIS5BRDj487hhZT+9VoM4+NYoLuBLn1SvfCKCysQG5BCfJyC1FQ1oii/DIz5+Y/+tCALLLI4ukF8cPYGAWrsQSi8V5MJCMYH01QousnH7gdKR4a+orQXMfgOoicHEdufqU5rHI1l8h7ciduiUYjNtW3aNFiWzQWn4WJ8cwzz8Spp55qw+hXvepVNt+okXDe6aed+glJhZqElKSo1eYTTjjBIqVVml27dpnHIjqRngJubWkxsVQBeWIbI+mNjroDIORWejKZmCRIEaLcps9DIk8n65Sgou5o1DWsQXn1UpSWz0UJCbGwgISYV4ic3KlXBbPIIounL0Rqedbmi1FSXMt23oTSivmorFnG60YkcsaRM54iX0y9AGKKZk92nnNkb9wiO/KLCNdDdnl5+cZRLS3NKCwqxghHu/6enhWHaQ+jXgW85ZZb8LznPc+4Llfio/bxiD1FWBoqizE1f6iVZ78P0Ueuo70NSV7X1Naa5yYNBiTo9y16NToqstRz7h1FudUzDkWoaTgR8xZdhDkLz+NwfR4Jtyi4l0UWWfxzIQcFJVWY03A8+eACqvORX9AY3CM81wQcIi7S6FO8kkiQbxJuJCui84vAcjcwMGirzfv27rVrKRGp7mt7oeYTRbZ6J1ojX/Fg3pvf/OZPSErU6oxWnEVm2rQtQtSKs649IQqaWxSzygOLGD1PSTFyqZTfrzi14KL7/lmHatQ2HovahtUoLK60CGWRRRZZeIgTcilNlldyxFg+j1JgHlLJ/uCue/FDKpdSp4bVjujEObSnrucn3XC4LJLUaFi64DlH97VlRxu7NX2oaUGdtJPrT7LRGFsn3miMrclGHfYgT/SgAvW45JJL7J5nW8fUbr+iJ0SLUECIHnl5laiqORkLlp3B4XF9dkicRRZZHBjkroLCUgpRK9G06AKUli2g5dRxZuIXMZPoSXyUSklAc9Jiinw0ppEqlQQ7bdr28AKblA6FkIAnYrz33nttGjFXTClSFJHpVRcNpTWulmM/bg+Tos5K1LUCc0SobTluaKxhsl90GQsRYkXlEsxZdCYqaiQOZyXDLLLI4tBQkF+C2qZj0TDnVPJVcWBLYiQRiqcE8Y6m7Gw9gwJakrwkQU30tXv3HnPjIbdSIkSNfuWHntPry7kiRImYEh31vrNYVqSoFWcRYjq0bC0PEkm3TzGZFCFOkacWXHwkNala33gWqupXmzmLLLLI4rGgqLQWcxacRz6Zmm8U95jUGBCd+EeCmqTFpE3pJY380iG34jDdE+9pO6KEPiNFjbH11ope7ZOoqUlHEaMPJAyRnjySqKrAw5Lk9OFyMeYuuhDF5VWBTRZZZJHFY0cOOWvekhNRXrMysHEI849GrLoWX4kU07f7eIi7RIqSKLUSrXUUConuVRgtrDQ0NBgpaq+OEzunE6IgqTBFFlZgjhCp+BeOUFFRFZoWnE3GLQxsssgiiyweP2jkWV2zDDW1Rwc2DuIhCXnGS+Qv8ZXsJAlmgtxqyCxBT1sS9+zZg1xZauOjlqa16OIlxbAEGIb2Ho7bcFlSpNg3h3Tr7gmFhZWo57g/S4hZzAaqQ6nUMGLD+zHYtx6xSDuS8Z7gbhZZHBhl1YtJjNO/2ifuMl4KVqZ17af0MkGcJyFQPGjvPktSFDwRyoGYMx2eIKVJMnRwiyY+wNzcQtTOPZXibfbtkywOjLHRJPo770Fv++0Y6nkI0ZFdSMX7EB3ejqG+DehpuwX9XfcGrrPIYmaUVS9Fee3UUFp85DjK8ZM4K7yxOx0iREmT4jiZjRFFhrKULjFTKl1K9Ht7nFhqRrGjPSfk5ORhzoJzkJ+VELM4CKKRLgx038P6lgzqlXtTQR10jiqy1a8ce/2rp+1W3pu5QmeRhVAtYizXlh0H7Y5RnfLKE2QmeP7znGekKBJ04/BMb55Mh1lTSdOOco/a2pORm5/5jZS62gq84LlnYfVRU5FOx+mnrMLFF50cXE1HXU0FTjp+eXCVGYsXNOJv134Lt/z1/0z9/Ybv4HOfuSK4m8WRANWp7ratiA1tCWxcpxqPx5BIJkzXO/aJZBJz5jaxjrGWsS73dtwRuM7iycSZp63GT3/wCTxy3y+wZd3vsW3DH7Hhod/guj99DW987SUHoJnpWDi/Dp/++FuCq+moqizDCy45Bzs3/8nUc599OirKp7bczB45qKxbzY41P7gOC2yO22aCH15L1xSikaIqosbT4ZsHBHMjnCHlFQtRUlUXXE3HheefhD/85os4/7zT8O1vfAQf+I9XB3cccnNz8N1vfgjv/Y/X46UvfjZuJLEVFEwlrKKiBH/6/Vfwmf9+Z2DzaByzeimuu+ZbuPKX12D3nn248+5H8Jvf3YCXv3R2H7/O4slBZLiD9aZ9soLGE+5tKb2jmperrWFue5hU874WVma4F/z5J4kxECGzeIKRn5+H9737clz50//FMy46A/X1tZTCdHp1MSWyShx37Ep84mP/D7/79WdRU+2OGpwJ8+fW4je/+AKWLJkf2EzHnbf8GN/++kdJRoWmvvedT+LnP/6f4O6hIVfvOs87i/Vn+vTdgQhR0H0RqOqi9m1PSop+bvFgpOjJ0LOwFlQq66ZPdIbx1jddii9+9Uq878Nfxytf+xG89a2XobioAIsWNmHpknlGxuecfRLe+o5P49/e9TmTVFcftSh4Grj0X5+JffvagqtH46jlC/DbX/0vybMM+5o7MDwSQVd3P/bv7wpcZHEkIJmKYqBnHU2qQRMmFToiFAm6nlx1z4bQUmTERMLtg9WUja5727MS45OB+rpqvP1trzCSmgkqj9NPOxEvedEFgc2jsXRxE274y3ewafOuwObRqM5AqiUlh38GQmFhGUrK5gRX06XFA8HmIVkH7bQdb6HK6CvmgZhVd8J3KypX8tkpyS4dl7/uI7jmWleZi4uL0N3VQwkhhVe/8rl48+v/Vcvf6OkZwMCgW9zZtHkbnvcvZ5h5zapFePObXoIP/9e37DoTXnHZc1FZWWGJvvInn6W0+Vy8/z/fgP/71scCF1kcCYgM7LO3pYRR1rE8Vb6A/PTuvDpiDZelV5SXu8M+eU+VWkMaVycP3ONn8figo7MX//O57xyQB4Rt23bjJ1deF1xNx4J5dfjzH76OW2+/Dz+78s+B7ZODmrqjyYKurnm4nTKZoXSq3klZJy1LEaEqoL8pfWZmpRu6d2DlrZ4XmA+MOU01uOpXn8fr3/hxu/7cF3+K//rkd0xwCGd+MjU22VN8/L/ehs99/ntmzuLpjWik1cpa9UqT4P5l/jwO1XTsUx6lxfqycnz+VW9DTX6VvYuvXlvuBweHzK0qdmRor/mXxROLH/70evzu938Lrh6NtvZOvPCl/0HueDTZLJhXy7b+RRtqP/jgxsD2SQSJrbJ6ag1C/IaJA88r+nuqb0aKGrJ6UgyrzJjyvLZxdq/vVVWW4htfeT9+8KPfYtuuFrOz96TlD//DBFxYkMehVRJvfsMLUFtTZdLFc59zJiqrKnDxRScGrrJ4OiGViLjz8VjmKnCdySmobEuKS7ByQSEqS4swRtL73O+uxMdf8S57zVQnm+SQLFU/VM80tzg6+ujtYlk8MfjgR7+J2+94ILiaQm/vAF7zho8iGnv0hmjNIf7yZ/+LBQumhrBPBcqr5vLXSYvGVwcYPeu+FwZNUnQVzj0hS094M2GKvwpRUloTmGdGfl4uvvDZd2P9hu343g+veZT/Isaamko2gFK7Xr1qOW6/c51kCDzw8FaceOIxOOaYlTZnuGrlgVegszgykRxLBvOHrDxB/VSda2qagyJKhCuXVKC6NA+F+QVGmD/485VuGockKiIUVGllHEsO2HUWTzySqVF88CNfR0tLe2CjlzdS+NBHv47tO/YHNlNYOL8ef7zqK1i6dOZdJk8WtGhXU39UcHVweO5TvTQxL0xUnjFngiQ8obr+6Fkd//WZ/34Hjj9+JeprK/C1L7zL1Irl8/HuKy7Dh9//ejvlYvvOvfj2V9+HL/zP/0NDQz0eWrsdP/zx1fjwf33T1Be//DO07u/At777+8DXLJ5OUC0ZGx9zIwPfAUtiZK983LHHYn5TCVYsbEAJh8ujdNc10GNkqG06rtN2uxTEijl5ZfZ8Fk8OWlp78Pq3fMLIUPja136C6/92j5nDWMTyu+7P38LcuaGDYYlCO/r/qdm7XFxWH5imc1wmeFKUytXPoUiKNj5HAcrKm5zFQfCJT38fFz/3HfjIJ38wqfbsbceVv7oe3/7uVdZQXvmaj+BzX/gJ/nD1LbjgWW9FIuEKwKOltQuXXv7B4CqLpxvy8oNGEVQtN8ej45x2Y/HixfjjbRHUV5agtCAfsVQCO4ZabK7RvcgfTLMQVmFzs6ezP9nYvqMZl172H/jzn2/CN7/3x8B2CnPn1ODqq75qc4jp+NAH34bvPEWLnvqUCWNnZsdbmeF5z6ucLVu2TOjQ2B/96Ec4/fTTsW3bNjspQkfoeLIMQ2cu5heU2ScEjgTU1Vbi2GMyi8n7mluxd19HcJXFUwVVtNY9t6G4xA2ddcKSJMHcvFwsWbIYz372c6zO3Xf/fTZklntB0qHNPXP04legK+tPs20XWTy5EBWID/xIMYyK8hLU1x34NKxoLI7OrkdPfRxz9FJUVJQHVw5d3b3YvWfmbXiHAs1nd7a63S91dXUZOU0H4Zx22mn2PWh11EaK+jKfPlilGzpCTN9FPRApVlQeh6r6zJsxs8giE/p7NiMy1GyLKyI3nUqi1WVB+plnnYn+3n607G+xQz89MWpLjjbUuqqYg9o552esl1lkkQmqR+37biWZJ4wUhfT6I1LUFwf0KQKR4qOWjn1lPBBKq6bG6llkMRuUV+g4+Kn9rNoYrINAVd9EfHfdeRc2b9k0jRA15BEh+uvy6uOyhJjFIUH1RW+6eMxUf8L2tvqsCe/ZowwFBdl5nSwODQVFpaiuX22vlHoUFekdV/fCgIbIfqgsJTt9WU11VXU0XtSAwuKD73bIIot05OYeeC+16pc6Xq9PW2iR7s0zobgkO5+TxeGhrGI+ysuX2/F0rG22Aq0DjiUN6n3bvLxcW2DRcLqgoFBOzN3oaDXm1aw5aN3MIotMqKqbviKeDs+BUkaKsvSVbTaVTp8ezCKLw4HqV3XjUfYaliTGZEJHhwWjlKBSTtVADqtTKeQVzkPTwuNnVTezyCITZrswpzo2SYp++GyV8iCVL7+wITBlkcXhoaxqMRoXnI+ikkZKgTlGkLGoPmaeojlOSZKUmFuBqqbTUF13FOvkoUzvZJHFdOiAkdy86SvcmSDu09SNzSmKHb3lwUixpOjARwVlkcVsUFhYirqmEykFno95Cy9Aw7yzUNt0OhoXnY8Fyy5Ew5xTWNeqA9dZZPHYUFgw/YCIdHjuM0lRhkNaaCnIfsQ+i8cXuaywRcVVpgrz3eueWWTxuCJvdhxnpKgfv19sNijIy648Z5FFFk8v5B3geEPBj5aNFGXwBzHOCgcZXmeRRRZZHHmY/bSfkWL6PKJnzSyyyCKLfwTklc5+K2HOtm3bJnR23Te+8Q2cddZZ2LRp0wHffa6fd35gyiKLLLJ4eiAZHcRg/9qMnObffT7++OPtFedppHj22Wdj48aNByTF7u7uwJRFFllk8fSAznc44YQTZkWKttCi1eew4+zwOYsssvhHQnX17Ld32ZacLLLIIot/ZJSWzn6r17SFlqyEmEUWWfwj4lCEv0PYtZ1FFllk8Y+Pydf8slJiFllk8c+KMP9NSooix+z8YhZZZPHPiDD3Tc4peonRI0uQWWSRxT8LpkmK2o4TPjrMIzucziKLLP6Z4Dlv2kJLlgizyCKLf1Z4oTBXh0HoC30ixPAQOjt8ziKLLP7ZIN4zSdF9M2O6pChzVnLMIoss/tlgpDgTAT4Z0qLCHR6JYW97L7Y2d2HT3k7s2t+Dzt5BROOJwFUWWWSRxROPSUlR0MWTPWTe2dyB89/8Fcx5+Wdw1Gu/iDVv+DKOfdNXsPL1X8Kiyz+Pxpd+Glf8zy8wGJn6LGYWWWSRxROJaZ84fbLQ0TOAl334h1jzpq/hzr1diCZGMTquD146jDNOydExROIpfOvmDVhw6Wfw7i/8BpGYG+ZnkUUWWTwREB/m6lMEdXV1RoxhgnwiiFKkd/sDW3DS276B3923AykS4WwwkhzF1254BOde8W1s2dUa2GaRRRZZPL4wUtQexZKSkidFWnxw024857+uRMdAJLA5NKylVPmCj/wE+1p7Apssssgii8cXufrOaRhiyicC+zv6cPq7vod4aiywOTzs6h7GM97/A4ylxTuLLLLI4vGALbTk5eU9atj8eJPjh7/zp8D02LGnYwCf//41wVUWWWSRxcEx29Hw5OqzJ8HwvOLjhTse3Iaf37ktuHrsUEw//Nt70NbV7yyyyCKLLA6C2Qp6tvosPJFzit+69v7ANIU51Y/9o+fX3LUxMB0YY2NjaGtrw65duzA0NBTYAqlUCl/96lfx5z//ObBxkFvZNzc3BzaZ0dnZifb2diSTycDGYWRkxPzQ/UNBNBrFjTfe+Cj/ssgiiycH4kOTFJ/IeUXN/d3y8M7gagpvuOQMNJY9tg/rf+2qO237zoEgonnrW99qXyp87nOfi2OOOcaIR2nUK45f+tKXcN111wWuYYT0yle+EpFIBAsXLgxsHw3l2SWXXILTTz8d1157bWDr8IlPfAJnnHEGLrzwwkPKywceeABvf/vbsWHDhsAmiyyyeDIh4dBIUSvQ6Y338ZIct+3tQNeIezOlrqoUt3/xzbjuE6/EkuoylBUX4qr3vQgrF9TZ/fdechJu+fwbcdsX34Qvv/pcXHT0PFz1X5fbveMaK3D1R1+OX/7HCxU5s9vSOYiuvinJLx1K02te8xrcdNNN+NOf/oSHH34Yr3jFK/CWt7wF69evD1xNR0FBAa6//np86EMfmnUe/OEPfwhMTvrU84eD8847zwjx5JNPDmyyyCKLJxs2fD4UaeZQER0eMX3lvBrc/NnX453f+BM+f9VdeOlFJ6A4Pxd//vtae83vk6+6EHV11bji61fjxjvXo3skhUd2deFPNz+IipJC/Pzjr8anfn07fnLTOtz7lTfryHDzNxaJmp4Jkua2bduGN7/5zTjxxBNRXl6Oz3zmM/Zlr6uuuipwNYU777zTpMkLLrgAz372s/GXv/wluDMzzjzzTDz00EOT74/ffPPN9pGcMLFt374dz3/+8yelxx/+8Idmf+WVV+J5z3seXvWqV5nUqc/LvuAFL7DPywqf+tSnLC567oUvfCG6urrMPosssnjiMCkppktFYaJ8LKQ5Pua24CxsrMaD63dg3b5u3LqpGdffvQl5uTm46LSVKKXEeObRi/CxK2/Dpv19+PTVD+CiExdjfkMFTj/xKNSXFOG7f7wLD+3swN/W78NAb58XFhGNp5whA4aHhzE4OIgFCxYENkBhYSEaGxsf9f1qpfHXv/41VqxYgauvvtqI8+Mf/7jNRx4IJ510Empra3HNNW41/Kc//SkuuuiiafOC8nfx4sVGxM95znNseK35SsVNkqE2z//rv/4rEomEEaikTemSbP/93/8dP/rRj7B161b84he/CHzMIossngiIB+wbLelziul4LEPp3Lw809u6BrBm9VI0VpZgDYfLF5xyFEYSo4gmRGo5uH9LM979wlOxoKYM7/mXE3H35lZGEMjPz0NPLIHXXXK6SZtHL6xDVW2N3RNKiwucIQM8oflDdD0ypVl2n/vc5/Dyl78ct912m2WOJLNY7ODvXV922WW2MCNSE3mJ4MJS3Qc+8AG87nWvw913322EJ4gQBS+9akgfxsqVK/H1r3+d6c/H/fe7haqspJhFFk88JlefhcdCfjOhtKLc9C1t/bji87/DI997N373ydfglge2YW/fCIfIHSSvcXzsl7eiobwYD33/PXjGKctRR/LsHoyip38Yw7EkvvTTv+LGL74V3/33F+HVn/zl5AJLyQG+51pVVYWysjI7L9JD6e3v73/Ux7FFkq997Wvxn//5n5g/f/6sP54tiVBDbYWhuUQt3px66qnTCOyd73ynkZ7iI7/TkSnftVJ+7rnn2nB86dKljyL2LLLI4omBSYrhRvl4E+OqxXPQWO5WmR9u68P8V3wWa970Vbzuq24bzA9v34q93YP43Osvxvt/cTuaLv00XvCZ3+OoudXojiTwsZ/fYu6uWtuCxZf/L85/74+wa8DNIx4zpwqNdZVmzgRtStcK8s9//nPbIiNC/O53v4uOjg6bwwtDW2u0+quVas3jadV6NhCZLl++HDU1NXjf+95nq8cKNwxJj+ecc47NV9bX1we2B4ZWtOX3hz/8YZx22mlZUswiiycJ0+YURRphyfHxQF5eLi46eUVwNTM272nH9Z96Ld72rONx82deg29d90hwZ2a84yVnTy64ZILS9LOf/Qxz5861BQ6t7v7P//wP3v/+95s5jKamJpx99tn4whe+YENoL11qa44WRLSlZyZoiCs/tdhy8cUXB7ZTUFiS+OTv97//fbML75fMBC3AiGi1PejSSy+1YXz6PGgWWWTx+MFzX862bdsm1OC+/OUvm0Siif+1a9fa8C2T1Hg4DfP2B7figg/8JLiaGS89bQVOOmYp1m/Zg9/e9+i9jelo+cX7sWBObXA1MzTXt3nzZhs2H3XUUZP7DzXnqNXpoqIik/aUD4888ohdL1myxDZfa5HmBz/4geXLj3/8Y3vOQ89qTlBDYg2jtWqsuUBJilu2bDF91apVFs66devMf60kaxFFiz0aag8MDFic5FYLQy0tLVi0aJH5K+lV/ui+JFf5c/TRRz/u0nwWWfwzQKO0TG2noaHBprxOOOEE474cNtAJNUYtFGgjsraFiBgeT1IUXvHhH+A3syC62UCx+uRLTsd//b+XOIsnEJL+tML8q1/9yrb1ZJFFFk9PzJYU7ZSc8HzV4z189vj8O18cmB47ls2twYf/7V+DqycWkhrvuecey7AsssjiHx/GhmJPKRFiJiZ9PLBobh0e+PrbUFwwfRHiULGioQJ///ybkPckLTwoP7QS/UTlSxZZZHFkwZglk3T4RJDAqccsxV//+9Voqjq8wyCOXViHP37qtVg0b3YruFlkkUUWhwrbkiM4XnxipUXh/NOPxsP/dwX+9dQVyJ9lOEX5uXj9eWtw5zf+H449auZDGrLIIossHgvEf7Z5223JMavJG08k5jXW4o//+2Zs+/F7cMHyJpQWFaAgj3EI7gv5jJPsX3v2KrT+9iP48Sdei6qKx37cWBZZZJHFgTBtS45WYLT6rO0j2l6SSWJ8vPfKiX8j0RgGInH0D8fRPRRFWXEB5taUo7ayFOWlxYHLLLLIIovDx6xXn8OOZNT1Ey0phqEwy8tKsKCxBsctn4tnnLQcZxy9CIvm1GYJMYsssnjCkU6U09599sZMbJpFFllk8c+Aydf8hCdbSswiiyyyONJgbOiP2MoSYhZZZPHPDhs+T59XzA6ds8gii39ecOTsvs8iMswSYhZZZPGPitny2+QbLV5lkUUWWfwjYrb8Nm31OYys1JhFFln8M2LaydthIsxKjVlkkcU/I6YdCCE9S4ZZZJHFPzOmkaIgaTFLjFlkkcU/GmaaEkznO7drOw0zPZxFFllk8XTFTMJeOt8ZKaafvJ2VFLPIIot/VmQlxSyyyCKLEJ7wj+FnkUUWWTwd4LnQSFEfrxJkFjFmh89ZZJHFPxu8UGj7FPUxdw9PjFlkkUUW/4wwUvSS4tMdIvSsyqqseurUkYzZino2fM6UmCNZWvRxFplL6egzKX+dVVmVVU+NCrdD304z8ctTgdnGImfr1q0TkUgEX/va13DaaafZN1r0nYIn6xsth4JwJvtMD2d+Fllk8dRCnOGV+yDe9OunEjN9o6WxsRGnnHLK5Dda7MNVIyMjRor6eMumTZvwyCOPYNeuXRk9eCpIMUyEUiYZBnpOXj7yqHJy3Uf2c8iNpEkzzx70W4/4cKjGaEENYxM55tu0CQZaKGcUjtxKye34BG3ocMzM/nn+8N+gymGaKonmLmBfMSzKz0NhXg6KC6jn5yKPN/ICN08WLIqKN38sLUxEcmwco6lRxKlSqZSZx2hnHZBlWABLq3vO+ZSDfKZH6cg1T8f4/ChGR0eRHB2noll+0w9eWh6NB/ksTPD53CDxOfJUfgdl75S/5vP2rJQLWdcy0IV7nv7IL9WOXOUrG2Z1ZRnOPG0N681jb6ThMgr7ptBdDBzkzBQr6Oh4jsV5JD7GOOSghGWu6+HEKNr7IygrKUIh46o6nhwdw459HVg0rwH7WnuwZtkcVJUV2dcuv/yDP+KSi8/AscvnW14rP3uGE4jSn3k1pShhfRpKjqF3MIrGymL0x8b4HNBEs+KtvMmnvq1rGMvry13++MjOEulOVQ9UV5LJpF2LCPPy8kz3KhOvPBmYLSlaOXqH0pWopyrSmWAkxcqhBqXM1pcHU2Kd/CLkFZcit6AQE8xo15jVFFxVdJUy7c/u+3thNypc/QZ2wU3TdZ+6yFZK9j53RHGsR0ZgrNs0s8CZo7JjJjpH0+DD16+cTBGfGq4zMyaZHn0CYbHhjyN5khR/UiStMSMvNxziD3J5T9/qLmB+F4jAqUTopmhWIywuyEdxoexy2QCVQwT9E4mJUFWO0sdYhvJW9+WOj6CIeVdApbycYO9i5c5nR0mq1klJhcpwqswdrAMivI3L3yAOQZ6KfBoaqh8XQjwQFIMgSIOudb79GAlRFUp1OMqOYjCWwt7+KBLsHSqLC7C4oRLlRfkoLcxH71AU96zdhcrKCnYyuaitrUJX/zB2tPVh7/5ODDRvQ0lRARKpcfOndyRu+aF6FCUZqh6WM2MbSIL7ugetDGrLC12Hy7goB5QfsUTK1VlGclrnPwsoXS63HZTfhYWFKC8vN1VcXIx4PG4k6cre1SfF80jFtJrhI3okRFhxUOYpE5WZiUTCrkuZ0aWlxWx8uShmwwurItoVUklXoyyUBBZWashm7+4XSUpjL1YolZ/P+2zQVKWqlKygZSUFKKdeUZL/KFUe6JUlhagKVE1pAWrZy9eVFqJe5rICNLAS1pUV0kxFe7mppr/Vxfmooqpg5S8rEpnkUWrMY49PUmCVVcV+0mDFHZQ5NTUUIxbVA5JTnhTjk6+8E+ExziVBXhXZNeOv/BM5UhUzHfmU3E1SDNIhr8hpVJSAqI9SicSoWYcgop16XteSMvWgyJHP8cckcT4gcpSUSG41P81OboVJw6Ph4jCBivIn5vvhIhSvAo4x+KIUse8fiCLODGgbjGNbczce3tKM3HF2+Hxo4/4+bNnTaWnrEsHxmQXzG5jXuWjuHMT6tZuwY2cLHr7zAdxww52orKrDaE4e4pQm5ZjymNWbCtYvVifzM5oYw2A0gSWNNagrp4TJXlvStPIiwec6B2KsgxQq6FZ5I3+k+TjPFnxkUoUhybCqqsqIUuRoIw625yOZGG31OR2Z7J5seFJUBiozCygRFpdQMpQoZkU2pTL9qXboT5/Yz6TsT26o1HCVZKcCP4N77r5T3hy2m1T0REMzG/pSSfpRQzcpkuZ09zm0M3+Ce/w3JQTakwpVTxGMGoYNTzVFoV6dSuY82uVTVC5g5NhGjbRMMdKSHi3NZHSl2/JCiaBfJl0LdDNBNS7FFMpa5Cil8AQ9Iz99p6WGLTu5tj86M0IkOTpC1V8a0jLPNzyfNj2vhvp4gEmZEeF4eXOEw9pkagzb2gYRS46yk2EnQEnvN7+5Dj/4/k9x/W9/hRv+ci3+eM3fcfvNd2D9pj3YuLUZm3a24eH7H0IiGseGhzdxmM305+RjqLsdm9dvxp33bcDmPR1Yu6sd+9r7sZcE2t47jFaqCCW0wUiC6WZ4zEzlgfI0Tsm0P5JEinm5gBKo0mJ10TevKe2QofSmq4ICChcVFdaepY5kiTFXEfPwJPBUI0yIkhCLS0pQwJ7GIz3DlYJw1nqzUhJ2N2vMkAXp1ro2xR+fd0Z2qlw0U3OkKDMrG7UpFTwrmFmWTyEsf/hjhMi8H6MUITWuXp1qYmwUORTNNMeXSyWi0nyhou3S6dIls9nTO3U+LrE0MQNyJT0acUqXJGkujOzGJBHKb15rXkvkKEm+gB5bp+GiR8VfM+hHYQT5R2X5LLPCJHyDszlL6VSjVNFYQtaTcK4PEYfwkKIhpXnA5r4Y5tWWYndzF+LJccYlhY2PPIz773kQfSPA7o1rccNvf4Se9g60796Jtp3bMDGaRMeefYinJlA/by4q62tR21iP9s5u3PjH3+H2a6/F3X/7G4pzRimVlWFkaIRkW4TaCg6bSZA1lIwf2brXylb5qbh0UGKt5qhlUV05ydLlmU+S64S8+fGB/FMd0JBa0qLUkUqM7DTdN1qOFCguyiwpEWJRUTF71ILgriNAQY1Tbv1cX3oKvISi4vV/U/T/aISfn5RuiPRKoWuvwpi0V+UiCeSyQavRO0nQk+OjnzVzyMLac9jBEwyXVOYODcpPUyJFEmBKvXrKkaLmF8dklmLZSHqUOxGlxDDNAeZIHAvyTulQ3ZLKY6vTCwIFHG5riqKwiMPuwJwXLJDRK7f4Qn/psZEbhUUnjYoYqctPU8pTKi0SaLpB7mTWMyJQg6VHXgVpop/S1Qi7+wbtnkfIOGsEoUxDJjsfjmmM2/GLapGkeJwczyUxjKOluRUXvvAFqKiupqoiSSZRVrsQWzc+hH27dmL/5vuw4c67EI0OoLyuFgX5E9hCEt2+7iEcdczJKK2eh1zmbXysADdf/1d0tHZanrV19GHTrg6MJuK2sDXMfqC5a8CG8JLqNd2jYbXirPxk7lj+CaJHnxbF29z4C68OF8wDDae9xHikkaLiMu3d5yMhcr7iamI2l9JEWEL0ECF6gmN1D0xT8DYq6NnCCt6cOx9n/+R0yB/WMZY9KxYNJjFK1z2Z7Z5z59VTCibUp1fFr7yXhJiiZOiIkGYSYZLDvWQyxeGf5oTUaVGyk7LyYp6xQFR2lm9KIMlQkoEIUVJhfkCCRRxGucUYzUly+EilYbcgTjV/GQc1U9nacJpKq/QamjtJk9caXtNvzUPqeZu2COWrg+LDP/rrlMUO+9t72eG61dHDwgyF5nyfgoJT/si5wpaudIySFFOxCIZHRtC2rx133XQzCsobUVg3D+MFFejqaEF+SS1q6udidKIU+1t2IRIZx/o7bsVV3/sWdq57ABvuuw83XvMrzF99ArZv3YyWPdsxPDCCdQ9sxPW/uxpbNu/AMMtsMDaB62++B7dffz3uuvN+3P7gNnQNRpm746gpK0aC0qeKS5224p+etPC13D0eUDgaSkvoOdKI0dqoj0y6/lRAYUtCVEapIZZw2ByGj5kRoi6ogljbr8fhlF3Yh8nnJ/2fjkx2qjBWaUKBTyNGKdpN6XIQPGdG/k2an3goDa6oHWnIQpVTUqBWe0dJho4cxyjZUGpnmSRIiEaMVI4Y/fDHK0dCSohJiBoiB4So+TORmC3KiBRJhiVmzrWFLpGa0q2o0EsaSIrspcSXkhSLpEiE2rokpaF1oQhSSmFRmTTJRz2ULlP6k8dShKTRfa2Ht7XMl9GBYEEFYYvoo6PjzL8J9MVG0R/lULg/io7m/ZiIDeKYk47BJZe9Gm946yuxcuVyrDrldBx/5kU47/kvQtvubejvbkEvSTI63Ikd6x9AeWkhSooLUVxWhqbGajx02zVYtHARxpIRdHa2YuP6tegcGCZJbkMey7G1uQV1tbW4+JLnoqyqGv2MQ2ffsEmKyj+lR5FUfbQ6eRCY+1m4OxhUP7T44ofRTyXvhKF4WBetCLph3+OQ2sOEImONkkqkKELUMHR2yBzvdNvZpM4qtDNO6oK3z3QvDAuDPz4rHdlJyc41Wq8sdZPuPKZMTxQs7vwRWajRmmK+u72fE0aIIkfbOuPtWD7at6h9cyY1BhKjOi+bf5wkSJczSqtNIXBoJ6WhsyPHAjNr+FxEe5MWSY4m8RmpTaVf+aNhsRZcRIpqxFrZlnQps8hRiz4mQVJNDrHd41MI0qqYKXpSW3fuR2//sLs/S8jvmeD9ldQsCTrJfBmJxtE/GEE/Sai3dwCJoSFEB4dQMhEnYY1i+yNrKQVPoKI4D/v3d6EEMZx21mkor5+HP/zkZ0B5LVBch3hiFEP9A1SD6O7sRG55A4pKizikHkXhaBSJyDD279uJgYF+xONDzK88bKWkeP0fr8fGu2/BxgcfwrYtW9E/NIK8sRTjOYa2rj63p5NgcR9SrTsUt5ngn1cbV1tX3TmSiNHeaIlGo/jqV79qb7Rs2LAB69ats83bmfBEbd5WhiiDpLSZvLqm1sg6DGWZqVDmKYOtIbn/SUjYCA+zJ91lgDUX929+e0nUh+LvT4YwXTOkNxhzHjwmPxVlzcGZ/3bTPaOGbNKUSTrBYkGaX483LC78CwQya8giQOW9pMFEPImUpEEjPCpKHGroNNjzIiANAwtswUTxZYSptIE+n4SVR8LThvpcEp06NpdmKlb8UQ7LrfMjkdq1kSzD1DA9IFcN5DRPaERHf5VdImdtKPf7FeWfdDVsNWojbW0M5/Oas9P+RrkJQ9EMl1o5h48XnHGs6QeCe+7RsHgpTObTcCyB7t4hDA0Oc6gbszxUx+DS4NxLczGiyf4dkcuN7VxgXsqcGM9FZ3sHuoaSuO+u29HfvocdB10XVWGCebR4bgPyMYDdrRF2MMXo6++zbWoNjQ1o278fkcQ48otLUFhQhlSk1+ZwVx13ClYfczJ2broXq08/F0MjCTz/madifn2V5bWmIxS/IKqzwvTcnR3S/dfbdKoPkhq1Qu0EiEOJxewxm83benHFSFFbXr785S9PvtHyVLzm5yVEzTOoYVRUVgV3pkPNUnN/pBeXwUEcp9PnlDsPGTNntSMHufXkp1VK357CBDwF+hR45v3MVI72pPPSGrAjRynZKf5sFGwIbjXWNR6RYia/Hi+4OJFcFAcqrcxKElSeq3GLDE2RHD1x2RYYmidEikyH4sfoOiLnhZPQHLnnFVIqLCwwqVBzwlpxVnIciQUjAfrpV7gVhhZ0tBig7Soi5wmSsFaw/RYne57Xfr6R/1QsN5EilTaaiwhTvKG9dykOVZMMz+Y6ld50WP46f4uLCnDmyavQUFdt13IvZU5CumDlQpViPHsoZe7a245u6vEkCZBhyYHKUJ25tiop7hreK4/sWWJ6fJy9uadbzZeqs3FTDm7fqqTtiYkcDI5EsGP7dqyjdNnT3kYpexz72vrR3tuPCAmuat5SUBRFUVEZovEITjl+NS487XjcvXYzw5lAU20VapsWGoG+4g2vws7mDqxZvgBLm6qs/Kz9MC6KppTaRHqbyoSM+ZsBQfIfBbX5IUrQkhpFjH7U+kRg1qSo1/wkKYoUTz/9dGzcuIGkuO5JJUWTJNRYmEF6Y6WktHTainMYvtLaTxC9TIXn3YWJMRPUbEQO8koNT2Z7NnguTIpTJrnnE+5/EunZZe75M6nTL6/csyJF12i8RPGEk6LFx5GiyEUrviJESWlGipIOJSXSzhxISqQuJUlRZKa0iLQERVX1xNKgxkxSLBQpUulaiy1Kj3VkCltzj/RDkp9WsEcpaUkSFUFKapx8g8bmFAO/FW/90QMbzlPxsUBy1Cq5VnNJiEaOktymSDEsLfry9Xlv8eKf8r6+rgpLFs1FTXUF451vbgRpCjuVSKGzewBtnT0Y4DA0Fk/ZHQ8rSzp2BKiOTkN7EVxA7IF/QihKFoDtTAjc2hwpVUG+phoCnfnIm3SbY+XVy6H03r3NuP22O5CfjKGouBj3b9zJ8FI4asVRKKK3CxoqUVWai9REEbpGktbRVFJ6LK+ttbROoADFbGd5FZUoranEOSettrQyaIuU5HM/52h1hrpvSzKH21w4OWHIv4NBbaGrq8u26ogUtUshE+88Hpj1u89HgqSojLGGSelEpFhZrV7bDZt8zqZLfVK6daDsY7txCJ7N5FYNxd9X5XcN11/rx10EVtPg88f7m55d7vmpZ40M7d/Z+NcCbcjMhmONir5lyPbHBRYqf5Rmti1rYCIhEZPmCm0LTpKkSGIcZyMy5qRr9/6xSFLEJMIKyCWUHuWFGnZBISUcDoNs/jCQdCyRHvas88fIlnGQrvKXcmZHnIJqgWUHn1G8/TNJI0hekxCdhBjMeVLplbnJ+wqLj3tdSpCfirPy3Mz6YzS1v6+UUktRsRvKiahjsTgi0bhNJ+h5uVfslA7p7nlHiEqpGxK7VfLJRSA5IHz4fNSUytrKXW6ZV54YNcdqc7FGjAUmddORPa8OQdMQ6sAGSJA7tm1HZ0c3du3ah1OWN6G6FIhHxtBB6bK0YALR8WLU1tSgvXM/5s+Zi7nVldhPci9rWoSRRBInn3cOTlq10KRtzd229UfQUEXBhHGqYD5IEpdEXlSg/JLk6uIt9I/EEWOEqkuLUF7ktld5BE5mhM+LHnKKlxRFiunTZo8XRIpCOq+lS4osxxyraILM1nAD85MNayxUyhL1RuFctesAMsrNwWI46UY/GRz7QtEtb340DhBK+kO6DlSQjQbvg/JUyhqPCJE3LI6yd04eF4SiMU15KG6TikVvQ2gqSVay1J9JYbzpSUvxcw2X0mCg1IC1uu4XxOw5Iy1JfsF8pIiEuu1rlJJfCpThqKOzPKAyEgn81Sq1yMCRBPNKYVD58vQr+pZntDRdoMHu88fFyMGTlymZ/bWZFW8fd5AAE+jhkHR/axea93eiraMHg4MjlhZfdlPl5fUA3i/p/DHdrgNzoBTmZDxM8ZphG4lTSVeHpbyX2ToJunNpc8QpaVZSZHV1DU6iMHPxvzwLl7zwX9ATieOOBzdi45b12L5lA/0pwnh8CPta96GKpJUY6MPm7VuQio2wA0xgwYIF9qZY71BMKcBALIkBEl3PYBTDlIbbByLo4fUw7dv6ouimfZQjCaVD72936LCJimJ77z2u9wpDoBNT6Ui3Fxl6DnqiobI7GCbPU/TKPyTzk4lwHASrAIHyCBPjbHGgRwJZdBKTSQ4/ZGZV/uk+HSwqdj/k/aR7GaxhmWb5bVkus7//GDGjF4wPc9iipXx27xKrIbrUufkcKTV+WrBB2qKGVJAWIyQRIknL5hDZQI20LBHOXw3VtCDg5wxtdZqkYhWfyub6rBE4YnQdg8IXObqhp5GuwgoIVwhlJ+M7deVM/FVaqKscfRNTanXf1y0zU4mMXB5It0fdj65pFCxPpNOgHGJ0TMne55HsdS0obA/nHf2yvHNE50lP+WDXYXuaJ5XyyOskHl9Ogp0+xLzXns98SeRFwWp+USGWLluCF7zicrzg1W9CReNCSmCDWL/uPvRGkqigJDbQr6E/Cb+j3YbaLVvuxf7192N4oJeScaFtedKugIbqMsQoQQ6TYFs6+tBYWYKGihLMry2nVEjJM8FOTlnFwnMjOJcDI3ESavTR+z8tL0JqJvgyeqIwW26zGvdETm4eKsIR9s3h8YjZ1PBblV4XU5X/wFlEBBGYrP72wIFjdSA//ZPSM5kfD8zkF9sfG2pACkHDFFT+RkiU0rRv0JOSgU6scfI5uXZuncSiumPDHbrVPXnnGr+Gwlq5FhmO0gM2bJGkpB4qKw86tqf4b68P0sqIhj9GOnZBS3MqcnD+h0na2TMdNDOKZra0mVun27XcBu59HZtmR11E6sk0DCO+UIbKOFPdnPLT+eWJz8dLyl/7uDgVPGOJdLrNu9LSzJPEGExTUDLTIlFpcRGHnsUopF5IYiwozMeCxQvxkje+Bf/vY59Aef187N61HSORIUwUclxNySI2PIwtu/djx+5mtHa24t4HNiMeo3QYSWDDfQ/jO//7Jezbscf2VzbUVli8bPsOE6thu4bZI4kURqKjqKks5T230V6bwcsYJ9WTQ4VL2xMLH8bBuM7efQ5H6MmI3GygaCsm0qV8JQxLi7pvFZkGRVsqY6WWQwMrmP06d5PWBtcwDNNvOAQRcQ0kiIRdT0GPeZUJgRcGeWH+UE3ZO/PjjiBSNkQOdLdg4RqnMkjDQpvPKnANzr0tEswLBuk1MjJydP5Y3D1xUclK99x8IXWSn1qI9Mlhs+YqrYG7e77gLAR5QCheHWxw6/qTuK9vFPcOA/dGcnEX1d8HcnBd1xhubB/Dvd1j2D0ygQg5V3NetgBD7ynMGIlQXrW0ylvzWmE9Ct4u7d40t1OkJcXYUw/fd/njdefO5e0kEYaU8k73nZJ/IT917TRTkhKNQG0I7ZTagjosKyO9GUQpr7SkiHqRzee6vaEFWLhkCd723vfjxa96PaLxBNr3t2B/dxv2tveidX8zert7sX3rdoyN9KK5vRu3XX0NHrr975hIRrH+4bXYdN/9rAMFHDqnLG8V2bqKUnQPDKOtdxgbdrXaJnqKVJYGlZuU4j2ZALuYAcF9JfupwvRydNccCbnJUV2okfoGfzA2faKh0L0K8m4aJu2CH/dH9/wxqwBT5qCwMsDsg5vhPMqYA+GIPa543D2cBmt01JU+IzUpXugoL0HlrcqtxqY6YcRIpeGUbRPhMFbPe0K1zlSt1x52mq6MANQwRHq6lhs1ZrmXnSIwqQfKxcxWj7f2JfC77cP43a4I7mpLYF1XAluodvQmsbcvie4opZSxfAwhH60TRdgQLcS9QwXYHcvH8GiOSTRG+NKp5LPFxMJxUfXzkT7H7c7Uj+nuMnieP2Fys2tzNfXE9PIL5TV1e4YPGblJ6Y/33H1nUF76a7un60C54TaVFqKCDkZu7DVKK6sCW/F3ynVkOSwzdVoFlB7PPOdsvOJN/4bTzjgLsWiEeZSLfZ3U80tQt3Q1Fh51DP7+t7vxt2uuxroNDyI+0o2+5q3YvmmLnd+oo8lUP6667lZ88we/wfe+8g1856tfR3//ADoHR2yRrntw2BZkhP3tHbj1/o02L2pgXE15pF8/hUjnOSNFKyTlcABvDts9FfCVTlC002Nj1/xh7K2CmHK2wU2H6Ul+NLwUGXpkEmG7TP7M7PfUk5n81XOTzwYXM/t1+DA/GQHFwRR/pshwetysHgSOVVGMJEWGVPY2ilZDJRUGfjipIJBi9NikCvwPGrMeML9JhJOkQMUfd08eUnVR3PvT7gj+2hxHa3SMRAIkqTR3L6eKr8YLOgl9lGpMeUalkfsYDW2j+dgUK0RRVZXdmIyXHrOwpqAr5Y3lT4DpLty1Yu/yypGhI8QpZekIPTk5mrEfd9/ygZdeavV+6NoRoK6D8Pjj/BbpuftmVj6LFEk+o6PuTSItWtHSwvTzvCojEaKVFctNZSh/pWpq63D+i16O0y6+FAOa9issRk5hIbr6Ivj1lVeiY+v96B0YxGB/H/bvb0XJ/KOx9NSzEImnLPyB4RH8/Ac/xz3XX4M9O3diz/bt+N1Pfojf/vIq/OKau/Dxz3wTe1o7cMt9D+EbX/82Fi1sQn8kzoBC8JE5gqF8Z6epuRtXnK6QjwwoJqq0B4qR3eOPdHMfmMMIX6ffmwlyF3brG49vSF5lRtDMmZeWn+6fZrs5DQf25/GDYpQevAjFD9bdsIwNlUyk/Yo6DELzRGqUOTaxr4bmVoclZcmttvLovWjpnhytsVPxf/LaSTUuL7QAo0auxuzDlHlzbwK/3jGCzsgY5T8NDdmoKZkW2CKLjuo3ZxaOXlGzZ0WWijsLnYKPTIzfBJasWIzTTlrN+Oa7+wrX7jplhC+dSlCdEWnpnsN0k+6F0+YV/+2eQzD8D8E/69Id5AWV+RW+b8rdc269NE53VCZ1M93jo9oW4xasRu0Vy1FKjcHiFd0rfDuajWVlpxEx/Vqd1vyjFTYh8/Ne8Dx8+Wtfwbz6ShRNpNC+ewuG25uxYfN2JHLyMZLKR38iB117NmH/1nX0dxxDkQSu/eu9aKiuxJoLXoB/+9AH8bmvfwnxwV7s3NmBtbffQnc5+NwXf4bv/+jPeOErX42qijKMsuw6eoYs7CMVyvMwlJ+ODQlVlrB+JEDRVWwOFCOXpPDv4eFwnvVxC8fR/JnmGS+C64OGcaCEHi6mRSxAWjiqF/41P+1T1EZlvd+s/Yu2NUQP21BNQ2tJkXxGjZYk6t6GcQ3YN2xHAPJXDdo1amvtNIvdvPQju52Do7irU+cb0p38pdKETgEjKVXEwDSs17M5fISczeGaC9Mv2BjNUVqqLNeJ7PmY11SLZ55xrJFCJtB1Gh5Nag6WiBB5OSVYngTQs9ZsQp7Y3eBZI0Lll3Te8Pmk+5PuAjvv1g2Xlc5xG5baq5ZBeXhidO+du+1O8kNx0HDaJEZJ9wXaJ6pXLV3EFJb8X7p4Pj7x5S9j/rKjUVZaRD+iqKwqx3gyQeKl25w8dHR2Y++2rfjl/30X11z5Mwzv3caheS5OWj0Ppxy3CnMb6vCqd/4HSorzsfzoZXjWi16IxcsasXhBI/qGUrjmpgdw3e1r0aUDcZXoIxTpfDdJijJYIR1BUFTD0Z0edY/Di3O6X/5aWTAbH9PjFsZM9obA/8OL9eHDh6f0+cZncTFxS8o1RM1XiRjjyTEkSIralqGPVmnOyKRBpS7YsqO6JInG3kiRtGgN11GFb/S+kfu5MSfhWcBm7uYwrpmqsqQA+owE+ZYh8B7Zj7/2rMLQyrSIUtSl78RIyRsRpB9eSzKsKi+yQyIUv4b6Klx02tFuGGmpz1w2fNTspXvIbIo/YfswjIgDzCRIOD+UkpB/ura8CNlRF5RWl1+SivUKoyMUI0jlvxGjk85FiNpMrvLyQ2lFQyv2WmhRfvgtUxpeWxgKS/5T1dfX4T0f+QBOPus8DA4MYde2PXbwRCqeQFlxCSX2MRQUVSAVG+bQOYHu4TgJsADDmkPkkFrzzBefcxLe96F3YsnKY7Fz23Y0Ndbj5a+6FMeuXoJnX3g6OyUO20sLrKyeLjBStIpLg4eujwRMirAB0qudnwt0SLubuY6adVh5HHKaZ/A/HfJ1Jp/D9uYdf2bp7axhYQSRUBLV4KwDFIFRmXSnGkuVo0ZF5d3oPWSRo47Nj1JyNHJk42MTdNIPY6vnNczWGyX+5Gxr1BakGp/CdY3QLRDI7PQURcLOcb0SSDJjw6kpK0RxkSNGQbSosMwvumUQrsypREIaxvtVcSPpvHxUaFsKG6stpPDWgqYarF4yL7h2yj3gVeAPL8L1LQhmGtKvPTw5ei8FuSVNTT5j9cuUszN7b8cr5ad3Y3lleclLdVJhFXRAkhila35Rm+MniZHPWd5Iog+mO2zrlDoyEaOPIGOqkHWm4b+/71146ateiYlkEr3t7ShheeSMxzE0PISOfVsQi0Ux2NuB0fgI6qrqkRoZRHNzOzoGIojE2KPRo38570S85fJL8MoX/wu9zqW0noMHHnkEy+fWYDCSRNtAlB3rFMccyVD+W10I71OcrDhHGNIrnaT8TDhQ7MN+hBEePE2aFMgMsLp8CHBNO8AhPvtYobAVpOLspA290qchGRsViU+T9iIsNSi5lESmSiHpTI1Sc4wJNjyRoj/JRiu8Ij+Rlh4VYUlqm8wXy0SXk7JyRMk/6YHq5+BYDUhDvTIOwfRxr0YOfwtL8klUTkKUx2z+ioxG72bv/S6ksi8L2rwjqYlu9cExbW62KiynNJx27FIOq/VtH0eK0nVEhSdCe5ruTfFPv87Hg8PceIehB5STygzlt+UVdRv+jo/aR6ry6aKAackzd8p75Y7PK5df9oz8CAjRS+Jmll+yVznaUJrDaJanyku+WDptusNJilI+/UqovpXj4s58LCzEu97zTlz2ttejrKwUQ0MD6CI5jiZH0NHRj6HBIQ6rY+jt6UR5TgIFgz3Yt24tOnfuwNYdrXZS+BBVLyXJ1v6IHQOnt2DueWA7hiMxLKwvQ2f/EB7e3c54K4VHNpTvKn+DKmpYP1LJUVAM02PnCpn3ZhXtoFIQQartdxpC/mS4a3bpyoEPBs+Go2JkELiacjuFsNvHAxYGf6yR8UdDMTUkW0iR0pxhipKGPj2ZdCfi6KQXVQidYah3dvVmiYaqarejqWARRor+2LvF5j91Sxn/LFDXIG0uyzpbp2Sv+1KjNEdyOECjxyIxvdKnj1WVkxzrSwvtPVqdM2h1kf85Gk4zTqZkwed8pyg3Obwhgigtmvp8p6qvKELS0qolc2Df1mYYCsvextEwU+mTsrruKfHRYIjBrzN5ePfhZ9TZDHCIee11N+KXP/0hChivdXfcjvZdO5DobkfVaBS1YxGURXuR39uCgv4OFA92oToxiMrRBEqTCWBkBAkqnVak9LnyE8m6zkgN10neJEiRohbGqOv1Sknh6tAkGSqdfueAKRGlyob3XNkEsaf+7+++Aq98y5ssLQX5pRgeitJ6DG3Nu7FxyzZ09fTivkfWY197K9p2bcKtN/wdD990PRLxKEYiCcvn2vIS3PvgJsQ5vD77nDOxfuNeXP23B3Dd1TfYN2l2tw9YHh3pMFL0RPh0QbgSBsXqyja4k37fEaV+vEqv3geGe2KqWSi7TJltJvgnFCP3p3/BGvUTDAuBEZSkYY1K5oDQTEqkZDGp2JjGOAzTt1f0jjJbnkWV7cnmjTQc1Rf8bFhLltHiio7TVwOdygPddATjGmC+O1Mx2EisPXNqhMZU/I8V6BwXN4cmP2Svz6aWkhT1MaWmyiJUSWosZNgmuuo5OSQZ2DOS7dmjkyw1EMyh5JRLYtBnbj0pCla5eX/Z/EZUlBbbobZ6W8edA+kOqxAxWOz549IypYdh8cx0g9A3UipqarF95y5sXf8ItmzciPlLVqJ1MB+/+fkPUFJWRcIvRu2cuex8koj0daGzvRlbdu/CH276O/7vN1fjyutIMlt2YLCvH6nhCNq3bsNff/1T/PX3v8ADd9+N/r4+I0dHitIlPWoul+XBcpWSNGnvlzNOyjZbGGN5aMHJyFFlwmvrtJgHjhxdbqkTe/2bXovXvOmNWHnUcpSUVLF+pFBWUYdkkkTfySE0/S8dH8aSpjqMRYcwTFLfvn4z+oej6OweRB/1449dhbl1legb6Lc6NJZfjLV334Xbr/kjepguzVP7rDxAlj6lyLviiis+oZNp7r//fsyfP9+O8ens7EQfCyGTtPj+978/MD2+sOECC1QFUVpamjFsQZmoO06nSReBU1Zxq9zB5TSIGDPZCwcrmGnPWevwcJ5m9HeG+AvWEHnbD2mMcGR2tx8TXPREiMxTKRKZbzgJ5q8bMosINZwjyVDXsMu2zojoLDe0V8ulS/EzScr+dc/FUrSkX4PckGBEiEWFBUZw+raOru08RWt4zg/9RAtKKGm6AwV0pKwauidUhSUyllSj8CTtaYO5/JAExKgSHHrKO9pp/kzR03u7Ry+otW9r6/MFlqdBfPXmh06dTlDy8gdxKLfFsxpKCvp1KQ+IOrg2PVTmVnbU9abH/Ln1KKyqQSQ2hLbdO/HwA/ciPtKPS17wAhzVUIljli7CnQ+vRX1FCY498XhUFADDbXsx0teBnoFebNi9Bxs2bkHL3r3Y07IfG3fuxe6ObtRVV5O8C9Dd2Y0dmx7B+ocewPoH7rZTtwtLSlFRVWUSn0XdFONkeeGGyjrsV2aXVjpQ3lFX3ppkrHzWfSmVD53ovjqzZatWkwseQse+vXY2ZSI6QkLVMXA5KC+vwP79LXb6eUX9HBSzHHU+YzQSx31//T162CkUsmNbuGgBybQK85YswolHzUWqsAaLVh1jn2rN4whgwZw6i7fLb9gZqoqDwneE7bqzxxuf//znXX6koaysDPPmzcOcOXPQ3NysfGIFYiIzOX46wCo3/6wJqXAD+zBkp2x2EqPHzOn1d6R7szWLoHH4wrRf2qVL2pM+h4JQHMNIvz5c+LgoCj4aIkSZraOhsmOmyCaTE/U0+07IJA5KWvZdFl67ualgNZM+qxKb1MiKOjnkZF3Jpb3qjCcmEZpJJHqjwt7BpZJepGPEOKyllJLDhp6jczJV8Zl8OwVHhgAy631erXJq8WVORRHmk1DKihgBI2wnsdpiiiJFs5ExnykrK0Spwpa1vKRydVpDSaCmsswOUXCvMIo8XNzlQhDXBtkX5Ke7EmGHUcjnVy6ei3POPA4rVy7G/pZmXPOz72H7hgexbPkqvPjlr0Y3h8r33XgdWrZvxWmr1+DUM0/HMWtWkBH7MdTVjgilrER0EE1lOTjj+IU4bvVC1FcWUkLswbpNm/D9q67CIxs3YIzxk9xXWpSHCRL6lofvxvc//xl86VOfwubNW+xwW1swMykx6OzUwcnO4q2yUgcT2qbDMvJHlCkPlP2u6bsur6KyHO/+4PtQVFGM8pIi+p2CvvddQvNEXj6Kq5rQ3DuMvTppJzGM6PAw07sJlU2rMFa7GDdf/3fccM2fsKihAivmVCGaHMVxJx3DvFmI5csW4i/X3mh18UgGq4urAOkN+0iEys5XYou4t6AS4ZndASCn04nRwVWKKV3I4IyYbhvOMctD15wCFSDNo+mXmUOZDSyUtODUgKwx8F+6betgQ7EJeRFgIA0KCnkqvYw5741PyA19IVFqo7WoIpf+qOGo83bnA6pHlzSnTcKaowvIUDpJyW8H0R45N4wOzlaUXlSEPCp5qLJS4/TEKKIViSl2JXyurKQQ1eVFJAsSY2WpLcZoFTWPYco/O8hWOv0tIflWlxWhjGGaX/TDJ82Im39lxUVGDPZ1QSPlKUKcEgicZOrK0ulhLGiqxYufcRpOP+EoW5X/1XV3Y5RDwksufS3e/Z4P4DWX/isaK6uwaPlROPc5z8crX/cKfPgD78BZJ6xB347diA8OMUvHMdjdiZa2/ejsj6GqZgFecNFz8PbLLsXLLrkQxy9usEWt2zhy27lzMyooxdRQMqxgHoyP5SCZiGP35nX4r7e/Cx/4j/eis6vbynls1I0GrKNTGaqsGX8lzaRwlped5m3nXTqSnJSaed/cycy/pqZ6fPYb38LISBylldUY6h3BnPmLkaJEfP7qo9jR5XK43IZYbITh0I/KhZi/ZAmWLF+Kiy97Ne64+Q6mbZj1iZ0pO8faqjIsbKhiOspx6kXPfvSbLkcQVBeMR6ziKFcC85EMxc4Tm6/80i0hIWQkv0APw9lNNZCZMNP9ac2GF2pHzi50J3jYQvH5Ky3s6eRzU9D1TMr9iLbUkMNk6ObqbKWZjUTzf5oLEiHqpoJXI5mU+Jw3U+CztrmaRpvGE/SMPUcyEZGJANmwREw6skoHEkgXSfmhmc0hUlnd4rXm3WyekVKdIL90ZH8JPS7mM4XBtSRShVVOuxr6WVdahDpKjAuqS1FHktS8oG/QPh4i5Aq607BbIwalMR2K0yQZBsqZJ7PS4MvPE6Ogwxb+5ezj8OyzjkVXbBTtg1E8uGUfzm0swQVL63HWiiUY6+lFzkA/GiZSOKq0GEuosL8VPY9sRM+GTRhub0d/RxuGRqLY3NKBzTu7cO1f78GmHS245dZbMDHQjpOWLcMl556BZx67FLWU2Hq6ehj6hH2KoK2tB60t7WhvG0SsL0rbcbTv3YGPXHEFfvnLXyKRSlqcTXL0hEhXygrlp8rbH3rrF9G0yGWdkjobXlt9kE513Jqj8Nq3v5lD4whyS3KwY9dOLJm3EA/p8GlKjxO5RYzXKIYH21GQ6kNXaztaSNaa4ihlp7l3T4udydjeNYievkEMDEcxv7HStl6tZ9rjKXW6Ryby3vnOd35C83j33nuvHTip+cQjeU5RtlIiPW9OxyQhBm7CUEXP9Izswo0jHe5eZheZ/JtC6G5glOYbpoaDLqkyuHvCgeLibxp1TZod1JRtIl6kyAaiPYQiRbdHUP67FWaFo3BViZ0frgFZ+PyxBQs2DlulDEjO5qAkcUhK1OEDlNLslG2aRU7+bYp0SUwBW3rVADkEG0qynBUna7gMi0rfKPGSi679p0wtLAtfX/RzDThBiUllLGK17SbU51dRoiRxaoVZeZqOgaEIBgb1kSTXgUgadnqQL5YN/s9lieK8ZH4Dnnn6GjTUVNr1UGIMcUre8YFe9Nx1DeLdrST0fInpQCyC1Mgwh8YxjFGi0+p+MpmwDdFjehexrBojKEBXJIH6uYtRM3cRHrr/Dpx82unYtmUL6orHUV9bz3wtJGnE7bvQo4kYotEI+nqHkBxKWJk3zq9BcUUJw8zFvo4+bHuIUuW2nVh13PGoqnbzjSonyx/lq/KIcQ+TnvLaE6HXVd4y02j6McetwYaNm9Hf043qilK0tjUjxrSMTyRRWV1Jf9nJsSDaO7spTXYgyjyJdO5HUXEV9u3cxjLOwf7mfehpa0Pn3jbkFJdh5ZIm1NaUozzYPiUkn6w5xS98YapOhqBPIcydO9fmFFtaWpQXyiRVRlY01Y5/AExKOGnw1p5Qw9C1Kd3zN9MdZczS2WB6hCyMwOxwmP7SW/k8SYi6NvJzxOgWW4KwGajCtcpvuojPkZ8aiZFWoNRg5CBHDUsSnqQzGwYHJ7FQMizkMLhYx1VJUaLTfjcRpD1LGOmwk7MDZxkXi5ygwAlJNCJGlZWtlNLe4qKbtJMrOVXcdKpzLYe/kjIaKgrQUErypSPbbK4hI1URpRM9P1NWapFF9yx405VWRxaynOxIA4hYTly1iIR4tEmhipSSUFlcgNb2Lgzt24c2SnLNbZQGd2/ARCLK4esE4iSNFAlRixTjuQWYyCvBBMmgumkuFixehGoORy8482w887RT8K/PvABvf+O78bs/3IhkWS3ue2gtYiSXxbVlaKwuZxlSEhuJoaggF2OpAdTMKceqlXNQXUXyJ6nk5I6igmlIjRXgkXvuxUff9S5sXO9Op7FVaEZYydK+TJGcSYbsNJwKFrSC+VVTdMN/12kyTyrKSvHxj30Qx65cRqIrpZ8MrzjX0hiPpRAZ6rWzHAuQwMo5Daivm4sWkuD4WJKBluO+m2/A/Tdei00PkLQ3rkXLzh3oG0lYOQ1GU6ybyuknEb4OhuA6xSl7q///KESYDjW2dHJMT2laO5h2bW0lMAtmTn+AyGBl4UwpL3lMD13PKYz0xvhYoVAkTfjwfTg6+MsqO3UnLbq5QmsMtNFwSo1ikiRJiLZtRZKfEaOkQy2kUCqk0oKImW2+kD28SSYiGgUcSKrU/XBOw3lf10SCKZKl7rkP7VOalXubz5zKMYut4k6C0reeq4vzUVlaSHIsQH0pCVjESyISMWpFVOlzlDwd6iCiMb1fTVheUCmdNBs5ujsWoqB0XHDqapyyZomRo6Bc017BXR39aN+0Ab27tyFK0ntkTxt2kAiGWndymFmC0oYmkmEuIvE42OxJijmobGxAeUMNSUYSyXy079mKyEAHSsaGsag6B697+fNxzz23YP9QCi37d1B0iuKkpQuxcvEC+1ZMY10FLjzzFCydX0eCLrH8G41SYmO+lbCjSI3HLVM7drbg0+/7T/z95lssb908sYu90mSSI9Nr5WzXfIyJDysvMfp8mb94IV58+WvsjZax8XwMxBg29Xgsib7+ITS3trL8C7Gvuxt7W3ajrmkR60IByivKcdSxp2HJ8RdSiM5FMrcEzbtbcf+96xinHMTZk2v3wVMNpTMMq/OytBXHoMJ6R+mOn2r47JMuyWgmaTAT/DMeelZ2Ui6VzjP3Ox3KhulZocoS5JH9TkcmP54oZJJ4PWSveLvG71xpb58aClnClTeVDlnwjYFtgWSoRuGGMDYXqCErpQnN27nhMaUL6iILEalrPNItCPPTiE2tkQ3TlBZtFCbtpLSfULokSUlwWliI6bVCSX10Z5uPLQWMj/zinwRQSarlJGbtZ6woybNvjuTq1BwONTVsVmPOhDjDiMR1XtZ0+DDCUNqeecYxWL6g0dKmZOj9an0Yq2OEcaWU1LLhARLADoxVzTH3v7jhLvzoj1chsf0+TPR3MC75SA32o2PPJpTNqUf1/EaU11WhYl49lh61GGc94/kor6pH7ngK5ZS0ltWV4OIzz0EBCXBPRzdG+lpRmZPE2ccehaMWNaGmvAxlZUUc3tWillKiTrcG84zRQs9wD1KMZ3+0H4widrX04Isf+Sh+99s/2PSJJHYDk6rsMYmRmWnKyjBd6b46Sj4i0uT1GeedaZ1kCSXmZDyGVGoCg7GYjSKGI0PYua+ddagQ89khqAUsOPl8JHq72WGWUhVaPKrmzEdX617ce90f0N43ZHtmIwmdo/Pk4UCcpnuqt6r3FifvOPyQJ8mnGoqFn5JV8foYzlbC0vOWksBwMOnxoAjCdQ1q5kh4YjAV5OX0PM38rFwcME6hm75CmU/24HT/Jxu9WTvpze1HFFE55RqNtt8I+p0ypcNLmz7cyXTpj8bJ9FFzc5Xyf+qeV/pCnOKmkGNkHEkMmqdLJGVmeQfu5I+Uf07ELRIqptSo01mqyvVqYAGqdKAESVvxyhTvbjZC9zaIS3bgrYUv+vWQ32efeBQWax8doShIOowmx0gWQEVRru3f27tnH3oGx1BQ2WgbzM8+cSU6ewbxgz9fjX3r70CsbSe6d21GV9s+FEyMklCAwrJi5GuqoaIUi5YuwvGnn4WlK49HRXk5Fs5fiHNOOB4NNQ1IFRSjNzqCgcEuNFSV49hF8zCnpgKVfL6yqJDSZjGqSZILFtQjnyxYllPG/IqhkH8lZbmoYP7FBkbwnc/8L67+419cmTMhvqNRG2e7N6XmLhU2TyrZWS7koLa2Gle8/wMYHoywvCghDvSir6uXnZlWw/Up1HGMaJtRcthIBRxWz5m/CGR5y9+5K45hp9CIga5mlBcXYvfudnRR5NRnDVQmLpwnHlanMsATosubgBRNKghu+JtHGlwFdvqhQM/YUFq62WSG3GXOsikcdq4czGOPTO58xLyaBCuUN9Fe5aZrjUj8tf7cfQ6j2FvbkJZSmydHL0kYWch9SNlw1ytJe7QLPKOinf6CcGze0sjVN76p/PZVydUp+eHIrYKNY2zcDUlTGj5TctBQWiolO8XX/NQjLiw/P6q5MR1cUFKYh0pKjE1V7sgwwblwkFkn/PQODDN6mmOVn64hGknSxeRKO+N04urFWL6wkdfOF/1qbnBz+yCuf2gXHty4C3+95s84/7I34h0f+xTZZ4RsR2KurcIFp5+MPEpGV99+N2659Vrct2UDunu6EOtuQ0Tfim5uQ3Jw2Ia88eEoxqKUbhlmbVU1qisrsGTBIjzzzNNRXzsPERTZ6mzueBJza2vQUFGBisISk+AkEev9YqW9hJKyTkbnoBp1NdW2sTsnbwI9qT4kJ5L45v/+L+65+/6AGF2KguKwcvEq/XrSTn92nYOLLjwXq449BhWVVaiuriPfFaK3r5sCi5sz3t/Wio52prWvHTnxYZTW1GI8NoSmBfMR6e/Brgdv55CbpEqpfe+WTXjk7vuwbss+Srj6fvaRg0lSVMUWPBn666caioVv+IJid6CYSXqcrQSZ7tPBUjxVUQLzpOKPN4eR5uGj8nSm8b+swyoD1GglPcsLNXB57bbhsJGTVOwTo2wIXtmWHCojH7Km5u9EOnaPz2j+yTb/mttAD8yeGI3sGI5LpgvYE6lFwEPZQaWhmuqTZY8ekuKPXEo1VZVwaMXqpws6UHOVHGon7kiC4JUas5Et3Sh8EZjqgxZINATX3sWa8iL72pyuLRzCRcnFbX9HLyWYUUurDdnNf5duyxe5498yDpfXrFgg33kVeET0cMg8OJTAGIeHeWVVHD7HsH79Dtz/u5/jzOOOxrxFx6Kgoh71dXNwxjEn4rijT0SsqBb5tQ0YGeWwncQ4sn8XhvftwuDuPRgkOY7FopigP3lj7nQbfVK7mOS6sGkOyfUMLJyzEJXV9Yy/JON8Smq1lBRLbeuTOoQJHSzBGlBGKXmchZJAHN0knp6ebnSP9fJOEToG+uwbLG+//A2UzJqtDF1ap6BUigBcOT1ayYHcaChdxPi98KUvQTmH7tF4xIbRReWVGOjpI9GN26Eb+oa0cq91zw7kDLXyoRJEKc3mMo0xSpWRkSHsb23BI7dci+t+9EX86UffxMbt++j7U4tw21S6jRRdT+JuTGbIEQjFaqaYhcnwQMTo7ym1RiRUqiwHeGQS4WyRcUp5U4BwzfNIt5t2nemBTHAN2DoKPiJdcTeyELlpozYroMjPq2RKBz8EEpiIUYrlbcTIZ/y1kZGeEWlqbo/2Rk6qGwovgKWUFhYPhs1/F30qTydWqXw9CpTLo4DEqWtOcnFtOQ15driD7PSkHYvFMJUeAzWtLltAsgrKSv6VkgirSBQakrkjw+wJ3pTDHPQPRdBHJb9Uv63TYKY5/53ErDQUFRTgpGOWmvfqbATpCnIupdBVC6rxvR/8FgPDQySzFLqa9+Dvd96HX/3qSiwiua9YdgxKa+eQCJtQUd2EOfMWoL6qBnnFRSTULgz3diNBqTIy2IvxyBBGBwYwnohbnDSPpxV7TU1I+qsuKURTTY19kH9iLIVUMmYHdmhRSwdesDBtFViZbO9c15agsanehs8j/AOqqCR9RSmFDSNFIvqv936Uw9uYhRcmAMG/5pgJIkMrS0LO9F1p7TwY7B9GJJ5A1879NietYfC+PbswNNCJPbt2oL2rAy1t3TbvOW9uLRoWr8TKU85Bcflc9LY1IzGiT6pWo72lFb/+9heDEI4cWJptHoDwGZaecU8VXOV3SNeF2UuFDnLfl0rhnoF+7GUl6UomTe2Px3Hf4AD2xtwHwQ8Eq0NehTDtMu1eZtARs9mkPbtWnh9Y6VduHSlRSecP66ST+kRwIkKSSIIE6Q59EEk63d5sIRm4N1yc0jOSHkWG+nCU7FTJnRQlxYAsNCJIl7OywPmvGCluzo054Y9048NA98+aHtQvzS2umVtJXnR75mweK3gXV35KMwJTGhkfN08pedLr8nuCUla+ve+sYXnwqG0W3t/RN0Xw9MdIQcTI+7y0aCjsC89YQ6nVfb5AcOVh3mDdvm48uKsLX/jYWyjJ1eLyt74Vzzz6WJSTl1r2teG6W25Fd+d+GwZXVFajvKYe5SVVtiiVJIENRUaoBhEd6idBDSAZ7SexxTCeSpjKYWelDevqUDAx6t4UonSYn1dg5RhLJjAcjyCh/YEsuzwSo75Po2+nxBNjGB6Ic3hKwpukL0bMckGb5LUrshR33HYLfvj9nwZTKCozufNwF3pCJBhW6dCbQ0efdIbtNFBHNcxOooTEHxscRCU7hKqqBaD8S3Jn/SmqRHHeKCpJ8mtOPR5LVy/Fi9/9Pjz3jR/CqnNfipP/9U1YcuxZaNNG9h17gxCODNjmbb2Q7Q+EONI2b/vyswbgjJN2guwykeM0t7qgamfvvD8WxymVVRhmbxtjeFFWtCTDXlNegX6G3UqCbNKraBkwSnL5w++uwj133olHHnoQ69Y+ggH2+o2NTbZP789/uhp33n6b3Xv44YfwCJXOupu/gMMyhj9It7fcfCPuvedurF+31jblNjU12ZYXRTEyMoIrr7ySlasKNZQWFHepn/30p7j77rvx4AMP0M+HWT5dttFUK3tCZ2cHbv7b3/DA/fdh3bpHWFmHUV1dwzB1pJZIURLjGO687e/Yt28vJZlFk8PtoaFh3HUX4/zIg9jJXj7JNNbU1pOctJqbC9uMzUZgxCXSMXGMiv+Wt8x8R4iOxGwlW/YBzI251w3ekb9kP13KvV7N0ypyjEQsch+n6KFN2kX0SOGpAftOQ5TnzLIftzk2dehllF7KSLDaAC6S7BscQVv3gJ0DKelXBG+vv9Ezr+Sv4r1sQROWL5pjvnr4e4rf72683/YdDk0UoqGUclhZCeoXzcOyykaUTRRgN6XGnftb7N3quY1zMMr4xEWGI4PoGexCbXFJcObjBAqVfEsBFfNZp/uMs1MmO9qQeILxVeAiv2QihlQ8iaQd7TZGAkxgJD6CwZE4BiIxNLcNoqtrBLFYCj1jPaBLC4NyG5XkXJFiCSmR5ca82rF1O8686ALWmwbXeQQFIE2GcPvKCN2kamS9u/5Pf7H5QR0QMTg8gvKqCrtXVlFq334ejsZRX5yHEQqsC1etRpL1uramAiVlpSirrcHFzzoTD97zEEoqKihBx7F69QosmNfIuvbUHwgh7rPQ5dB6UapMDz2VCMrClJAeu9lKixE2ik0jEZykE0aYxj3RqA0ZdXLMbpoTNC8nGZewQQ6yUmeCGpZI6fQzz8KznvMcnHf+BdiyeRN+8L3/Y0MbJ9ndhblz5+HiZ/8L71M96zlYseIoe3bfnr34/Gc/w/zNxbOe/Rycf8GFJLB1uPmmmyzf1VTuue8+3MfO6Utf+pK97K8qrgZ8yy234KRTT8VznvtcXHjRM9gYOvHRD3/IThdZv34dvvLFL1jBPuPiZ+Psc8/H3t278DCJWUKciE+k0NHRjttu+Rtuuu5P6O/vI1FOIJZI4Rc//wH6+vtx1OrjUN8wF2tJjnYwhMVJ1KBYCGpITvdwJndfZtewaNJF4MyM/jqwE0SlzmoCtSUFOLaew8CSXBST2LQtRLKTvDYpkWUjqcmG/WROzY/pnEe3JYhEbO5BEkyZdKiPJUkatuGxSYY+DYqL9uip4WlzcjGOW7kouDMFHQy7py+Bax7ajbnz5iCWX4gLVzVimB1IgY4gKx7DRLIfp1JifPmzXkriKcLfbr2NUs8OlOUz/uxIxkjO0WjS3gDRuYgiQR0bNpaMI6VhOIfFGKX0FxsmjyV0VIzpo5pvZP0bpXTo5g6ZRsa1d7gPI7GkpbGzN4K+4RhJMo5+/jm47sIhD8UoY7zGKblptyTLv60X3/36t62TkKQ8WaxTWTMzQuW2atUyqydD7QlKwDGUVpbTT0q8lPD7+7rQw7qk+dHeoT7E+/Zhw43Xo3VPC+8NWHrmNVZhX+cQBpp3omv/LjQ0zUVRGUn1CMK0T5x6cjzSkN5v+DLSMHK22M+h8dnV1ZPPNrDg1rCnOoFS45Li4snhwuKSUtzP4cBMUIVfsHAhFi9ZiqNWrsTb3vH/sJskFCXhCg1NjVi8eImpRVS1dXXWOH/6kx/gJZe+HM+95PlsaPOwdOkyvP0d78Bzn/c8y3dJBLeR/N7/gQ+YRLpr9+7J+qr7egVzqcI86ihc9srLEWV6+vp6ScjfxRvfzCHds56Nuezplixdiste/Tqcfc55llG26srw77v7dpx30XNw0unnUMJ9yEgxEomjiz3j0cefgkXLVuLYk07Hiy97HXS0v4VtP4FU4S8JtlHLRyO2wOwIMaz06y5ktsbtLkNwxMhKhyIaVlYV4PiaQtQU5Nh70ApPpCyS1ipwTBKviI43NBdnPtKs1fHunj7sbW7HCKUUo3Kr1+a1uRHsDRZGVM+JUCUlahN6OjTc1mLVKUctQCKvGC89axWu/PuDuPWO+7H54UfQH41hyaXPR2HJKJoaCvGqZz4LNTl5+PEf/4ze7mZUFeeinKMNnV0ZTUQp5UXJd1FKfCS8VNyGzSlKWiJIdT3jY3FKjZII9XogO2tKicnEKJVOwRnFCMupbyiGfkrA2zlk3986hOaBdpBaUYXqINZTKOVfbXkxOAhHBIP2V8Y43X/HLVi3cZvljXV4yh97IsigTAgKTJqU9qs+83nPQPWCaiT6h9Gxpw0R5nlne7t1AiVsT6xwlGDj6O3twuDQEPLjgxgZ6LeDPvY3d9hH+4+78Fk4+qxnoKB+Hnqat1kYRwKUN+l8M9kAjhRkio23m42U6J2wb0cZh4EzwVcLNca2QEo7EHyF6unuRhEbgI7IEm679Rb86le/wK9/cSV++5tf2WplL8lLFfy4448PKhd/9c+wTNGjezg8rqioxBIS6Tvf9S78/re/ZQ+s+SGHcFITlBD6envR3taOxiYS4bKlJk1o2OHfWNC8j6A49jP8tv37cOyJp+HcC/8FD99/FwYHB1BUUobnv/hy/PHXP8HPfvgNbNqwlgJL0kkSiiX9seoQiqsHr6zyKBQKR0aUk3N6BlGToIcDjff1jOYERXm275HibC6Jjj2HVchCDp/nFoyjMTeBiok4iihdaPhnUytsbJoOyNXcmhYcoiOYGOrHAIl9mMM4JtrF2cJVGRk98i+A3VA+wchw2QINJV0a/DOSrHvjmgvLt/dzLz5uIba3DmDr1hZUVi3GLb+5FX/87o9w599uQu5pR6P+GWchn+Pqi085C6ubluHKP/wZg5SYCnLGbLPzYDzCOGvDc8xOqY5EhjGWipIYtYBCUuTQeZzSn47oSlKSjMZG0N/D9ESGsL9zP1p7utA50MshaQqtvcOUEt1Quhw1jDcJl7IgU+MiH0B5rE9FDPHPoQLDiREMdAzhU//9aXbAKUun8mcqczIgyBSfNx7nP+MiDHX1oHRuBRqYh+pAqmtqMDgQQX9nN6XYEfT0kgRLKpHq34PW3ZsQ6ejErrUboVNz6soKcPQxK9kRL8bqk05ALiXxIwmsx1NJtkwiwnZHIsKxO5i0KLfG/HTnnwuTqd1Lw4G8jEai+MXPforvf/c7+ObXvoqvfumLeNG/voTE6CrmwgULsXr1aqw6+mgONVa5d4bZQ0palASYCTrP8M9/+hNOPPFEtDQ3szKVYs+ePdi6Zau7z0r3y1/8At/5znfw9a99DZ/+1H/jda9/A4cxDSTbhA0njaQ49NdK5lYO6X/+o+/bs8Kdt96IuoYm+9D5AHvs2vpGbFz3oA0rl6xcg9e+/X0458LnopXE+ZPvfdUOIlBmOSIM5v9CeSaYlDipO3N6XqY94tzzx3Rmci4bpj6BoPlB2/rDdEopvZI2CvWu7VgCTCUW5Y9iEQlg/kQElYlBFMQGkauFCvml4XAw7+kjOlWG6aWp8IAFc+sosUxJiYq7nhSxl+XrxO9cdA0n8Nf1rSStXJy7pA5zaknIFSyrX/0e7/23f8etf70eW9Y/giiH/3WnrsbypgoUxPNw8933YJjDYn2US4FpFV8HQ0QiI4hFIohTxaIcHpMcKS6y84uTECkdUlLc09qCXe0t2LyvGQ9v24NbH9qCDTvbKSUOo29ghMQzwqE5y4SSnwbXHMwz1qpXUx3+CIbROzLEOyUkz1pKkwWoKapChOR71y3XomV/m40gguY+6xGXd6ZzEZuWLybhkZKZjrHkODsCDpdHBjDETqq/ux2VRRMYpjTb2d2DAUqQ/T1MQ9d+i61mhgvY4ajjScZSLLvMc/hPBXzHbYaw7snxSIaLKePqDQdBIUWC4RApaVFF84o7qFpDkqGGZ4so+c3krXq6U04/ncPTc7F8+XLMmz8fp552enCXFWbFCpxyyqk4meokKp0kU1dba0Pmv91wPclxzLdbk/gibCBr1661Bab7H7gfP7/y5/jlL3+BOXPn4m9/+6v1wpIAT6Vf5557LtasWWPE9+znPAeLOIwXgdx9152TZSa/U6mkSahClA1x764dbIgjuO2ma3HHzdfa81s2PIweSiR9Pd0oJKHPX7wcZ13wHDN3d3XwSZGhSNEpZUh6nuja2z2qc2F0Mrm3lqjJzkDZ5mnmuToGrWhq6CpiVD5NNloq+a9FCh0CIXubQWOZahHIDq6wVWsXou6ZlOg98KXrNdrPb6ylv3Q/6SYAL+XLfdta8IPf3QK0dSDZ1oMlS1YiP5LAhS94Ht7wyY9j4fxGfPa/P4e3vukt2MPRwhCJKV6cw3Krwo7Ne/Hgxs30ZcxWk5XOGIfLKpM4yTIRZ6ej7Tbs0DSETpL4Ryj17m3bj7U7duK+TXuwc18nhhIpm0PUwsWurn5KX0nESJ6DsX6SrzrCEg6PKU2TGt1SnYNmE0t4rRFDRXEpY5G0uqatS/HYKH7926utk1anqOSn5YDDlHePQnVVBc48+0yk6NcopepRErs6k5o580mSUbve2dyKdkqHA8PDGO7vQReHyKMjg9jz8F3Ysb0ZhcyW6qoyW2wpqdHrgUcOph0ddiSuPs8Ef3cmV+n2paycdw0MYBn9FgZJkJpX0lxjfUEh6kmEut4di2JVaRmKNMZKgxHQnXfgkue/yOYMV6xcibWPPMxhbBtWrT4aN990o5GYVn+1yivV3z/AIW4Tjj56DX5/1W8pxW22eck9u3bhFyTAHg6Df/+7q/D/rrgCL33ppTj3/PNxHtVFF16I3/z617ZQc/ddd+FlL385zSuwdNkyjJDgVF4nnHAijjnuWPz8Jz9Gc/M+q5hbtmzG32+6CU0cVq9avQZ/u/4azJm/EC+69FU45oSTsea4k7GaqqN9P7ZufAQP3Xsbh+I9rMwj2LzhIfR0tuO8Z/yLbbWQpKMTWuzkZuaNKxInGbqmFDb7PKfZXXrNgQ+rTE3Zn9yJECcsz6TGOFQ2UmRL1fDOeeifYx2hlSnaihJ0dFVugQ6rKDBJUe78wpJtxRl1/thWFBEA/7TworStWjrH8kthODlX0ZmgNDWOh/Z2c6ieCx33tfmW6zHU1oUU86WS0ljVeCGaiotxwcXPQfngEOZW1uBv19yAa276K55z+WtJZH3saAao+imdV6KpTF8SBGLal0j/NdVgW24ojUpE04nncY4+drTsxr0bttmX8fZ3DaObEleCxFfHjm9gYAgj7YMoqymnUJiL8tJym2cdzY+iJq+KHo6jorACVep85y9FeVkZJdIoigtIlpQox+M5qOIQX9uuCkbz6H8HLrv85Ta3Z52NImj/Lh8MIWM6lM/72rtx219uRV7BBPIKi21hKcUwVS6qK1UVVaw7HCrX15H8qlmuKURG+pBfVocykmdFeal9h0dhN9aU2SEfR8rqc8727dsnJK185StfwWmnnYYNGzbYquhOHSaZwYNu9oqPN9QINLTUYkOUPU1dXb01gtnCJANnnESmIUE3/d/FtJ5aXY2eBKUpVkg1FhXB3OIS7ORQQCuPR5ez8mV4Xg12F/NlydIlk9th1DPuJfkdddRKW3DRdRilzPDly1dYQWvSvLV1v32To4TkLJLTt3d37tyBVRxyq7GYBEQo+a0tLTZH1k8ylwRaQilO0VI+bd64CauPOYbEVWCHKuzds5skvI9D7zIsWLQExWUV1sFs37YVTayE+YVFRhRu3+IYh2GDJOxe1HJY3UUJpa+vB5WVVVjIZ/U+ro7A1+nXep3OvoLHeBiJBHETMmSR3XMS2tTwzMBnlRbJe/a8CJEOJglxUg/s7WHXTN01+YAdp72Bo+fVeCiFixC1pUn+i/S09Uj5kUyyPimt2pYjv/mcpFINZfUq3+rl8yz+RuuW6TrkIIV9vSNYt7MNf7/2Zgy2b8eyhQ0Yam1DMYfqFTn6sOoYKqvqUNe0GIVlVRilNNfF4e7W3duwZe9OdA22YcVxJ6J0fBBza2rx5je8BfPWnIDhtk70t+zA2luvtW+wVLB88lgmcda57W17cNuD27BjZw8mSGI6fOIlzz6PhMgwGM7uh+/E+pZuNNY3YoLpnrdshU0VtDfvsbdc6Nw2UVc3zsHd1/4ZOmFbUwqRQZZxc78yEOM5eeibiDP3tcEb+Pu9D+OUE9bYGzJajefggZTvS5YIGTPhvgfW4qXPezFGB8ZQUldo9UNtWCcWLVg0x8qprroSK1j3tadSby/pG9IN8xfhxEtezTyXu7morS5DaqgPR82pZFpI4ixLSf9PBOrrxSuPTpi2xZ188skUMk4w7jNSlGTzta99Daeeeio2bdpkN3bs2PEUkmJdxrBnwmxJURhgI9lOqUjHB9QHG3YjDLuPhbm0pARz9NZAALXLsDfWTjNg0j6I8kwxV5JELPYnQcEs7ZZBcQ6Tor/lpwh8mqSZkT9OJ1FImYSkL/SRHEx3JGOfJfWKZCFdBCmiUCeg5xWEem2dxGzv1RYXoIyEq/ds7bBXOvDxORh8nKQbrdmDNIXLVPHVEJnx8IRo3xbhUy42zq1+Necoic+9fcP7mlOTVMHy05ytpEQlQ6vseqVPp+IkSVb2No/811CRz3nCPevklaipZMdHGPm6f+zsGkT3YMQI+KPv/QBOOPZE9kADiPZ3oXA0gtKJUVQUVdgUQ2FhuQ3b1fGMUgpiKJTyIra1q29oAOOpKF72L8/BmjOehYaF8xChtBdrb8Xu9fdiz44tqKyoQ1F5NTZ39IK8goq6RtTOnUuybbK4H5WXwoDCXbwCD9z+V1xw6RvsNCHt6/NTDcPs4LUvNDISwRA7uXsorRZSKosPj6B93w4M9XQjNpxAzyCH2KxvcXUqNv84jC9/84d40xte405AUodHpfKZlNFCRZUJ+1racebSk5FfKirNYVoKLQ9zJ1h3SvNt0bCGkmteDuMcidmqdB4FjwVzF6Dx6DNx9Bmn0k0ZSbGU+ZqgxK0T3J8aUmxsbMQpp5wySYpso1OV1euqOE8nTEvmQaJezYZ0GivOyvIyO4OvhEPDOSyMs9h7z+EQ2vnm88O0Q0bGKIT9Okx/PSYf9waVoWnUfa+vRRcpVnZbjZbSfTo03TeCQElakNJHnbTtQqfO6CBSDYX4P2OUjVMmlaRDd+HNnnTsJ7gn1hER2tyhJ0Q2WFfvfFqCeAbKQRFh+ixteSYh+mGznvSvbNpUjMIQCZAIrbOQzmvdL+WwUfFwdu6ZnuEY1q7fil3bduPKn/4ai+c34qijj2Ejz7d5zNGUVuX1xeo4inOSKMkhIY0NMtBBduaDlIJIhGMxJKUnYjbXtq+5k5KdI2sRfU5+IYlvMc563btx9tveg/Pf/k5c8elP4WNf+Cze88F347JXvhTHn3QiGiaSGGUPqC8Udtx9HTvwcTQ11mJ+Yx3mzm1EY1MjamqqUa2v/pGgK6uq0M4RSHVtNZbpbRveG+rrRXQoYh/1yskbtc87kJ6YS8OWk/fcew/jxHhZ+oOisVwMEDJmQm1NJSrn1ZOAWX6k0liEfqv3Zrwn8oswNBxFW2sL82aCkmQTJvJK2TH0Y3ioFzsfuR2tHC2pWGMJkrQCfwoxVb8UFe2ICEUobA47PJKhGEu68lKUYu3NgpeywpCVtuc0kAQbqaopbdhzdnc6wnaZ7gsiocNBun+K64G8CqfFGyd1lpeUiE17+ESEblhERXsjRSmm2xFkQJjBMzJrxVVkqK/eGSmaW96zWKXHVvUlMFhz8hds/naDSjqVW0xxuiOsgARJSpOESGXPSgXxtXxVI+OfGq6Vs9nzhsiQukLSPRGi/x6NSHBS0V83x+glZ0nHQPtQFEMc1umDXhFKlw9v2Y2engGsv+cWDHV34tVvvgJNtQ2YP28RSpgf2jqkqZHh4QF0DfWgracDfZTQRpKUEDny0FamRctOwjNe+Ea84T2fxAe++H849WWvszeaoiNRRCnhReMJEnkRlq5ZgZq6Gg4pNV1CmuWzAyMxdPYOUcJrRX0gaUXien0vBzUktry8AonytnDD7DFJWVvB8goKUUgJbPGKFfQnhjuv+yOlxgEU815pVTnDyEF1bhFGmW96H9pj3+6dtnnfd1zKRxWXH6kYzNIZ0yGJrn7efOiriloU0/ytDp6NUaWYT3qzSNMxOiSioKwaAyTNwuoGzFt5BmoqqijxRk2qj0RFpjME8iQhnffYGT+6sgthh086ZohTJoRjGSZDwZOI9DChCLqUe9+YM4aYngV0NM2deeKMhnT3GeAfmeZPBsx036dj8r6/tsJ00pUdDMsGpKGwEZ8IjhKxhiX2oSINh6nsXqBEiJr30QGpGjLbF9/MH/otRb+trii8IMwwzIp1RnkquUhZITujNNrbO9JGfk5C1KEGIkQ9Q0s9rQD0M+W/3bPHzE87OIJuNK/mb9t2F5KdPtiud7w1ZE7pjEbZ6RU/6ppHlVl22p84wIZYWVyIiuJ8bN7fg0E22J37OhAbH7XDUC9/3RvQ17If8d4ONJYW4ejFi1Gvd5orqzFBIkuNJlG3/Dhc+p+fwKX/9p844ZQz8eJ/ezde97534YLnPxNL1qzEREmpbaFJsvH3trch1s9heDSGga4OktaIHagbE2GSKAc5vOztH0FXZz9KxxOYs2gxqjnUq64oR39kGKWUtCRZu83nVNRZejSzTHk9NDyMHZu3cChbjTUnnYby8lI0Ll7CYWucElqB5X8O0xZGa1snnxuxcjLp2mW1ubU52zDsxnSVx7AXLZxrcWCPhKLSEhSVlNjoYnxM9aeAnZF79bB3/y5K1RGSeAXKF63Etk33Y4JllIjF7FVMfZjsSMK0N1qEsPkpwyFGIZ0MhXQSTId/5EDOjEwD86OQ9qC15wCZ/JSd2YduHiyOB0I4Xt5vJ115siOhMVJa6VZD0mqnDk0Q0UkC1LBYBxGYvUmHeSgu1OdC3Rl9IkkbdtMPpU1+mjmUgKk0B4YpC9fhUNmRYybmOWlQ0qH/bovtT7T6pjAk0ZLsGI6RL+11S2TgjjHTMNTaH6+BJC9iqRSilERELNE4JTFKKXFKf7Gkex1Om5TV6OxwDJEjlVaeNScpklR6jlvYaCcIVc+dg+UrlqG0YQn2b9uBgeZdGGnbjdRQGwrGk2iqq0dD7RwSYxPqF6zEiRc/H3GydHy8AKtOOBc11XUYiSXs7Y6u3n50tfeQCPvtmLDkQB+G91MS3bkZ/Z0t6G1ptnjF4klEGGdJS8OUJkfjUSyYU4Piygrkat6ypBLVlTWYt+bkIJ+YJ0FeK4tETPpWTop5UFSSjyXLVmDPzm0YYBijkT40LmrEcGs/iss4nE1OSYll/BvuH0aKeSZvTdK28pmqV48ixjRYp1uYj7EU48T6woJFvw7g6BmlJM7hPzuOoaEY2lpa0ds7YO99L1x9DIrLS9B09JnY9NC9uPH3v0YxSXSQefBUIl0wZHtxwytBerqDpwa+aA6O2bucgn9GFU29pDVAXQe/ky4CbRqYPTNmkezlV+Dfo+CfO4Qslk/mn+I5Eyb9c8Q1OTSm0qEJTuJzSmRoxCjpUYsorNg6ZUYLKyVFwfeUdV8kGBCU5BLn+3RkipFkvkdHlRayNHFELc8RpHlA/22IzzD1KQTVR4WkWxpqa2FF33DRa346nTtKCUPfXNaK5nAkSRXH0IgUiYUSl/b06XssMd63hQmTEqlIfFJK5/yqEtTYx6hcGusqSxEbGcDxy+Zi2VwOW7t2IDrQjvhwByIDndDhDAU54yildFnNYW0hO5XBnjbsXfcQInu2IEXz8JYNttqr94HjjJOOCivk0FWr1VoMkUSlz8CWlZXYAo1bECIxktD0Gl+S8Y22bsVwdxuGensx3LYXsUgvShavwLylyxlXZZXKgwbGWYWhPBKZ1c1pQkVVPbZuWMu8zEdl4wLkV8xF7aKjUbmghvnGeh7a3B3h39DgEMNOWHn598NtGK0iCgpQ92aC8q2U9WVMK9pMj6Yh8jhMR3U+45iPUSq9E12ibUEs0u7ePqy97a9Aoh8nPPMFOP8ll7Fe5WPf3lbrkI8E+HTbOMQT4QEb3hGI2cRWKZM7TyyqACalUOSYrAiqFOopAzfpKh1mF9wzP3ylCleukNmuqVxE7NFHwW4rXjJYfKaU7MxaZm8XspdSQpVWV5KEkY0aJRv+pKWsHRFIOpREaNIhiUK65hK10EJ+MjeqHK6C6Mei7uANkxYOXmKXc4uTYDp/vE5laXQWNhweIxFKadsIA7a4M3m22ixSE7lp3m8kkTLJapjD3WGS4NBwDIMjMdP11Tu9yx2l1BU1adGtPpuUKGmTSvOOSpf5zZ/OoSh2dPRjw+5WLFswj/6PYXhoAAM9rdS7ERnpt03VI9FhDAx0YbC/Cz0kwPb2/ejY+gB6tq9DtLfdOiGtnA50dFn4WpEW6Wtrk6Yy9GGvEg5pKypKUV5ainxKf5qD1FyiCFyn4SSSMfvGdUV1I/MnjxJvErFBxmUvh8WFhcoSTFACHqYU2LFnJ/q72pkO1VlKzsyn0soqDPZ2o6G+1jqHnsE+bLr7LsvL4tI85rb7AH1uThmKckpRWZzPOKRMkldRqK9yddWXjNMlMWYiR9WjEg6Xc0iEOex0RofHkV+mOdsk810HX4zyXgGGKSkrfoWl5fQsgdt/+1MsnVeFanZMecVl2Lz+YdvZcCRAaVLdnEaKHunXRyoOFktrfFIiECq30ugm3+1oeumaeJduZqf8qqQakSqGZVSgzD/CE535IT/5jMyeyLx/7gw7Zy/37nH5q/k3p5w9lT0XimPIP+dHYKe40733U57a8/anfJGdBePCkjs+p+Gq7okYJA26IbMkGCqOb+xzl7ynbysrbw+Uv+b1JPyVwnVxcGD6Jj0JYsd/ZgmGxnLQOpqHPal8U9tjedgaycFOqm6OphJ0k2DZ6INWUZLVSIzEKEIkiUg6NKnQVJz2IsKADEfdWyC2JSnIM5Wv75x0ZmTHUIR2Y3hwV4fNswpHL2jA7n3t+NJHPobeGKVMht1PQuzq70RrdytaSUJaXOmi6uxsQ+9wFDXzl6KkvgmlVZQeSXbjEbfgonfWJfHqxB91Ldq0ok5Ic7aSipPMX8VZixKjIg+KkvUcVi5esdrekY92tnPo3mz3+yk1qo70d/WhjwTSunkDNqzfhBt++Q2mTVMLo3auYUdrG8bZmps5fNY0wo6168lBMezdS2l3MGKbq61EJ2JITGiRKRrUGSeVS7GamJ0VkywCyOjJMazUaRVVFjANzO+xUYwNkxQjlIDZQeXksUNjWvRGV4LlkptPnfWvr68f9954I9Y98AiOPeMMrD72REqsBxusP7GwNAcwoSFMgJ4pn+6wuUCmw+a1PCHQ3r57y0agFTyd1KxNycWsqPoQkj6h6ZW+96GhpmqGGpX8kQ/OF/rHwpUuP0rptpTPaLNzKQlGSvv8Js1mn2/bKwQRmmqfq3yO2DwBqs76OT932KjmAakYlynlFk3kTj4qfjY3F/gpnf8uHKKipBC1FSVoqCnH3PoqzGuqwYKmWiycW0u9BvMaajCnvhr1tVWoqSizMCZJlaCP/HV1RCZ3HcCsvUNHOs7stKmnHHS7j4T3wCCwfgToTOXYggNHxHTlJNhx1sGesVw0j+ajayzPTsaRlBhlw4tSshHxRUynJKW5QykSYZxElGDD1LzhJAlKp89SroOb4LN6bgw7OgfYEeTgV7/8Pb7+v1/GK1/yUqx95BGc+ryX4K5b7kI7G3gitxj9lEh7uvvQ0ztAMuxGZ/cgpcV+bN+6E8XlzC+Way5FHdWx4nHGg8N3dapCfmKEHY3/HjbjkeBQs6DQ5hBjkigZZ01j6FvSc7RLiCUqqTEeGbJzCvtJwHOPPR27N+1Cz51/Q/u2DSRKSpRlBYzToBovOjs6ce+tt2Dfjs0oKa2wzeQjA90kpBhSw3p9NR/51ZUoK9WZkSqLSuZ0HSgrsjMscIVEZXWHt73u3E6HbLxSHdN8b3SAknRSh08MILemBD18OCeeg/6OAUyk5JJticPskb5e26ZUVF6FdffdjzXHH4uLzj4Wlz77VOuonhy4GilY+wuQLgTmjrJgtCHb9o0pQWkOno6wBCvN1EUOqjxFrHxuXo2SEMnRDk0l8Xhliw+TKiDK/PyAZEQ69E5mKpGkNja7bSsiroDEJA1Qyd6bZW9uaJaf8sj209Ef1QXn94SRkZ6z+E2LY7oK7tGNJD0tnmjxwcfRk4FKsapMH6p332jWfFhZSRHKqfRxd5mlSvXWSpFTpaXFqKqucHloZDvVUMxOmeqMGRC4MbdO2Z95wAZEtWtoFJsHx22BQgNz3WPS7b6TYt1w3XTmR5KEEimp4MCPw0mSnYbSGgqb0jYQPqxtOJLIXVyD8Iipa/onZXYcanJIrbIroRongezd34Xaxcuw4rQL8def/wQbbr0e8044Cxu37sGd965D+xAJLL/MvtXS1TuCNkpsHb2DGOgfQgE9FpHrcFjJhFo0iMdIioyrPhtQlKfRxRilQwZurzDSrqaOpBezTlD1oqIoB9VjMUywHY5R2p1IxpFDd4loP6XRAeSXzMP+O/6MSKSXkuAE9j10K279w5VYyfja4cFMwxilgOKyGiQpfU4wTjqj8JhjTkD9skXKWnR3dWKURKtDZ0U/+fkxFFaV2ndXBJWB8oa5FZhl0vXMUB2zz8aWkfR5XZRXiXJ2EPlKL68j8QkkJ0ZRWMyyZP7om+GSC/Im4lh6/Im4/qpf47b7t+BrP/wDBnr7zM8nHlMpOhDPmfgSj7v5BsFXqqcUj4GYJ1d0mQwjCDaawyV695GggMDYaOWfJ4uMfjKs5P4ohtey0TwyjJGdOnJ+ekHozzYs049R+mnDZT7HtnVY0Iqt+cfabhInCUIHiRq5HEa63cKbIyxLp9mG6gQtpq5koqI7Z5y6M2lHqKHtHRlFR1QbfTUHpsYnCdz5L0KUdGWv6Cn+svekT0k8p7KahJBn+wv1+pjKw8qWyv05hOuuTP7K54N+NdwWoZZTOluxaA5OP/8sXPiMC3DpK16GZF4pUihER4fOARzG9m0teOC2jbjtzvsQyS1BJcmzsKIaExwKpiiVFhQVW0erRSLxvMqxMh+U5uIoIyEWFBRZXvLHtiDpnMrC6nrkk7jUqZWTTcoTEZIGh9Ekt5Tm34b7ER3qxmB/CwrnHY+x1q22oJGbV4h9zTuRUzCBqoZanHjOM20BqYOS4lBPDypqahm3Ciw89lQTcEqrylBRX4l6pnMCUdJhEcMsQGNlHe9TSqwqQX5xieWLYPnFn8l8CwxmzgDVsy52EEUsFJFiGcsnyo6jnB1YLDeJAnYCuWMamfEu80vzpCrXhqUno3X7RlRTYuxlvHXwycJ5jc7TIwCqQ9OGz8LhNKQjCdYwrCRFXiIdR2KHC83b2DCMDdEIkpVBahrofWzHIPa860Gsf+ZDWH/pHjx8WRdueVYfbvu3KAb2TLm3Bm1qSrqxE2GC+wfDRCqlRAZXhJ4XyYhMRIpeMe2HC8XJ8k1pDsVMhO70AJO3nKupS2+izv/exBg6434oy6dpJz9smM5fBkPpyq0wS+ngAuWR6qJI2uY86+uMKA2TEZDRXZhPQd0NxzkM3dXqdFsPO62ROLr6R7Bq+UKceewKjpZ6MUSJKhEdweC+Xdi35R5K1YVoWLKIUloSD96/DuvXrUO1DjiorqFkXYSS4uKAmAnNmXF4vJhDyDXzajCvgoRIO3sNkfHSiTgTRaXIoehUSYmvZCyJCipJVkaaOjAiNoJUtA8DXfvQqQ+X5o7xfgJl1XUUsXLswNqWjg4sP/3ZzJd8DA1H0NA4B7VN87DpnlvR37Yfnc17rfxGGV5PSxuFQ702V4QUw8wlKWrOdXyiCwvmNaGSJCooW5V3pszm4BglyTe37qcAzBKlNJhH/0clqZIU1XHlFtAnSofaIlVcVo6BgT4MDQ7i3r9dZR/yqm2qRUllDY49ftVkuT2V8HGQfkSevH2oWWRziIHysHSxcPy0wOHCJDkSBD0xXY1VPV4YsR392PGcuzF4JyWe4lqMllUjVVKJcUo4nWtLce3/jCPF4YTgF3iMYOUnCUC97mQ79n7PEOfoT3+KifZ2TEQiGF271pxpwlskZv7RX82pZeLEkd44bv7hBgvzQDBpmP7Ib6+bvdMMympTM3qlh/lP1UNp2YYkLCCVhejRN0Ap2Smf7bAKrRhLYmT87UNatNcsZxGHu8VlZfLFMFnU3uAjKdDo/fawSq9/ZkyTvhdC/+bWlGP5/CY8vHk3fvujH2F0qAtxDlnnLV+N2oK5JvkMDg9i6ZqT6cMQOjoTuPGW2+395mc+7/m0Y0Akp4m8PBJAkQJBpH8ABfFhjCWSHJ4nbFuKPi2gMqFohjGmrZDprxxP2mnj+tJirK8PqcEeJAY60L1/K3Z196Gyeh4KEr0cck5Qau3FYF8PO444qpafgRUnnc2y5miAbNbZ3YU5ixZhzoo1qJq7CAUkam2iHk0mTJLUpvDqklqUUapNjeawU9BrfuNYtuJYmz6xcmDHI798nzMNKsPAGMY4SbF72x7ExuLoiXcirywfZfVVNl1UT6LOLy9GMp6APrg1PNCPIkmljHNFVRWGuluwjXV3z0MPoG1/m33j+qlGmCOMFDMRh1WipwFsmOiMBpmdBKKEBorm+G/+hOinvmYq8t9fQXztFvz0L+vx5SvvxzV3bMfVN27CvRtb8ce/bzVy+f4fHsLgiL6gJvJSYyZR0CObsKddGF0/bMFYeR3iHDzEJsoRHStH4TFlKDk/H70NOWhjrzlZ7nxefhopmhKh8Zq3RnftQs97/gMjP/85hv90NcZ4Pd7fr7GKjsbRQYkoPOUUjA8NoefLX0beihWBl44UGVFrLJZmxZP6YLtbZYz2s4GSaSboTYTkOBofMxXpU6MdQ397hA3WMenkVIE8IHz+Kl/DsoQzuSGwMJX37jkhRqM2GWuhSVtT5Eju3PBeBkmKQZ7QrT6QzxZqQ2UjRtprpbiEz9fVue/raL14ev2cCm/KNN2NM6kcmc/JlA1Jy4uLsH5HC6pra+y4rQXHnYRnv/pNHIqWYeU5ZyKP7XiovxvNO3fZ04wdVQq7Wlpw/LHHsDhIfGMpSu8cAlMCK6DkNz6qE7VJBlQ2DVCoL6W48sghMY2xDMfiUcunOIfoiZEh3ovbV/7ad6/D1n2tKF1wEqXIPlRVVlqnIylr695dtvhz/DNfZJ2gOpDm5lbmxQTa9u21d7NjevuluppkPsTy7LbFofkN1chLsFth3leD+R980+W0U0+w/JEUSyE0kBalO4nxYOjpG2L6SOgsyUrMwXhkHHqbpW5RA3V9VIwSar5Kih1dPMl060DgMebnIPILy3DSBRdj5fHHYPP6bdi6/hHn6RECI0WdSuO3JvgM8Q3iyILiNr3AdOWJUSlwEoniL47QvJ0jHCyYg4kTVyLv+Rdh4vjlyKsuw2mr5+BjV63DccsacMMt2/DI1i58+jt3Y0dLPz79vXuhzcF6VnlBnnB6oMIY3sYKnlNBMqxA7YurMOfycgymCtFNMuyom8CZL9MRYi7eRrD8Iz1ZJMPmkauuQu2HP4TcxYsxunkLkg88iKHPfBoDX/gCev793zH8ve8heu89GLrmGlSefQ7iv/iFTcyTN/R4EDenW9o5bP2v5/weu+/txFffdD32PdKF6766Htd862Fc/+11uIHq2m88hM+9/C/45QfvxM8/eIfFUR6ahGgxo4cBJLEJ+nWmKYSvzazHGIcES0ULCtokrn2QbjuQjQbNnSMMKkmnNMjOTp/hjfiolF7jo5BFdtD2ofyiQiMbT9quLKZCnzJNwfzkjxq+XHd0U5pjGIUFuZbOm5if+pzEs17zNlTOX0pCG8f+PVvZFzFvx6nGetC45FSUVWhhIgdnnnk2/eMwUeSWGMTYYC8mRnpIiHTLIW5UUjxJQKnT5wZSlDb1jrKOb5vIJ1nw2XGtlvP5VGQQicE+9LbtxN7ObtQsPwsVo0OYU9/IofFCFJNIO3u60dnbh/Ne/lZ7J1qdoLYcTTBB/d09tiVHeaIV3kKGEx8eRlVDHerLKphfHOKTRPvZkQ7Y96AdTjrtVGvryhMRoZGhckqZlQFTtcCho70To/mFaKxifPLjKKnQ/CTLZZQESBLU/kzVI5tqyqPgxWG2iFzFtYySbpKjh1NJzItXrmLY1mqfcByM7H19ytV2gfLycntgqpId3IOnBIrSDNEKZ6ulwNJimlnksOfM2duK/MZG5G3ajdxIDPPnVlnhzWmoUILpxwRe9IzleOenr8NpS+rkiytYeqJgnX/0192ZRKqskj1mBUbyylF8QhkSNfmYf9kEas5ig146jpPPmB47y+MgXvTeeUzkMm6xv/4VsXvvNTfJtv3Iq6rB2P5WFLHjyq2qtgo0EY2i4KQTUfiCF9hclhhbPmhUbN5pHpTPFxTl4Y2fOw/fffOtWLqqEbULKhDvS+GSt56ItX/eh7XX78Mz33AcelqHceIzF6N7lztBxfmiXiAw8sfSL2Pw64vB1xP9ulS6+4JMY7zvJEV3YG0BpQmdTqRhoQhxShJ3T0jTPOIEy0Vyme9E1CkpTRpGT4UQAiPw6JJx8XNRdI1ecezk8DROiU3vHuto/7MvuhjHUXJZML8OFcUky7JSjEXiaFqocwvLUV61GHVN89moC0TxuOyVr2IjTyGfQ+BckZMIkJKhFlLGGIJO1h6PDZEwhzA+0ofR2DC0SV0LYnmUrnK1gMfnUtEIIgPd6G/bgR27NqFp6fFYvbgRc+tqUVPPIShJdGioB1E9X9qApsXL7b1vzScqXTrEtUUS5PYtGOhk3WZvM9DRbpJwiiOLXOZ3ojfKPB5jvMZs1V1YuPwYHLV8sRFikDkGGX15qjwm8zNDhm9Yt8ltbxocoeidT9IdQYKc28+8LSzJZ7riiMdIhOyYNdDRtEEqlUPijmP9PX/HTb/7Oe6+7U7s3vgQcgvdMW5PNDy3zQRXV1wdyYiDefCEI1RYMlthKUqHEC01Ov9AsqMNsT077VinyK4tGB2JUFrIxWtOnmsrgcceVY+FTeU4/+SF+PUXL8V5J89hLy3ZM5gPs2bv9emRqPqXOkRHy5GgpDg8yLjOn8AdDwLrOnJx8kWUEktDafGgFxoaSfmsrnzd61B88cWofcc7UH3FFah8y1tR9ra3ouZT/42y974XZZe/EqUvfjFq/vM/kauz6ubNE4MYWZjkRILRVIhWcq2HZrAnPHcJXvTJk/Ci95+CqrkleMFHT0RFUyle8fkz8crPnIW6hRW44psXo7ttGK/+7DkWD586pwe/1Bz1EkFywjniwPv6lzP+uI3pvE8HjpKAIhJkgSb9aSmqVTTd0Nn5PemWl056kc52x4atBZg8NmxnK7dOF8zOeeE8CRC4NF3uRU56FU8bo/Wa3emrFmIRyTDe34lffPPb+Puf/ojW7etJQEuRHNRewDwM9Q1j2323IRnvx3Of/xIcpUOGGamiknIUlJRRZ6fKdKGoiCSbhzytTE9QvE3GkCDp6RzBMboXOY4OdVOSGmY9jNiZi0M9LejRu8p8LjnSi6HWvSRhDnRJnLG+TvT07EdP/wBe9d7/YhlTVg86Cb2ho3MjS2sbUVJTh7LKKvJyFDvufAR7tm5mR9eL+CCH5bExDFJCJP0jktTWl3K8+KUvR2VFuWWXyxeXNz4/fTbKMEmMIaiu3XzLjTT10G/GmX4XULrW/OnEeAHLKs+2fuWXULovK7QzG7VIVlSUj3lLqnDOC17DcAtw7Y+/xfq3DAWUfo8k5OzYscMOmf3qV796xBwyGz4M0tqKCi1wdzDIjdvmopVMbfNIoUIneNj8BqEWJn8m/WfTpDkcjuCCmkBX75BNLeg4LlUGzd3RiLpgP58wlpjAje9Iom1HEfobgb76CfTX5qCnFrjs4jG89MQgbGJwOMbGPWb+KVz5p31ttVVl1tMfKjSM6u4foV8a3Lr46dRpvc88r7EmcDV7KD+6Oro5DKIkROnOTmaW34yr5is9RHjWaAI7KxsqJ/lpu42z68spwFCSw2Cynw5h0H2TaJnRGvKNag6R+aHDb4Vc5kEByytFz+ncJLES5nd+jhZnJJAl0dnWMz3cAFrACXrCSXs9I6PKVWmQksWKJfPZES5EimblWTw5hmvvfJjkkYPzjl2G7/3sL7jrqu9z6FeG/uY9GKfkmNdUgl/++tfITcaRy6F1PhOirw9qpk75pXeztUtPIw4d6qo5NDu1h+GnKEbp86Z5EykUFhaa5Bsd7EJL8xYOeYuA4ioUV0g6LEZZcSly6a5t/3bcv/5hLHv+v2HBimOtrPW+sk7KHxgcRlvzPjuItnvvbrTv2oXOHW3IqcyxFd+xGKXFHOYpibSSkm/eWB764vtRRL/vuH8dVqxYTGEg1+ZolSXKl6k8c52ImooMduX+Db19gzjj7POwb/uGwKYGZZShS3OLGX4+OxMdNDFq3xKsI/kV1ecxDmUm4ZZXFqOcJDhaNB+llCibmhrwsstfinNOWf2UHDKrNOszBOGTtyclRd0MZ8wRBUbpcGI1mTjBlfyUOYDPJLttJocpJ97gYyA97JLtpigHz/xGIY59DyvCwjG0sOPbT0LcUjWOU5ZOd6ue10t2aow2P2a2hwk+KMnQvtkhcmEjtBOnaT5cWIyZAeGYT0qJ0xDYqc4oHZL4mCYnIbpUFY4zLiJqDp+k9FaKOiudDp4iISofFJaO0C8opJSlHb4M2Hz2QVKn16bsEwSU8H3cwpXcbHUpbbJAHRGacrdkg7aOXiOvMobbPRTDfZv3UCLswUkrF2PzzmbsvP8WLD35XBSXFpOsytF08kn4/Ne+aSSSRyKksMvnxxlfDmUZ5SQl2VGSHseuNjWQx6H0RE4+EiQldXpq5/ZmCyVKffN5lNLi8KBe4ctF3ZwlaJi/yk7itnMTSbBDlBLb2nYjfwXjUDcf+7s6sWvXbjxw7724/W834Nrf/Bh//eX3Td1z0zXYtW0dBsba0N/fSim4C0n0oziQKvU65EC8S5mBU857JubNnxvkxBR8u3dF6epjYPUo7Ni9l4QY/lYzJUUUobCsAOMjozb1oTlkhTCk7k2dBfNHK9F7d3Rg3559OPaMk3DaC1+F6gVHkUT1obSnBuH642G84SvNkUaIFhuLs5WUDLOGf9Y1BWf2xkOBekvLt0D3jSsdBRwin/7ifHzws7n45Hsm8NnLx/H3y4ElVdOomZVDilIQIyiJycwik8PMez3njsUSGUpn46RZB14cNiyNqhNKtkvtFA3RTl6b4o/+qdsKOslPZreiLqmQUpTms0TajJsOINArbppw135EuRckjZYW5qI8eC1SizAm7es+/VPICop0yzjloqis2BVGAB/HaQhZeaN0r/Su9O6WLkY/B3XlJVi1sAnPOv9MlJK8/vKb35D0xkxaW3HMSlx8+WV45itei6WLF1JyTSCPRK8pF0k0qg+Kq/KfbOgiSj9HSWyRWAyjerVPG5npRm91aM/eBP0d4LA4GR9B44KVKKtfivK6uaio1BcGtcGcUmDnPty9rR3rSNDf/cpn8LWPvw9f/sg78aPPvh9//OGX8ODN16B592YM9fcwX8mj9DMdMVJSEUpJWPq2DEf3HMa/+z3vtZOQDK74JmFR97q/EPRwCH/761/5S/F/EoVI5bIzYLkUlGtr0gRi7PDKWKZJllpuThElaXUUmkqimcPrnvY2dO18BBOxbixYfULgz1ML3wYnW6wsPDkeCQgX1qHAnlMSXItmz5xjFfZw/JPEpTko2zRMZafO8NoafrjShFBSnIOlc3NxzLxcNJRNJ0RJUhrO2xAzIA5TlOo0v3U40KtWjgjpD3UpzSdGYlo5PfRUK14iMDvOSyLQtPrgzfI38FsSocLhc0aOvHYSo0uv7KWUX5JitbgRV3qNwF1nIBLUe+jaJlPK4bPkGy2nSBKzYTobmWlBmOUcDk5DwNJ2NxRdH3XZW732FoG+u6XDFgBKKC02VJfbq47X3nAb5jYtoIRYiNf/21vx/k9+Ah/80Ptw6UWnaOzOaqB4Tdj0hw4IUZzsVBiS4IRtJ6L0y/qmTxcYeZrETkm4uNCeGR0ZQDKibTi5qGpchIr6eRxplJCwilBRU4mGuY0YGenG1r0tuPmBDbj1T7/E+jtuRPPWdRjqHWRd8UPLqemb8Ina01GNBIZt6IrcQpx1/jNw9lmnubwQAk1wOTsdzplz5J2qLf39xpuCK8HNB2pBbDA2aO50INnI6ABGkkn7SFcOo6x6TmtU1ZRhwZKliI6WYdP996J2yTF2WMSRhMnN276xH5kIld5BIJe+EdgfLXTs+uBQFHbgaKA0SR2n/TRFYtI9keFINI6B4ajNH8pP849Kk/9q4D29Q3YogfOLKt2vsOJ9HRGld2ZFYJpzc8NdkaIIEujkva4+56fOApQuaSbiFZ+fVIFdR88g2roHjQS9lCZIk7sN25rRPzhix2oNBUpmnd+nw1B1RH4sHkecfklFIlF0dfZYnmkF2AxKvfRA81BIxnkMTLosbCrA0qM6FZAlda24GinqHiVYzb3pliQ/udHR9YUMr4jDLm1oLtUrcrKjtxK+XAEoCEeLFeWan/KyqyNM2etHCxF2YRbORSbozhDzYdOuZjufcWdbD+6+byOlqGJ7++NDn/4UHt6wFT/46S9xy10PIDVCQrK5REpEwZyXNm2Psfw1PBZVqkPS0FqvJ+Zo0zaJMpWiZMnACph5o4kY8zuG8cISlDUuoHRIQtT8YpJ2Q51IdTcjl24SsQH85d7NdoDudOhb3trqI0L0OwUOBOVYProje1FUUoZ3vf+/XLl6WB5Rm8wvByvuoLDTc3DL1p1Yu/bh4Ep31crYURVUoLy8FrGhYXZ4A7Rhx5FfzM5OecNYTOQzHB3uyzY2zu5uPIGx6BAeueMW9Hb0yLOnHJNp1kLLyMjI5CdON27ceMQstFhhTWLaxYyQXxo5SuKRclKUpBK3oKGhnN2ju+mdgAiPv/yxM/CkgoUGnUpjNzVHY6ugTrrTcFXk5oaK9Mv9T8bUco/psH1grIt2+Kvmw3jh3YgURCCKp/xU/NxZj47kpqIYmBVH/dEPVXA3jKPZ7ElMQTrtLEE2dvmr3l3EKfLRnJgabSGHqnYCj9JIf7Tx1h+MocMrlH63wKKVYvrNsBkji5PNGYqERXLSeS3d560iamTJ+yL97rFcdMVyMMCyjY8xLwoKUcShpDvwlrJGYQ4qGB9t21HZJelHRHlLr5QmhaP9powSkYsKSl1RNr6Wtk675+HL0+uu+rpGa0oWk84VR1jeLT9qCfr0Def6GpTqLQ/ea6gsw23rdmI3yfLYugKUYBQFY3EUk+A1j6i06SuH46yzI8ND1sEpz7TtRYQ4HBkhOeSQBFIcnlNSI5lGSKx6313fadGCir07zdC0SKNDIHLzC1luI/juz36C39yxzuI3HSJDEaUyQgR5ICjF+mZlNcpIjK9777/hfR/i0FllzJ5Gea+6oJGUy6cpWH2l3SRJhO6/9/2fxNe++IngSp1DOcMoYgdWiNr6cvT09du75RQbGIMi1Oc1ILeUYbGjUXp1gpTqXs3So9G08kzsW3s7PvnpD+PMU44+Yj5xOu01PyFsfjpCifYFaqTBimoNnbrmdDQB7HR9vtPp/vRpXZsqYIMVMajRkhC1r8xeg2JZyT/5pYLTd0w0ea4z47R/rrDI6Xq+SPY+DLrLz1NhO0K0eAZ/5i/t9G2UQg4jdNirTrWxU2ukSAAyF1PZaTaULEp08o3FMyAwPu8qsiNIO+nHiM+lVyc+6/vA+tCRhmmKpzZSu7g6dzp4wZ/so7RpZdIajMVXGUpNVYNKjTUwTilvxx9JjJIKk1QJEn3u2KgNq0c1kSpHhK18Mq6Ks8rKvOdz6iBEwPbqLPNdDdcH75Q2cedj8bx6R9pmGyBw5Kc5dGGaTD6cwI3d4686i9279mHx3AYOM0tQX1GKOTXl6ODIYsn8JqxoKENeKo7xeMTSYd8kIaxbY/psQUvjQ3pWpLKE5k4pESa1CyCBqpICWzkfS8VI8hxi8zFXt1ivSP45kqKTUcvn4YE2XH/zdbj6ns0BIUpW5rAe2kUgitEGaa11S1o8GBTPMT4zjjXnnITXvekNlteKp9IdzotAM2XlQd39hHRCo49r//yH4ErQ1MCoxbKhqYJpH7UOq9TC1rs27BzYkehTtHr9UG+5sCtCX1cEHbt3YKCzGRe/5u04+mh3sviRANVBtkfXSD05usp0JGL28ZJLRxI0B6Rjkp90a/gFVCIC6iIF00mERgySDmln5BIQg/nl1KR/VHYsmPzjc+4LePLTXduHn+Snej4RDXtnVXzFzSoks13+SNLzx47pjQ2d5ahG70iPul3n2byX3acyIqN7xVFHjskPfXbAJFH6a9/yDdJnBEhSLCAhSrdOwNKrPFD8lWYXvtJt0mKQZmWg/gwBmQmBDa2cpRq6kyKdLunQVpwppdpR+JRUyT4kSol+ejqQPpUHIj5PfvRAhGoLM5I6telXdZJ/7r7yLMfypooEVldVPhUZQkan+Ov+zezLTk11Shcxy55uGM/erh6b0xxJpnDDHfdh+849uObP12PHA3chMTJAUqOERsJWCsdIjjkiQ+n8sxGFwmCERzk8jsSSFnZVOaXBXOZDfBjJRIQSOyVCJUJSISW+nAm9/TGCyFAPdm97ADffcTN+fP099u0ZB0mFIwxRJCiK0QpyhErxOBg0L1uHouoafODjH0ddbXVQj13aLd3SA9cGWijesk+Hyva3f/gz9u7dHth4MF2M2eCQXh8cQ/5YHq/18QPN+0pGjWMizvQwv0Y5ZNZU0ljeOJqWHY9lx52C7i332cEbRxJMUgzDk+MRgQyF4zDjDYORjnT+aXhikgN7ZiNGNkC9VeE/4qThhCQ/mUUwNqywWmOsZbXHyJBW8tMamOx4Tw3aPyupR2RkUlpAMCadyk+RTeBezyk+auQaUnh3WmgwcirwZj5npOX8d9JFYFbcLV6MDyu/DjkQbO8eh/gWV4WnZ0SMJMICKpF0noiapGpSGpWTLEWsjhCVNrGVEbjm5wgjSEK1Ir1mODtHj/r1UmKCZKiTs90nBUiVJAQ7/JV+yT9zT7fy2fnOps5rN+WhuV2SichR0qV3QaMvW6X/5KMXW9zNjpa2MMS7ulYH4eyDvJad8j1QVg+o9E62JPne7n60tnVj0469+NInPoGf/fQ3+NMvf4GaMr02N0hiJzExPnrfOYdkKCJXnZJZ5VessmNnq3IuLi5FuQ5moN8qkhSHznbUGMtChabw9XpmcqSPQ+8udPa04f5tO/Hwrl50DYxYUh3c0V6JGRdSDoRq1JdX4bPf+BrWrFlp9Y7RtDpkddDyy+Wryy8qu3IIcnxS12G+H/vAezDKeE9HBamQUmCMaZ1gva0oRqUOvrCuZ4KUHrO3cPRK4gTtdIZjSXkJEgxvb0cvTj7tTOfNEQQjxXDmeHXEQVGyePm4HSyOakxy5dxpHqO8jAVWVsoenKqyDNVU0r2qlKqg4n3tyDcpMfCHJR4EKRsa+K9TRmo43Krlc5Ja6qWqy9FAXauZDVVlvC4zvZHXNZRu5Gc+G6zbOMtKxDTRaASnoXJdVSXqayvRWFeFOQ1S1ZjbWEO9BnPn1NIsVYd5TbVo0sv+bHg2RzqpJKmJYGBxWbmoEWuWNuG45XNw3Ip5OGb5PKxcMg/LFs3FogVz7OPqDU31qGuoRVV1pUm1QfIsuyergtfpr3JE2SE1CV5IQrRPjhoZOkKMk9x0qEMOpSgOpOkwIETxt7hc9c/8DAIgEWuLkgjRDj4IEqMn5cY6bZrlRm9l1Nf4tyFcSatx+yvVY9f5OILUPeW3LepQlZAltE+xjHVDen9HNx645Q60PbARu+67jVLPsIXh2oRFzeKiAWyu5n/13vloEuMcGtvQmv7lcohYxHK1+UbN68aGqCKWRp2Oo85nQkPpBOkiHsEACffhXbuxoWUYa/fst7hP4WDzhumwHKASmY7gTR/+D5x3/hk2irHOm5XMOgY68yQo3eXYgXHL7feix9YTqqmKqUR6WnuupDxagrzKIgrAmmdO2BxpsZVSknfnoysSRbQ7iqHBfkqK+gBYMWob5yKy7UGcffoa8+dIgeoX88RVNK8fcZipxA5Qki4danz6G7dhpoaiVhF8xZhB+fuS4EopXYlkNDkuH21hIWjNZSQwDZcz+sVa55STxLyyr8GRmBUzOrMhF9mCDWbC4ldeqolmuXVSW1h56dNJj05pnlFkqbjpfDuRol6H07C1rLQIc+oqbKhpQ/uQcsN7N7SXPz4MSZMVOmOP/njycQnnz+SFLp0uyMhsMaV80jyiCFGkFpYW9ZlTDZPsC4JMo/ySZGtzc1TKCk3P2/CZbpXXGkarmJX7JjXSbpTMpAWuGNMY5TBTBK80WHVQ+VI5AlT+iqTM2s1R8kIr3DoBvYT5ornZUqpyqooSDsmpLjj9RFz4kkvYwFM46ZTTKNVUori8gp1qEXlA+a56pCgzViJG5ve4hrscEiNFQmA5aJ5tLBmz1/n0qU8dMItU3LbtpESGHEoPjQyhu6cT92/ajF0tfdAnWkvLG5SKEKaOSnNwkuOBUcU0VeM/PvxpvORlL7F65cpYeaL8cBmiJHiyp7XTA+Uycwq9/YN42zuvgE4td9t/NKyXozoSvUYcKeTEVadZTgNJUnmKg2a50cuFKdRXVKGwuhSlpWUs8wT0WdbGxatwyoUXYeWKRXR35EBtSLXTKrmv6OEKf0QircBmgqWJjUikpuHq4UCVRpkkktDQTw3WrwqL5A4HqqRGilQibEkQ9NAI73CgCq/k6TRrzcNplV2vEWrO8XCgvLKVeSNG0dFUfaC1QbkZriUyM2jmkYaKbDJGik5pKK17clTGxJaLjEhK4kXlgeLu/ZP/ylvls/aHCmq+ljZLl5un7Ism7C2U7uE4h2G5qKGEax2e3FNXZyOlIpKu95RFxBrO6kP/WgGVdFhRRF1HiFFJLyvOR2NNOf7jPe/EOeedhUXzGu2UmsrKahQWl5BMi9ipkAb01gklTessJeZTF1TXNHc2rqExJcRYlAQ4PIBEZIRxJ0GMjyJJ6XBooB8tnW24b8tW7Gjtw72b9uD+jdvQvH+P+eNAEialTEf6tdyEMYHG2gq864MfxGWvvsxIX5K/mxLSsDkgQbr0hGgXQtgcgurC737/J7TbK31Kp+IgXUqfNShAfqm+NjjODq8QfRNREmU+6ktqqVcxX1k/E3GMssz0tg6vEBkewu2/+gZOXNnkSPoIgnaATJtTdBl15ETyoDHJEFcjQzUu+2PRsSGJ1zKDN8YS1DSJPpUPYYgMbbuMESMrPP17LK/QKVaOdFx4ClZ+h8tBp66k9m7DBBtQOka7WjDavi+4cnDDVkeIJqGRmUyiDeG+3lH8eG8Sw6HPI8wEnaZscVLGWbxE3w4+X53ZXSs9TsITOTMejI8WVXT8l5Lp3FFaozRVTPKRlFZA0a2E3KLDIVz/EpAhHco/kaE9xDIWOdt2H9rHE6PoHoxge3sfHtxFYtmxH+2RhJWTaoOUGx5q/oy0Qc9N8cIkRCr7qBgbq+IhIiylKqPULaUVf02JvPed78Czn3EhSbQIxSLEwmI7abuouJyNnxJbboFtodHKs761rHgqfilKhMk4h4uUBIeH+zASGUCMJBkjMQxxqDwy1IuOvm5s2LMPA/EUtu7vQd+wO/jVJVhQhkjSSp+/k10Y01ehq+ua8I4PfQzPe9HzSd56HVISosgwNO9Kd8obDxnDyv1MYcfOPfjvT3w8uBK8A73zXcQhcYTEn0B+hT43MIrqnCI7JKIn1srYRlheJESWcU6+yjRpi33x+CiOWrEKz7/kWYFfRw6MFMNE6AjFF8yRASusUEGZkT9mL/MMsLRYw5whTWMc3nTcg7bmtdi14170ND+IcfZg6bA5OjZKSYwiMlsskN/B/cNC4IckDNvjSBIKx3GseQs6PnAc+n7wEV74lUg2iZ1r0f6eU9D9uRcHNg4awhl5U4mwJSmKKMPYPjKON25J4MTbRvBgn4ZBM6SA1vYJBjGc0sk4Wl6G3IfzXbaKuoKTRKcDFmyY6x43JUfS5KhoYowElYMyHSFGTsnPHScx6pYrJxce3foCpnSpa1GGfuR373AMG3fsw++vuwm//O3V+NUfrsNtD200KVcN3hEih8okAx1XJqVV/MkVfBKikbMU7W0bFAlSUryUzJovnlvfQMmrxlaVZa9vrujdax0Rpiau/aS2gKEFFEWPZaUV5hilxEh0CCMkOx3OoC/wDQz0on+gB/t7O7G+uRntvSPYtKsFO/e12rMOlspAtxwLoHm8maH2O2/VCfj8N3+Gs889JxguB9M2lKQtG/UjBLq/dDAXaSbm9egoPvM/X0RX297ARtAQ3h31pcFxJGcMAyTvxKBeYBhF/7g2Yqt+aXDdCOWMvu7HEmG9ykUsEkdlVTnOPv9MVJbPZjrgyYUNnzMSxhEKX1gHh0sT66xrZNMqmMN4tB3f+HMUL/j/7L0HgGVHda29OufcM9OTc5BGWUIJCSQQCCSSSEZggsFg8EPAI9ngiI2NSSYHE2yMHzmZDAIhJCEJ5Zwm55nO+Xb37fSvb9c9PT2jEYj30Ej+6d1dt+rUqVNhV9Wqvavq1Pnz6/TGD27VWz+xWXdt20rLLoRIhMSVdVgYlkCSiH3TwGpEi+9r0HPHc2kk7x4YiwUG0u0eSW8e+NFEfo44AgCcQezspOuMSpYdq5K2szRy/SfU97UPh9+UpY6uf32JMSKn+ue9M/wyIu7Il+2QGonf5nCqduIvnleq5bx+uP+D0sCv7HtoOPKcJNdU1sjWYVHNvuQ+JuMLYAhwkTxxEXZW0TXSN2gVCjBh2wYbng0vfPWOlXgDGWGZW8zYwfQCPMrqHv84Zn/I6nNnn/r6R+LtnAe271J7d1/IWKhkLKakrUbpE7SV5QZGwBD1eQYIWZlnnpVwhbla34u5Vvzsbqyv1bx581Rm1Y+5wenxfMQ/zd5EpxHqsiVzJNmx0VHfHw/+UboJA9KYpf7e/l71Dw1qd1enbtu6R5u29+hXd27TnZsf7kEI/QX7yPS8l75OH3j/x7Vw4YJQk9MuCIOh+RkCD8wr8DOzg5+/pUN98Uvf0Te//M3CVUZoL8wrwukBNVXXqJmdiRWuo6EJ1RTVESio25Jst8adD7fpMkv5vTm1DwyHBHvpS55XCPXYogBFmIYjkxYfqzQ7d4e4j5BvOg6GppkksqxFHKTJsno9sGWv6hqtKj17mf7x9Wdr+boNrutD5+ICvNxTw8b4D37ZR9M9P9D4nR/VwFc/pcGdXbr5m3fq9ht2ubF36+e37dfOgU5du/8Obe/s0Cd+tFn37R4otMlCXOQR0MYxK4tFZeWa/47/VEnrWg395B80dPm/q+Ndz9VU372qfc7fqOac5xZCJgIEAaJQYSNO8lu4WaAntJbq+rOq9a4TqjSPqaiRqzW98yJp2/ONYod+YpL8ZMAdeU3eh9BBP9Rb54G0zRaeg+fkIUzhecLg4tU3juq3S/npUU0Wj8a0/HQx21wSOKbtNCn27Fk4Tj8kvnhjZyyvyXze6bkjGrxeeNEFOuGYDQGCgCsLVmxr4rOjzCMmiRFQTItNHCU3e28m25eKM3UzpCy77YddWVGhmoYmlVXVGgyTlIg/BYwBwAa1CwWeHUR8eZDtOgAp0xkdVqV3dnbpfreRex7o1E33bLMqnYuyPTxKkuhsYvvRSWecp/d87L/0ohe/IhYx4Fss8BkYY/uXmQgbZ3rIQyT44B4k3ffAdr377/9K4+O0jdlzl9REZlzvw+ZvgzHEgDgx7fqYdvqF96GdCy1dsEgV7mPFlhLL6sq0etVyvfStf61lyxenhI+U+KNItHngPoAldYD/fxAlifkphL6HKFZxRYve+oZnae2yZr30vbfqVz+4Uo37txTuHiT4ElGEPRsszDerUaUrLlDl8Zdo8ub9WvOUddqxuVP5zkHt6h3V3YOlOmvhceqf2qwz17doVVtSO+L5iIO4ZqUxm+IGDkZ7gLrQegrPzSbAJytqyFSEOayx7Rm+W1d3/FDdY32FaK0Glq2S6p7lYfzg6A5FEtiz3EGOM7pZobNxFWH4s4M8BCj4IvKEpztJxEG2COtnR4Y4DTqv4ckBDU72q2+iT7mJnFXvcYebNhi5QxeAzfgUApnxiaiCYnrAoDg9mdfyBS16zYueo2OWLtLEQK/KpydiYYUtKAAfYIgkmN7esWRo0DwEDG1iT2cAGWA8ywS4JIMUWV5VpdJ6d3iDY7FV6fi8ACOBS0b4cPuZJK1T/kl19PeHur9l76CuvXO77t1zQOXcT0X5LZRtaj44l8ircquPO0Vv+4eP6O/e8yFtPP6E2DUQuyYK/AlO+59XNA8h7mdhCnaqT//HdfLs7OrRy1/yJ9qzi2/TkNPD36AJ2DCVq6y5XFNjtINpq9Gs3E5qflmlGuRBxBIlK/PTI8Ou76k4ZLbG4P28i58QwA2RYkr1sUNZ6f5n0xG4mnk9FNjfNTis+4dHdOlrn6BT1rbql/uqNTWyr3D3IKWnE2hFH/ffjKrbfImKGk9QxSkr1Pj8EzRvYb2e88en6sKnrdefX7haz1jcrHlVjTppweP1uLXN0UGDZuUpADEuZ/lZ5ep4z8s12b1ZtU//O9U85eWa//ffUnHTsRr67rs1fNW3CiETpW6JeejmtXW4XZc98HWd/os366bO+6UF/yytu06a93Iz6zBJxNFkuclinIm54EidCEf6ifT9gw0gZnxPnEt5jKUQX+ZHLBuOj2jUYNg73KHOoT3qHx9UzhIkK7qxYmwg4jixmnK28kzJeGRAo8EmqWzUUuKy+U36k0suVnXRlPIGxPGhXk0MW9Ucy1lCZB6xAIgGQkyo0wUw5DswAYIAH9oBQG9USfOSB81scERyBFSZQ5yuqVVRTZ1KyivjUBDm3+Ij/UZDVt0nLMH2Dw9p24Ee3b6pXXfe166x/mFzoPYhdh8eqSsmMERoqa6t06oNJ+md//wJffAjn9N5558f+/1iQcV5In8MOGg1aXHRMjUVUXje/06bv2QX/g8hwoyO5PWWt/6lbr/tanzSjQcRtVmqJa3LVV48FduXeovHDYTEbEmrslxtx5+oxnnL4/TyihpL2vObXe8TOvPcs9RmN/RQsT/a9KCayNTRI6mlj1U6Uk5Tc4AOumZTm6Wv//ORn+itl31FVeVFescftap40cbC3VkUj2fNyeTrhwLa34Vmx3A4q1lomWy/XlXnXKbGF74x/Iprm9X65i9bzazRwHf+JfwyChAquKFwH5ZHwKmmuFR/tvzJWt+4XKpe70gPO4LrCBRA6wxmf1Cy/Vvw55/UPFwkR+EaCv/02CHlHBucdBbz6sv36/6uXdrT264BgxkdrsL1UWWNjdXpqjK+yzKt6rIig5yFWndCTuluqS7XHz39Qo0O9GvaQFg8NqQp1HID1GBPt4b6upRe4Uz79NL+TwOcDdJhbE8B7CgDRfCP7/oaEJzlVzAZWDJXx/Ye3oQqqa5TadsKFS1aqzx7DA2QLHjx7ZRxA8Xu7m5de+tu9QzmPQAMyTn139BDSImHSusZLV21QX/82r/Qhz7zdb33Xz+tU086Od5QQupln2q8115e7vJZ8nd5gKuYTglgpPaSOpjKcdCeqYoZhznv8P/4ng/qa//n8wWfDB4Obyds3p7W3q4ODY8MqaSiRE3THKRRZNmx3INchzbdc42me/tU0VSt8toGjeYq1LZ8eRxKEbxPET3mKOp89nwi9swI/3vo+EeHMlnkIGXXUaxC2Q6ntroq/deHL9W1X3mRvvShi7XimLOkpiWFuwcpezrijPgeMsqHRREFcaTL4PnBHCdioaXt/feq+U/e7Qven0hUvvpELfrQrZr3V98t+CSCA7NjOFL2nrbwNN31hPfoLza+WA1lh28KPpzIYCGWmYwWvGauD96P8vjHzSn5FYg8PShfhHWnmMq7XOOVGh4fVr+l9s5BzmgeNehNWsoDBF30kkkrbmManRqN+UdxvL4hpcz3z1i3XJM5Pi1qIJwc1+REXnzmky0xxXZ3792jnvb9Ma+ISXOFqMtIhgY+g1/KOyCRwNE3UjnCzHanMAAqeScuJM70iqBNlUGjdalyi45TbvFJys3boHzDcu0erVVlQ732dfdqcrRCFQEmiSe8FTyb2L3avGiZTjjt8Xrac1+qN/7Ve/Xhz39b//SBT+sZFz9LrU3NsfDDAhBgWOkRosIGm/fb4zVOtxXnMCTEbNcA5GIFECUVm3KGd5RrNn3wgx/TRz/wbj+X8pkkQuhw9dn1ZKBsqmmw2xI4PCn1gMEJvaa80601OFbMb1BtU6ua58/XhvPO1/NffqkWLZyX2sFjlOBZ0aZNm6YHBgb0kY98JI4Oe6x9o+W3UcDBrJ4XcblRoGIxIT/mEbumqtKSx+/+0jlxHejpK0gJtCTmijwCexTmi2s0st+VWKXs6Orxs+6gLmNs8ZmciNfJ6mp/u+R2JLrl/t1WPTlsgNFeUe4VbY1ateTwNyR+OzFI7t+zP+bckqoJONCBfNN8ZuoAvmAIG2+vWDobHpvQwOh42JyqzQGysYjEYw4LYYXhz/ZkyajuH79R2w/s0dKW5TqmbY1aaxeootiST1FpqNNDVqs5VbqkqFxl05aShyaV6x9T+Vg+5g9Lp9MX8jjSjVOuY/HFz+UNjtP233DCCVq6bJnLgXQIZCQwiPbl//CJf/6iiGGHK/IdGbYzSV7xFksYl93lHHXZMcP5KeXGnDdLsSMTaXsU0mJ+lI9k5TRs4B+0VMsJOrT1kNgMYpXVNfHNksb6elW4nVYbYEO9J0+EcW4IyzvsnO7EXklOr0ZCRJ1HKuTwXk4zp955o4opg+qaStU5XHWlodjPUY9szwEgiRvK+hj1840vfUX/8rd/pbt2sP2GvoLqTpvPgDFRmZrjtCUL8LKmrZo6x+9gEyNjmipij9+U2ke7DIrz1dRar7L5bVpz7MlqaWrUh/75zWppefD2osH4QJjlT5eNlf9YxHoE6OEcHXb11VenMeNIAY/k9z+GnHXyTxFoUABj1jF/F+IgWjoEnOAVphmO2DE0MvI7x0n4oWFUxNQps/xhcjl3aHe035X6hjg814AY8SHxsHor9Qzk/q/iG6fMpqh/RzSj+hbMbIIjyf/gnZl2YyuksUKIZPCL3whXMlmpxonFBtEhDYzsUe9YuyXHXvWNd6s336eesR51DO3Vvv4d6sn1aHCkXxP5EZU5j+UuZ5mB0LBgsGJOz3Uc26k8KBoMpzCTed17y6+1Z+eOlAN4BDC6XInvAH4CHijKWjBZ+ORKvzyT4kjPA0DpgA5Li4433i8GfAr3WQmvra3XfAPD6tVrdNIpp+nMs8/V45/4JJ39hPN11uPP1cknn6K1azwYzJvnQbHuQYBAC8vSY040HQeXDvnIXtlMW4ich3K2EaVtReSFuMgLz0e+U1EOIT7wdtevfqnr/vszmmeAW97Cp32zhR3az6HzzaWaiLnd+uY6NbZWq84a12jOkqQBudxSa7GD11XW87ah8kNDGt27Vy2tDfq7d73liID4WCP6qHl9UGWe7X7sE/m0eajsugFkahGSTGdvv6WMXBjUtb4BzJD6+pPhhOow+KHOOXxX/0ChQdGRUgfKDhfodZh2q0W9g+mZnv7BOKg0mUHHlUzE7/sDhO/q1VBuZEaNIZ40chcFGO3b36menn719A7EF9O6uvvU2dWnjs5etdvs7+gJs6+9N8zmne26e8v+kBZSfBQ7xctXA391y2Zt392pHXuT2Wmze19XfLTpQEe34+1Rl/PU7XR6LRF3tXep3XnIwAITrAy74D70J9LEiU24BDApL7OJy8hjwZ3RgtLlKpuoV3d/nw709+jAQKf2DxzQ/qH96hndq/Zcuw4M2W9wr4GyR5ODE1ZDOZWbk51JLWkFSHBT7pjxLrJBEkBEpeZTATdee5Xuv+fuSC8BTFY+PJKxd0gIGYxnFO4Ik/IeYf3jKCKO2BeIKQEgfV3YCkN8kUbh8dlEGpF4Zg6j4Hc8W3jebtoMh0kE6NrMqMM2ACIn9GQnInGGZ4DlLIDO2sfszACIW2/6tbZef6WWWlo6Zs18nXHCcrWwwj5D4yjIznODWtWiEQ2q2IPwePeQ+W/peWJYRb4uqzEATxVrfEia1zJfq5at1+ozzolvaLdUTGlZ62+bsnlsUNQZJ2/3W3z9n6Y+o4LN0CwnJzSD62n1DRWHtwx402PKnSS9+ZGtzKWN3Sl9ngmGOFkAMDuTkAaYjltiwEjxxiZl4nKeQ5WaiS/lIct5sUWPaIx+NnUcJvzTJD9xIpnwHOfzxbu9Bm/iJL/xAfPIKyp7MrhZwWUvGEdwkdnoGKFuEVkKg4QY0weOL9zkz3lzUWL+h1VZjijjWLM4Qg3b5Q2Jw3HRoULdsiHe6MQmDq6I7TZw3/ERN/zgtULURtTn3GhSKTk9O1ZCC89lg+1B28Y28fXn+3V9x89V19CgCksZHDPVWMlnQEcc16h6hnscsFxry05GKVOFVTROnGFLznh+NHjGUf/xgXkOYKDOLVGOjw5rzIPN6OiQwXFcK9dt1NOf8WzzLJUIyKGunLu4hrK6S17OPfmMPNtEHQC6iae8iZS9j52DB1afh8yH4VGr1AHQ6XkiDSCljly22W0bl6N1sLQoEnnKeI5tQz1w7Fg100BWiatsM4+IP1nL2iQXlC22Ihkc4y0dpEer6UliPFg+Voy3XH+dOrc/oP7eTg+MBzzw7tOuji7t3NOry2+9J+oGcg4Mh36ypk3TefO+ttzyueMttoZi/pdX12lqbFx5ayelTXyov1Rty9drqOeASq0Sf//nP4rTmB6KHpPqc0Y8kDXaxyaRt2QeXLQCuQwzR+jbzQnHoeIAcmzPcIePPWtuVLFyVzC440DWUE08NgZAJECcAQdHipvNwXEwrONKI3OKKzXEtBpYxTuztmfHma2AEi/xUYZo9IU8xpaRyB8bjP2M3VkaTKSHTaMxoAGusYAQIItE7LgcR5JckFoAYNQqVmALebSpMthQ9uyEb/zKbKdDZ1O5yWOSLMhj4rSdM5T5zbZmbrM3rvAcz8w0sCzsTMCDzzSUN2h5zTE60NmvnfsPWIrtUPdgu8EWwONo/z5NDUvNU/WqLObwVHfJIgz1bODxoAIPAqj8zNTEiDv9aGgI+ZFcnAU4mBvSNVf/RK9/+7u1r7MvykYGGJgiU+Q5y1CQyxFdIX6iWAepwAE/kA16Tj65+SO6FGKGMuDFF55wpBlbj7gmPH5x5Ytw204DaapTbsWAxKBHOe0mRp4lDAeApPZHXboO3TZoE1k5sTIaHRzU5uuu1WD7fj9LGyi36t6g5sZ5saCzaKFlwobsm+EGY1U6rma3QSlXPKKiSbetsiJV1FRpynnL9Q9rqG9AZU2Oq7LCkuO0Onfvjk+a/tOHP6i2tt99bvvRpENe88MdTPyfRIc0VhpXwcPloJEiRcXG2wzEMuPGk4EVdvYZggAebD+TgWmAoSs/wCcaKnEmEEvx+XkMYAPQBMg6blYGAcZZgBNSp/PFqJ2Ax3Yh/gR0hCOvzB+l/JEfTLyChhtVyWEiH+THzycAo9zEl/JJmJigJ49ZGTFZPvELmzIA2qkzRVld9ojzsOYw+7KQ4iF0JD/ooH+ys3gz37UN61Xjjtc7MGy1biyAwfK4xqdHVFNRoZOrTle188bH59mDWMqD03x6HgnY7RbJOlahxzQ+NqZ8LLqMGhBHNJQbUP9Av3bv6dY3r7tfL3jDu3XVzfcFwCQwot0czMuD6dBGloWjDJhQx/mDXyDRESh8I3yhXRIW27xO9yyQ4BdOBt9C+7OdVsxTvEBhkipTnBEXde2BlYE62gXGecL/EDKY9u7fH4A4NjBAkgGoFeWVbgcVbld86oJ5whptWLao8FCaY65qQTK1BF9S6WhyKjGv8zkPPP15TVgydooa7eYj/GMaGmKHwIRe+mev0lMveEKU7X8SmW+p8R9OR/J7tImmOdsciUIBoaHYHbZNnCoN0GDc+XndK73tgJ3AMAARY/8AUBpWNEYbGn0AV2qs4VdosNkqLeGJq9yqSoWviSOz0wS84+M5ACx4jqFhk1/iI+6CZOB8EB8gFUCKO4uDfBXyFtJA5I+8pXqMMvse/oQDvANsmYgP8KasBlvScPmDJzMmpZ/lj3jJJGWfkZTwO4RSmBk67HY8Vrh/pDYVaZjo1GctPE0tlbXxnY+aiirVGrQbrCouKV+nhlKrjpYOS6f4FIDVNtscGMtnAXjfeCI/hj4fquQop9KM8pGsvNVajsofUFdXl27faXHTyW3ec0B//M4P6v3/8Z2YX56dq+Q+Uis79NopR7kSz+0EtAplOTIdvB/TM7RJ12fUk00GymEKfpmkn72PTVjSA/BSW0z1hZt2lZm45wjhbcbzcUtte+65R7tuv12THjBYlCLPzMVSFuKu4MTwmgY1WGpcsrjNEmKpaotqGZo0NTqt0S5LibBgqlp5YJBXM52vSY1o2pJjpG3VeWJqVKecfaZe/+Y3Jo4h1c5m5WOcDhtKyP9jN/fREB8WHWysqZGkRpZJeMWuSICHNxNKLCVFo7OdjupPhrAl7PuiITqOaFyFOFNDBJwcl90BWgEqhWdnxcMkOA07A71ouI7EVsRJ4/UtuwEh4nM8hIv0HS5sQJG3Fhx3dKYCQNodAGaTSo3UlDpOgGGES1ImeWOrRpI8EwjydkZ0PLsB0AxMIx8UNOJMNhSq5ixKClz2m9KHsAuPH/ScRVlHnQlToPqKWj1p+ePVYhXORTONWjKs0aLx1batLhvw0regmatj3nQiOjdbpDjAdWLCkiFS4jifnh2Nj8r3DvWou6dH92/ep87KFo43l4baNTrUqw9+6BN6ysWX6Mbb7zmk3R+qKheKkBVy1r3wpxBRkFSYND+IOfIUT9Q9PLaomw1wMSdsv/TJhFSfMaCVU19pGqbMuivtKQ2Wqf4PeWWR53jeiSZDPClXA+3t2nztterdtUPTDB5B5qP5loBUKo/2zFRSpWqr6tTc1Kic4XB4ekLmqPYO7XeJLI2PTKmuqUjN9WnD+HRlvarbFmrKAmXzijbVtjRo8THL9ca//uvQmJDGYS38gMeHsfAxSQ86JSdrsI9VcJzdSY9E2V06MGUJlcTuaIgBSAWAtDsOIs2ubbPwkBqJn8EQh//Ss8kEf2wycONZwCRsG+zYnmETCxg0tkIaEa+fKUQRz4fDBKxljTrCRNiUXvhzTZqz/ckbz7mZpTDJn84V9x02yulOlG3ViI5Ift2RsnwDrgmok/F/GGIOolEnj0Op0ES4Q15mwjsst7JnfltLIr+JilRX2qjFxWtjwWzAUl5F7wJLLEll5rAIgrLYweLKeN6qW35cfDdlgiP+87k42Zrj/qd9b3oib6loXN0d/do2VKxajqrq73CCpdLQgKZ7Nmvrljv1vBdcole/6W+1c097IR+mLNNRkOT8TSWJYHT6MMmPRaYZiiIW6svu2KcKmBUMA55/4vXDJNlboo+zHMstwQFWXBcGWsJEHWb15wjTfxA2XvmhYe25+Sbtu/MOxWdULd2RqzgJHAnb6E9+izkPknaCNmE1urLKkuBkim1+Ta0aVacq10K5n69uKY8PfdU0tHjwqFLf6C4PRBMqra1RUWWNlpz2VP3Thz6sNWtXKr7g6IEsDuM1T5JJjgKLHpNEHaWMFmi2+38iJZA4SFFAt8LU2RNQZOCEf8GaMRmgBAiGO6I5hDKvTMUM0Cu4Y/J8xhTiLaSXrnnahrZBJLPZXbg/4xVB07Nc8JuuU7jkXbgXdrrMykiHCfWr0MlintTgMiOxki8ziHxngDoTb0RWsI9EzmSWJoSLS8ec3PGXCH8AMkCi8MysR4PiGf/wVJNaVDFSr0HjV9O4JRGkKj9NOZzlCBsro7HCbgkxFmQMjGO5eG+cA17z4zl31mFLktPasa9PE5Z+hnq6Yj+ddWqpi4N603683HClvvONn+rpz/4TvfuD/6Zd+zpm+gFp4crqZKY7R2a5i7G/vSOc0wtp0R6HS5zRFqNdmUfwG/5TFwFubju208IeUluS8GP+lw3YfJoWUOQezzltUnbwoJTPSFgTuZw6H7hfu2+5xWXuc544IzD2LQT/AkR9zWENk6zcT1o9nqK9kCbz4VXqHxiOjyGMDk9bOZ5QsQXsqepxpzelqsY61Sw/UZOlU2qumB/TGmPjgxrs2aknnXeyTnrcSeLbz7wLzsHMfLcHcGSFPPGGzD52gHF2O4bcHw71yOghvB8TdLC7HZkSMP7mMNxPAJDChV24PoQns92mw2NNzyU7gWh2nfxmSwvTM/pnag5sVTlI6R5ehbsRPjWg5JeZCImj8EyW3yz2yIt7S1KxbOhcNkiL0eHokA5z6FOH0yz/QvzQwTQKDvuEk/jsCMPfrGcywi+yHZTuZ8Gy0PGs/1aVn6C1RSephvw6EOHYagMQsvpaZMObQHxlj9f84DTbQujk6Rso/RoeZitOXgNs6RkakTo6pXYDYz8Hf3CgMC2l1YY3iaZjj+aHPvQ5PfEZr9DNt98Wh8QyR5ny9tCdOPOfqbtZHR6b8kQBwkp1E1IiUxdMibiOZlRpTNxjIEN95hvg2a4BVNbC9qsgp0Oa/mHP4fiwy71rp9rvvF39+/eGpFxUAu8Ix7vmTDv4MSRFlyuAm6jsx5QS0ipSI2nvOdARJycOijMqLWUX12h6zLKiAdNs1qrVS1Qzf5GOvfhFKm1s0ZjV7AtfeKme9uwLrWQXWdKctLE0b8P3gzggI7bDkdeUJBkPO9yPIh0uCIb6PNvzIMMz+zFOD5FNmjsYlK3oJXp4ZXpQqIw/WSUWrrNwWQrR6XHO8PDQuGYf5RTxJKeJeKmHUG7CJo1sn1hc+y9RwTU7YlNKFokjmfiEZ8wdpgWk6HBu9Gn1m7DpuUMp8zzSTVI99D6/xEO5sRkUwjNGpcSVAAHbMW9auJXRwbaW3HFV8CKueS2LVcJcmh/mYFrYF7xACsmPGR+RRNLcIt9lRioZMhDmxsY0ODikwd4B5QxsfDJVvQZGS1CpHNmhrQAiG5V5p9rgZylo8elnavEZZ+q+e2/XT3/y37rlhmvjmyKxD5VHDqPMDwko2yaTEW0higgPCvUSKi9g5zqpZOErpL+DwJjmddMAi2F+GQkxdg1EfSbgTDx3e3P5ORSj49671HHXrRrevy9JhiQbYe0CAM2jaRapDF4hrfmPuVkGXr46WFpSZtY7b24vHJDb2d0X77IYim1XaJx8V5WofzAnPuM86jvHnP88bbrym+rYv0XPftkrddk73hZ7TAFAJMUx9nDajFFfsW8TYLSdqdPBpNkce2yQ+W6mwLRC5mYD5KNBszvKQ9PDy2MGVhmlDvmb42cUixCRhF2z+HKkVAmLCUA4As1+5nDWZk+ERJhc6d8BabiZmz82bBdCHEKRNjZg5wYZ84gAojtETMIjHdpO81YOfVg+Z4PUTIaOSAfTx5UFzezoxL6i/kI9tN/hdRlp2e9w/8MuZ+LkxnhlbTq01W00OnHwwr/uZMwlRme3//goh0GMWSActslpeCBnCTGnnu7hOGYsnRjNa4B894RaBgwPfhyqqqlJS49dqxe95k/0urf/RbxIwMpsx/5duvP6X2jrnTera88uq+iWTKMiC7m0ldVJ2IVKpu3BheALdeL6SepweXp/mXnCyjRgYZDqE3AmO9VnAURtqEf2kkZYx5cfHtTeO27Vlmt+rn23Xq+JwZ6YwjHyBZ+KDG7wLCEg5eUe2YP/qU0FaJsXxZZGkTTJMR/lMlyqv3NvYTPOZLzRMj1oMB2SGupqVNdYr6GxKW25/ddaceoT9efv+rDe8I7LHNJqskEw5hFjwBpX3kAYEqPBMJ3cg5kOVRpWwa3Z+sNjgUJSjEootMzMThX/WKSUr0KTTHTIxYMJaTEzMyAw65lUZppx8qQJpXRoOlmKtqMiD0//0MSzqwKGHXZ3FhFXWCk+LAxph39mwp9YUiPKYiTLGDod+Xc/ic6HJBjzTkgc0dFmqVtZhLOIq8LddPHQOT6E4rlCJrDjKTMXOzMZwfcgW5l/lqeZvJmygWX2PZ4dLqvVRBEdF4nHkgYLLHS6eJtlTGNjoxody2nQYDhiCXIkNxavVQ4ZGPd19bjI5DYDxW4b1GVAkdYwqap5C3TSOY/TG973Ia3deIp2d4+4fHwy1mkZeHn7g49R9Xfs164tm7Rn21Z17tujXP+A88J79Y4mI+eXfLsaoj6yVeWYykAVNiDy+dmaGg5/qDQwAnQsnCQwDCnRxtUXUmM2fzhigD+we4ceuOka3XH593Tvz3+o7j3bgxcxPwmgUStWkxOfbUfjSaCfphjIKDy0bRNvUyFFu9EBZG40DuGByCDWZ38kRQ7TZa8iSm9ZXbHGRvIqr6nT8y4+Ty959Z9q7THL9KxLnqjyyooEdhkg2qTzJRMgIjHyllO8WWY73tCK/Cl2DMxuB482BUbMBsCZTn+UM0l6meF0kd8HUbjMzKYkx0T75Te54xf7oOvgb6KMJ7PD8pfFB83cK7AUK/E0eSTnQffBO9h4JOCNewU75CMCFSIvZCNd8mMDoND5QrKIjsVAl+LM4jr4vZlIJggrDQK/G81uH7gCnOFEwXuGV4XrQnIPSbOfy8LOxOuyjNU2aLqiMoGUQXBizCCH9DFhwLL6N2xwGjZw4R4Ztvo8Ohrvf2/fl30HhY8koT5jc8gprcIdvalZFz7nQr38L/9G3ePlun5Lh66++gakheAZeZmeKnZ66dQYrsesho9YLe/avV37HrhLvVvuVb5jjzTYrZKxIZVO5tPCBuDm/AN4SO28OVVdVa5agyKmxm7mC2Ou12WEeDe+q7NLD2zaou9//4d6//vep//41If17f/4N133o2/qwKb7LCWmd/JjS1lpfHk5eORK939hEHTeCWOkMh8tDVpLIAVeAMKRTv1JGiKfaeWbMwiVQChb2oHCCg8eNWzw55DYmmK1ecB41jveq+e+7s266Ikn6ennn6hX/a+Xu0wVM/ElUOT1RwMi0ny8Cul68v34sJptpj3Sa6yFBRgDMHnOzCNHvz3uyAPvPvf09OhjH/uYTj/99Eft3eeYH2KSfGQk3LyneGQ62L0Ougr0II+DxK2s88e7uPGXyJf8FmyHyxyFEPw+iBP2BAwzf1zJXXimEEdSE3Cn+KMRJsfMNY2RNNNXAxlt7ReG6+x97iwcMcXjkR7+1BPtPyQN5t8KHYxOUggVZaZL82ocb4NEeBs06oP7Em3iH3eKOxGJzso3PuTPbvLI+79j+UkNFt77zdmNH50Bnqd4yEMhqhm/ZGfuKF/BDyIX5BF1kYNd+V7zWPteDXXuNzAOK5ezGR0ONbm7p0P9uX7l7O440Kn2dg7O6FbXMBJiRpwTmLUrl9nSzTNe/Gw97Y+era99/Rtq7y/XwsdfrK4vvE8vec4JsXm80mpoS02D6mtrVFHbKJUbLpB2LJHyHRYZlONwW0tk4xwLZn4APMP5Ef3nT67V7sG85rUt0bzWZs1raVZrU10c6QX45Kzyt3f1a8/+du3fvVMdlvw4h6BnqNcRpHnPVStX6HnPeaYaa+vVZBBtqKlVtSU1Xs3jW9QVpQZGFkcKdW+XGed68eBB9QcvXQ8MNenQjDTdwBFmzMXCZfrdGH1vivnAabX3Deqf3/2PKplsUHlzncFsLL6MSHp/8oHP6cJzjldbQ6n2DfTNtG+SCVNoPalNJs2FqZt4waGkNPZD4o59kYjDztPo0ICqq6stSbOQlPYGPxL0Ox8dlpmMjvTwI0lZ+jBw1KM8wPjb6P82h0m1PfzpDAoeXPYHp5MkgAg3YxduPUxK3T5rSAevoQwouBcgESYlkOUNsIi06Qx2J9Xr4H0ogSrqkk2gqeMs2BkRb4o/XaXfZM/EdDD4DGVhslukW8hSAWBN5Cm5TAW/mUgP0uw8QwfjSnxG8o1VdJsFK1epddESg/BoOkDEbSXnDh7zVuNT7mCjmp6Y1sDAkLoPAUQkxEMH2pPOONZSULv+7r3v1e0//JkWnvkU7bjhWs1vYdMx0gzcj8PJjH1TMWCP5wZjK0upJatS5vCc0eKy0uAxB2tZCY5V8SKD0mh/t26/7qf62bc/ry9/5v36yHveob95++v1pte/Wm+x+Zu3/i99/F/eqf/+z4/ohl/8t7ZvukM97TtmABF6wtlnqqGq3kBaE6p3WUVVvAdfUWbbiTMwM9jBwlI3bKTC+OKgecZAGHvgs/p2GLLMsWrUHG0HKY22xk4leC0DbHl5perrWzR/3WLV1deotqI0PqZWVF6qc49fqobqIu01INIG+MsGdBZRAFgWtpKx2hyHsRB/GuwZ4CMsAoDdY6MjM0AY9U4eHmVy+zVT6U0FipFlln00KGNG6tgW3SsqAhgfFj3MbMLqQ9hNAyn4zNRDwXEw3MyNGZu/aGgFv4NhDyPfmJ21B7HT15lXst288JsJVwCruM7SSjmOjgC/fBGSHg2qAIjczxoqlKnMRkNQMu5lSaRYC2kQJC74gbJwMx4zRPis8fKbxZPZyTPlBaKz0cJmP5Px+uBDNEbKBgylsNh0bsAwey0TiXHx6lXacMqZEZiv+o1ZbeY0pDygZdV1IDeqnl6DI5HOEKdEQ8RabnBdouXHNunGdpdnX7dWv+H92rRjr2q23qzh/fe7jKihnI5t6ckdetyRwcciPoJvKYcV3kmnxUk5zHWypaXUIjgfq8IAqixwHUrZdfqAWQLqh6aTTzhBSxYtsxRVGZ9lLS+rjLdbKkosJRoYedslLcyYv0h9LKDYjrM/nQfyiF8sUJk/3OPNHwzSYhing3TI/CWwTkOqbm7VF395jVpWrtUFf/J6LTr5HJXztcD6Vu3vtURuKT1Al/B+lnjiNCbzAmEmqc0ApA1Aab9Qq+EZNiCJDXAaFGMRsND3Hw3K2mVGkYs0ItLYGXEODXC0iHSjI5hBjByoEQ9LWiS71OyhPeCIdDjLf1NJD2XDwciT94N/H0R+5EEDS3YZqJLs2V4zZDeX4VWIPppgZCoBYvJJbi4T//wMtwrPJzAMR0iIM9fp5xA63OfgNREeJK5m8zHlIoWJbGEnK+wjtid7HQxz6P3sKgDSiB9bUgwuvJed3iNP7aNt2TKddcFFqmtq1JglIyRHJKCREYPiYE4Dk8wfZsTBqQG1YTMLd+IpK7Q3X6mBzZvUdtGfqKOoRpN3X+uQ7eo3WDEkMSeHFBad1enG42Yw/SWKRbeJjm4QdFvlPMck2aZ5vbKSw7malW7IhtOtH3ruvL6uXmefcbbV9nrVWG1laxVvuKAus4odwOz6DCnRyQRI0Y+dRBESI35kEj/Az4DIYgtvtqR26SejTfBMLMvEohbbg2qbmnXihlV627/8q/qGhrT5/ntV2rpQ//Sxf9H6tctCcmdghogpm+4B7PhoF9IhJuYSQ1KcZZyfmFe0PZYbdlk4aCKBYoYBR5sO76fRvmdn5EEd+SgReYAxMf9gRmEAxgfT/x3TKFUq2ZHLl7Eg40V01nDyk/kV/Avu7DezA5CwH8TDwjX3uec0sLJQhMcdfrgdLsWRpMWgQtyRPZuwCu6QFOLaF36AvhrPER+ASJwRefKMqMNV+EmPHSQubIj+cIpws24Ugqa8ZLZNsg4GPLyxx9Usvxm+28LQoXnDI6RES4hpjx4r6ywkMWVQrNYFbXrGC/5YazacEJ2SldHc2HgcmHuQkBABIOJH8ivWqhNXqaK5Stvv2a7G+Ss03rhAo9/7sJaNHdD+LXcYfKwyo2KaUcwbsoI6MjZqqcZSFuc2AjQFkC1lHowOHX+mAAeenYrj41K6cccEp7IDXInj0FOtM6IfnPeE87RowcL4nABlrqqsjn2NZUiHMY9oPphH8C224BTSj3ZAe/Az4eEk4/AHIi5UPODJAbxId8AqkmK6hfJdpKq6hmhTO/d3qqWxQS946Uv0le99UcdsWJ0AMdKNqGKgpW1NoR7bBiAdbdghYSMtmn+xCl1QqWN12jbzsfTz2erzo0GHpxugmHWaYPCjlDGItGcDIyr08CHzQkemh5NlmiCGip9Ns68ydxZfAprk5m5qdsn1mxKd4aHtAKMCzXLOUOZ18F4CTCjzmp1U5sTP7XOmgZLmIfHjdsNMB7yiKtnGc3YYiAjDO90Lu0C4Ir34KRDpZc74daiCR3DI7rD9x/9syvKZUeY6pM0VwgQgYgBD3skNadFSYtYp6fO2a2pq9IIXvVSX/NGrxAFWY8N5DbqzJQIEY2OJTQJGNrAfd/xiXbu9U2WWJkvqitX9uVerqnOvqkd3aVNvQ7Q/tkHRmSenxi3Z0H/zKja4aMp8xqZTu0ExlwhwxoZqx53YwUnqE6qrrnOaUKY2+5mZ/LDIceSPnS5ftlonHX+SamtrVc1iT5nVZfqEATgtilH4pPIGONqOgTTAGiC3ZeApQQq0ig9IkmcWVqamXSaHoW4DzPxMTAuYl+xR9K8aGhsDcJ948lo974UX6nVveKkl1MRz2pxji3Z1EBCdjCO0MwmmjptBajwA0hKjeRXGAUN6tF/RyJAqKwz4BUB8NEFxdh+FYF9kKCMCPFqZi4pxXmAUoMhJvEiLD55fTPmLig3Xb6eDJTyUDnmeCo9K958d2R+d0E3ef7PokAfTBSpLUME+nNnBVv/M9j80BNeZT0otpVpwp8wVbN8Jk+7yHH/xsShaZrRO3G6xkV4hXh6YTfaONGfZsykuD/M7hMhDsgodpmD4CTvls3BVsE2znBlFWP/RyZPaXJokRQABQHSvjD15fjY2iEd4Q479zj7zLL33Xz+ldSc9ThOjgAPEN0FYcQaUEjA1txZr75jhs2+vRgd2aNd1V2l8uEgrFi1Tx+69DsHH+MsCQCh3nCI+mtNUPm+V0IBingIk47aLDBTIWqSG36TDAgIMRryJ01pfHXlNAAgoQ+yTzPL3YGpoaNTznvMcNTe0WG2uiOPR4sBiq8yo5QEi9gO4Y2FkZqhP226irrM6D0MQh+GW8xUfp3fZWIlOzSK17+h3BvXi0nLVWTocHR9TeXlOrY20fNJA2sRO8QKIlDV2SdgrGScSiEy+Uo9Dajz4ITnCT6pqJKdqzm8sSImU5WAbOfp0eNqR88PnFA/vzEeTSJ8KgmEs0QOMnIU3ODhYCHFkevg8TWWbATDTgx7NPBwpzpnLwt9sOvQqRRrgcgSCrbNZmzkzP6wIU3BH2jMFy1Iu5Mk/mUmPp4Y6k4hNNpGe7h6ZZueVx45IkbDTncnLQcoGm+BMABWSDPl6cNiMsnsp/7PC2Q3AIQ2mhZXiZOzm1KFMdcsAMUsnuYvUNn+e3v/ef9GHP/4xLVt5giNEfSWHABInwVRq+fLFaj+wQwM9HfEFPg7w0ESJmsd3aktvTs0tZXrSU14YqnrMFVrCSZBqSGAhwdfT437O7dOp+o77i/1hHoANsJAfVMf5LU1uywAz+cg+BvWb6aKnPsNq8yJVVpVHeSvc/plHLC5CUKiIskdFkQ+nG5Kj88C2HA6XCKmR+342at/FA7ZZXOHbNUZ8Y2YBzALQ6PPw02n4XnltpcoaSuO7OEjJqYU4JoeLRTvAP2wWcgpx2HCfZEkwxUeLcF7hLzwyYCK3N01Pxtc141DbAig+mlIidDjeRZvOMoT9aAIiFMy0yVRogJE9TIAi4Djh0fpw+m05zu67dAXXQaLqjlQdB+sohQgeZX4FG+bNxBiOI8UE0wsOU4r30IhmxzEraBY4iE4PZY9jz9QbPzwYhkgSIHKdQiR7Jo4s3kMSc+couA7JcFDhucO8s2iCg77gMgEVfslkNJPX2Z6zCEABBHhFMQ7rZaWZuUS7kRIDEDGOYPYcKn+ZG6qydPXi51+iH3zzS3rNn73UUg+gRHf0fXfyoZxbQWmrWuuWq7WsVUV9/TrllMfrpjvuU13zAv3FOz6oRktrMUfmtsZhttb7nD/Dojt2kXVpJLZUQKdsXiEFATSRm0I5ONm8xoDWWskK8+HfTT4ynX/uk6w2n6zyCgOT46mytFlld2lFucpsB9jAI9v0Dwdx+pbgABXXXyl16EoiH7EnEXUZMDSAkleqLwCRxByPg0UjDkC1ml67bJGWnuXBpKwAgIcYVtV5FgmT64BKuxMYhiFeU0RLPgt55QDheg8ybZas66qqQtCZDYiPNtF2MtzDHTmavcqbNa5Hk7KRIwNGRhWAkVFq//79oVLHRO3DpGgMYR8s2+wK5Bc7mYNhYA5t5xDydRY2UYGZ8ZvFmtJ7MGWjqV1hp2uend2ocByMnzwU8kfdRP34uhAgnvOPB+u4yK5nU/CSTu3ChJkduQmwwxx86rAABTo01oMU2cI2w2bUWkyBeZHvGUpDE5pWXMWDgB31zvab2YCYtuBkgEg8YccjhTQinhRZ1Fe4pGWLF+h973qzfv6T/9R5TznNkhdzeZPq2nyX+q66QXvv2Ky9m7ZrxcrjtemWq9Vf0qC/+tuPasWKZeo6sCviZvqBTxyM8BGssbFIO/Vh1677DK//MZfGmyV8pMwN1PcBLEuRlrx4jW/xsuz7JCmPD0Xr1mzQ+U98arT1ckuGNY6z2mDI9AHfwI7PRMC5AF+3ZNcx24BSF06r0PE6pYNEHgFH55FyxIEZTAeEVIeEd1DKK0X6bGpUy1mnquGYVSpymiEN+h5qb6wWFwz+maQYbWGmnWV2KmWswBe571ryrKso1bKKIi2srlBdbc0hgJipzcHrR5myPNB3oooPReuDBXw0iTxhYB7SIo0FhjKxzruS7e3t2r1rt3p7epQvvKT/ULyd7Z0BwIODps560P/BLuwws1iU3cs6+eGAdCjNhA6T3mnOOF4AtHCbCkEpUzizR03um6ZsdEsPZelmeSMIFQ0PmZ9DAkPSiBXLQmQR9OAPkcw4H0QRYXJCqJN4ZH8AN3N+NCXyTB6zEBmRnxgswivxG3L2Ip/MHVa485dbZa5EfQYQfDNrC4BSEOWKcqQ4cWQtGJYSLza3NqxcrG9/4f368fc/oWNO3KD+ScffyIDKgbIDGrf2sW9gRG9+5WUarqjX3ht/qam+OwrA4Hj4ARwm82YPKiigMCk+STtdjNRIgk7RQDbtgScduGDb+fVjOm79MqcDIKNCPzQ977kvVl1dndu527oFW3jCjh4AMQDEJeQkeF4ZLC0tT9wjXdI3yMX+P7Qo+wF4gCaR4GeXvadjBRi+sEEbjb+ktlaVp56iusedoqLqKt9H6k1vKGEetJUmyk66keXgPTwO6d22q0115aVqsmNZZZFWVRVreU2FGlgwslATgO++DCg+lgBxdp+NPB3+mt/dd9+tu+66S5s2bTpihh+J1/x+E5FhGiI2Em1m8KPCsbP7czRHc/ToUzaIAXyHm+zeowGGD/WaX1tbm04++eR4ze+aa645CIof//jHH7XvPv82ygAvA78MCGdfQ3PAOEdz9OhSSFoFk4EfYDj7GvNo0MN593kGFPv6+vTRj350BhTvvPPOx4ykOJtmgyPEdWbmaI7m6LFBGW5kADjbPJr0sCVFg990b29vSIqZ+vxYkxSPRLOBcA4Y52iOHht0JPB7tMEwo4ctKW7ZsmVmThFJ8bE2pzhHczRHc/T7oIcjKc4cHXa4lDUndc3RHM3RHwpleAdgYh703ec5mqM5mqM/JMqkxwwLLSmyvy95Hkm0nKM5mqM5+v8zzRYMcRsUi2e2tmDmgHGO5miO/pBoNubhnpEU58BwjuZojv4QabakCMVCC5RJiXPS4hzN0Rz9oRL4F6CYgeAcIM7RHM3RHxrNxjzcAYqzT8mBDhcn52iO5miO/hAoJEWQcTZSzgHiHM3RHP0hU3H2HnFGc+rzHM3RHP0h08zm7QwM5yTFOZqjOfpDpcLRZumbDpgMGA9XqedojuZojv4QCByc2ZIDzZYS5yTGOZqjOfpDokwOPAQUZ0uIc5LiHM3RHP0hEXLgjKSYnYiLRyYhzkmKczRHc/T/dzoc58DBAMXZN+YkxDmaozn6Q6Ej4V3sU8wOhJhNjxY4zs7GkfL1UES4hxv2aNFjLT9zNEdz9JuJPhuS4mwAzDryo9Gh/+Pb1+jYZ7xTQ7kxjeXHdf6l/6C3//P/Kdx9aOKzjH/02vc5/Lviuf8byufz2rp1q+6//37xeYb/V9q9e7c++9nPhj1HczRH/zMILIzN2zgy82hST9+w7t+2LyTE3Ghem3d1aM+B7sLdh6bxiUndv6NdO3Z3hvt3IcD/qquuim/UfP3rX9d3vvMdffrTn9ZXvvIVDQwMFEL97jQ+Pq7u7u6w52iO5uh/BgUo8vNoSYekt23nPn3zRzfo9nu2aWr64Ns1TfU1+tS7Xq63/OkzCj5SZ3effnDFLfrVjfdqxKB55XV3ade+TlVWlOkD73ypPv3uV6mqsjzCAo633LFZX//hr3XLnZuVH58I/8OJb9Jcf/318aH9xz/+8Xr605+uDRs2aO/evQFqEFLk9u3b49s1SJOHAx3h+Arifffdp+Hh4YJvIgB+27ZtuvfeezU4OFjwTTQ0NBTP8CzfyZmjOZqjR5dCSOQTp11dXfrEJz4x8zU/PnF6NL7m95Mrb9HTX/cx1VdXBEC2NVdr874+9d/0KdXVVKr4mD/Rk886Vj//j7drz/4unfuif9C+7mHVVJXrqaev1teuuFvvf/sf6a2vfLqKNrwi4hy547NRsFe+/ZP62s/uUEtDtfoHR3TR44/VNz/5v1VWVhrhIMDugx/8YLhf/epXx4dtMurv71dDQ4NyuZw++clPRv7Kyso0Ojqq+fPn65WvfGWEu+mmm/Tzn/88VvAJA89e9rKXaWRkRF/72tdUW1sbz3DoRlVVlf78z/884gF0v/SlL0UcPAvQXnTRRfHxnDmaozn6/dPD/nDV4dIhDx3pwd839fQN6VmXfULlBqlNl79X2674gKpLD9k2OUOTBrknv+L92tExqBu+9lfafdWH1FBZUrj7YHrv538UgPidj/yZ9lz9Yf3nP75U37vmHr3vE98ohEgE4EH19fWHACIEIELV1dW65JJLdNlll+n1r399MK6joyNAju9l/+IXv4hPJL7xjW8Ms27dOs2bNy+ehRobG/WGN7xB559/fqSHZAj96Ec/CsDkHs8BtIDr4fUxR3M0R0eXQn3mC/5Hm/bua7eKO6WPv/WZWtDaqNbmel36/CcV7h5KE1aFB4Zy+pNnnKKTNq5STXWl/vbtLy/cfTDd/8B2rVvWqudceJZV63K98DlPVFtTjT7/g1tDiswICQ0aGxt7SDBCgkNt/uIXv6jPfOYzsRBDWKS/LVu2RHxPeMITQv1GEnzOc56j0tKD0ugZZ5yhiooKLV68OK6Zp+RZpHPsr371qyEx4o/kioQ6R3M0R48OgYeBCrPPUzxakkpVVUXYW3d3Oc1wanAwSW6Hk5HbwF2suzbt0+hYPvzuvHtL2EeiqsoKhxu3hJkizo2MaXg0r+pyg/8sKRgpEAMo8p3rjAAngBBeMB+IdLds2TJdcMEFWrlyZSGUAgih2XOFhy/OZACZATBx4sc1aa9duzYMUxeAKwA6R3M0R48O0T9n9ikeTo+0Cr186UKdc9wyfeAr1+rTX/6ZPvPVK/ThL1xeuHsolVrFfunTTtGtmw7oeX/2fv39h7+qiy/7lEpLjpzHZ51/ina19+vVb/+Y/vuKW/Xad/yb8pZKP/CW5wbAZgQ4vfCFLwz729/+dqw8X3755froRz+qH/zgB7G4khHSNEDW3t5e8FGoygDbL3/5S91www361a9+FdIk84W/iUhv9erVsdCCdIn6zdYdwJHrOZqjOTo6dLgQGJIinhkAzgbCwwP/vqmstET//dm3akF9td78vq8Z6L6tl11ytqory2fyUV1ZpsryUnH1nne+XB//i+fp6jt363Pfuk63fO2dmt9Uq+rCwglhMdBzLzpLX3rPK/T1K+7Wpf/7k/rur+7Tp975Qj3tyafH/dm0cOFCvfzlL1ddXV0sLt1+++3hf/HFF2vVqlUBXsz33XbbbQGazANm0l95ebkuvfTSAEu29Vx33XVasmRJhKcMhJvNW64zifGZz3xmzD0yjwgg79+/f277zhzN0VGm2ZgHcR2rz2wpYZ9etvqM6og6efgD0O9z9RkaH5/Q4HBO1VWVBowiq67jqrH0RdJD9i8pLglVmy02V11/l55w5nGxWftDn/qa/vozV+jWb/6NTtpoqcthoexZaDg3atU4b5W0POYhfxMxhYAajdQM2GEywo/VZKRFgG1iYiLU3Iw/PMv8INdIetg8gxrOSjPPZde48YPw4zkGIOLLwHaO5miOfv/0cFaf0fYeNKd4tIktMs2N9bEgUm6wqK05CGq4s7nHy395s57y6g9r2blv0BKbv/q3K/SuP7tIxx+T5vgIO/tZCCBsbqr/rYAIAVaowkiCswERQrqrqamJOUSAC3s2c3mW+zyf+fMM4bg3+zoDRAg/nuHZOUCcozl6hOkIgDibMmEmQDFT6aAjIeljgS6+4Azd+7136a9f+wy940+frju/87f66ze+wJLkwbzP0RzN0Rw9JD2MKUHwL+YUH+n5w98XHbNuuV7/iov01j97tiXEVY9ZAJ+jOZqj/3mUra9YSDxU0vqfApBzNEdzNEe/bwL/HvRGyxzN0RzN0R8yxT7FOTV0juZojv4Q6UhCYejO3MhuzgHkHM3RHP2h0OF4F0Li4fsUOcaKU3KO1j7FI1EG0OwHnIpX9R4NFR8JuuCM7eNHIg8mycp+HqM0uywPTQ8qwSEeh9+dHeGRyl64T8Izo3HmZzPjNTue35EiXpuI4wjxzE7n4RDxHSk/mdfsuLK4D0mj4HGIn6ngVXSIJ9f4huNQKgSbzuLJ7KDDIn4QJQEn9SHf/227Mx4Uv+nw69+ZfsPD2S2nUVrCW2JHT1N9OPsUr7nmGhVt2bJlGqDj6DAOL8iODns0QJE9QgDh3fdu0ue//F3ds3lXXFPBVC38TDA05f90dWjDSByfcvhJzmacPPj6Iq8EFhU5Fpep1I8UubHwlmBxMe9DO4D9KW6Zrysqy1VTUxen59Q2NKqiulblldUqLStXkR+acrz5sTGN5IY1NNivwf4+DQ8NaHxkTJMTeed3yjmcUpGTJ+8P7gymaKt2RQPGTcn853KRbXgxNTVpt82sckBFpaVRhvSWo3+c8VgwcwPjurSkOO2nLKtQZVWF6muqVW271uWqrihTqcOWlhY7ZFGcQDQyNq6+eD98wnwrcRnT3krKMjlOmcadoUlSCuOHVVJiXji9CT+f9/P5/JhGR8dcX2OxIX9f/bEaqFotNbRKu+6R6ttcROeRosxfKfW18wK8tHCZ1Gi7qpQNn9IYe2YdaNhpVpclPxId9fWEGVXuOEoc1nnVA1ul9k2Ob4202vFUlztvNjCGymTr54jDwWDay4jjgO+cxgS/Cu/GR3zbdkvdXdLyVc6z89NSIW3p9XVzCl9h0zPm9OxXV+1810pddi9qlDpGnTfHs8/XK1zeZseXo6COv9b5GJzQm5bnddZ4p1ngunI7LC4rtW1e+3o6NcTUSsgTDrehSfslocA0OWm+TtrbJhrMlB9xOmVlLipnotp/clrjY6Pae8/d+tW3vqQ9EzXqedOH1ef0RuHbiJ8bdb7KzWO2y/bBJ9vNvrfHBWiwPe4wNfbrsV1kQ9sbt6mEnzY5+5Xb0NbIG+H9T37deJKdL/AcN/Fzlin1NZKXhnKOY9B9Y0rzF87T/7p4rZ579tJ4k402/EgC5P8VKD4ab7RAAAAbyH925bX67H99S3fdv7UAFBnNzgfMjlqYuQxykEn7Z8CSGk5GRe5LDoAxYNAeigx+JS4f4Ej/cGEjXGWpQdGdtaGhzqZR9Y0tqqqrt1+tyipcce6khJyYnNBobkSDg33q6exSX0+nhgYGNDE6khpolr7LBvFMUEommSyLDjLtnyk8nPcJGqIbmOVkjZsvk7NPE/dzZSXuCM4z+Q8P/8d+TcpiDCl1ZykrLYu3ZNi43lBb635scKziJB/fMx9KYoBwe3X8w26svcNjyrmBTxUb7AwsZH8yP6L8yJDG86PucBPRHkoMIOXmT2VljYrLK6PuRoaHzId+jQylsEM1zbp7zGBxzLMNItulXgPggo0GkZ3S4hOcQUBtyIkPSutPdGutN6ABfs5TnoRd3iEDUK1rqshhKaYHx+CXQT0qjOud3dId19qvTlq3wfE0+RkDWoWfoa7h4wS8tKEecgZF1390ZnA/OrZNlS/u2yHxzvrG4xMYL3We7nRbX+04eX0UUBn087sMnDB5rf33AaIGwQ7ndcr3e1ymZgNmswEVEAWEWpzOQF4fWTGqUwbazTMPaEhIZSWaMi8ZMEsiH9S+QZA6NZhMG5DYRjxVqPtJlyPagcNNuS6mHa6Ylwx4GSAAya3FoAko9ro9Xvedr+nm9mHdufIclTzruW5OHsB6R41XzhM8rXAZyt3+zbpVFdPade+4xpscFwTo7XdaJQU+wcMy54vb/Txv4yjiGlDE4Jd3OCQB0iBPBnCRfe6NGhBz5lO3eWQBwp4eKJ34wibNW1KnPz6+UX955mK11FW5jZHo758eLii65o5MjyRizyY61dDwsP7lQ5/WZe94j+68Z5M7IJVfMAaYB5m454bjRjIFaBSAAzdS3HQBVGYMvQnrEMKjsHs9u1cospsiDIhL2ECYIlcsPGE0o9Iq3CCrDDI1VelNlgreVnEjzzaT81wYd8KIlh/qOiLDI90Pt/1ILZ6c8UPCLNCMw97xkKMKq+CO30TEQj65Q8qExyCRJP/CNQGMfNmABMsyNmAD6kiB49wnnD0xCXjLVWLJuaK6xoOFJWiDb3GUnfslITFr3Al0GVTKGgwqlqp4dr6lOSKhw9QYdAYNao5fBoqQCD0gBfjAQ9wB3I6nzDZgmBJItiXakOiWWEoccSfrpbM53ShIIbMALM8DWJbKxNtRSIXETXqAG3FNEsaGMAarkGixAQU6OJIiuixgW+58IDkjPZHOhP0jHspgQzzUSJwNajNukytR33SZKj1AcYJTOVKR4ylxGiXOS9SRbU6Col5LfV3qspeaT6WuN8cadVdKGMeLzSEppcRhXhEm+qvzQz/onSzVxB+9WfmnvVItd1yhiR99VWN336X8lnt1/PJqFS033+YZUBtKzcZSdZiXpS5K8Lva8cATjznBJ84tDZ5QTvsTboxyc9/XGOqMFgc/4DmXBugIG3y0gW8YBpioX9vUh+uws3ZaH7JUfuHXN+nmHT0z2uGjQdHHcdAxHg2iM+ZGRvS/3/FP+sLXflAAMefFBnALN6MUI2SMkti+LvTQ8ZCtYjwNg4QYUgbA6bvJcD2bwX7e5Co8SHGRQIiQ0W+dNqrlpEfgCUCDkdiVFaO0/VGRU0O15OTKrrBqzSuLNHIkgdRYbRwGPxozkt1sQ2fI1OBi/3BNJ87sqCDcUUuJMpyYIe4hafifzoPUkS4Nib6HOxmn5TRo77xPnvanUtCk3qd7qHN+ziwKaZd2McM7IiFCq31u0EWWVrlGYokQTqQIYLTk0jPlTjflBl9vKarf0lTNAj/uUE1LLF1ZlW62FMkhvqhVwyMpXjIGOAIwZLiGVy3tpoB0SNoGnTTu24/OVuM05lstL7d0hvTBsXKohwAZTQBGVTrOTDWvQr22H4eIRCe3geioxOeBKPIQkpfv0VTytB/bdP6Iw2EBBPjBtf/hSaQFaNL2ON1uzOGRQKvsb/W0yMBe5nSKzZ8SVGeXIbUBR+Ef8Jf5NdoMUnyx+YEcGVKk64Z2RhsBEJEyAcQi3I4j6svtdWBgUPd3j2v7ko2aqG3RcRs3qu5lb1fLvbdo0Vf+SXWf/RvtGBl1UZ03GgeZ94BRYZ5MUz4AHn94A6ghTeIPv2PQsM01UxxjThQwrLRh0CJOwjHNgUQe7cX8wC8GG7vREKg/iCPyatxOaszPQhq3D+X17O9u1127egMbHi1gPOLJ29Dh/r/vDALEnArzyc98UVf9+rbkSQMg+QIvDyH7zQaH1GJT8Gj/XBQnvwfTg/NOMVNZ/Uw87MaF5XIiGY1bGkjzhiPKDQ8qNzSsYauJo7nhmEscy+U0aVVlYhzVySO6O32ZG1eFK7/SDb/akmSlG26VVe4wVkkrDZzM86Halvu6zKaklIMgytyukgRKgy2zXQpwOX/4l+N22YnfrkJO3XFs0bEoTFjR3rjrv5A0o0RRPuICqEk7JA67Y27LBgmFfFc5v5Vxn46J5ALAJ+k3gN7hQrIhYfOIgYuBA6Izp7jLNFBmMJwatVq5yx3NoLditQFyntVIq8v5PrstOVa6Q3iA0UC/beJw5qlIOhjgRadBGoMAn5zDIlkAXnhTNDoZKliTgZEBs73HndX1ASiGhOewAJjBJMAQJqFukh4GEMPQoSGYzDPVTgfVl4SQeIcdN5ekWe1840YiksMNOQzzZcSNpOiOrTFfo0ryfK/jHCnRpPNe5jKXOM9I7fCLei11kMmo08TDYpcfAGVwmnK+mN+lLZQb+agP6hQpscR8LnIdTXtgGR3Kae/W3bqrqEWT6zdq2JJfrQeDtgZLpk2Nal7aMz0AAO/fSURBVHr+G9S74Bjnr1KDFVUuklMD4FxU1OJud65RBgH4BK/hA8AYRcDP14AZ55ECbmBBSA7wy4a4ol4clk4a86l280wAov2ID+K58krXpQ1THdGpuWfjeNrN12d9bXscEgMwPhrkvmI2w6TfQg8nzO9CgOIdd9+nf/vy98zjjCk2VAqMigY6ywTzbKLiPLI5rJtF/NFUgAA3qRRPGNwZcZ1+eQZi7jEad4RLUiKuaAeWCFk0yLlihgYHNNDXr/7eHg32dKu/u8u2TW+3+3O3RiyhTIxxQs9kgEq11egaj4DVNdWqq6lRrU1dbbX7LrZNXZUxoeCHqal0GIe3KlpTVWXDoghzfxVhs+hTaYCodocqd2NiXrPcHZnPOITE4U4MiCGlhgo705HMDReI9krZov7sDnUMA8DZAHblBuqqSAPboG5pqdIdoMIAwgEWhCEe+IswFdLQlDv+5LhKDEYAN9MJlX4+V1xrQcKNvdzAN2KQallhqdCqcoWlud690kLm7NwhkOAYUAYdJtRVm1CjbUgMsKWuoyP6eszSR3RY+9FJ8aOD1hmY5s93fAZH1PEBgzEgRUVSwYTPJFDaESBI/OZ7pAuTkHgA2Jn2Z5sOiQTpdhBh6J/ERb7hQc7p1APczhdaDOGRrMgTeSXfTre6dlLP23SFlv/kh9p59c3qvHOTBvd1OwsAoSV086yCOjP/wJoigzkDXdShgca+bt9p0DUERhaLAF2HnR7Nu8h9emBXl3YuOU6V5sOWgQTQgx5E7mof0AmLWlTR1qqheR6YjMA1HOScd94oe4yizoWL4tbg++SfstpkjQd+AHYVNgwszJVyzSAFT6LeCMs9l50BDYNkD1/gxbAHCvhDeOqAOmaAQxuo8XPD9kNKJV3bezwI/dlXt1rwZ9ESZh89ApecC/NnVsJHKxMco/XJ//imme+R06MeKlky5QcNKhqVYhMronQGbBoUDSkzbqysCoca4utQDamkGAqRemxhgpIjCh6tO1EEj1tIP5Mad/6GrdpzEOzQQJ+GDYADPZ02HQbGdg10d7hBdtm/R+O5IRUbSCuct1jlNSAG4Bn8Gg2GjZZmGmwaDQ5N9Q1qamxQM24b7Garks2NtXHd2FDnMLXxTGOdn7NpwsavttYgaqCt5sTwygBNQLiyojKAjVOGyiyNloeqRdlTWZlkYNWSCs9WM9Mvgwv8QgosAKp5GHOqTA+gRmJMtIspA+HkVF5TBrOp8ZyllDGrbhPRYSvcoQDF3WUGQYOlxWlpwUpp2XpXNoBhEMpbUqxrsrEb1XmczmLQoYIAJeyQQJwgIOYBIUDGQaPD4c8AGh3Xbjo1Kpp5EhJjqH1OG6mRsHRe2gJSI7wgDjprrTskcZNezHHZP1DfJoDZNiultc4nHdvBkqRjU2h/Yt502LxxO1HOZsBm2Bll7rPXZR+c0JIt9+s1X32/njGyQy1NDRo1H3IeYAf37lPn/Vs96HLcnGM175ACS5y/kBTtGYOd0+MvzfehapMHF8F1jHS4f/c+3Z0rUdeaEzRYWWPhtUit1aUu/pS12CmdtrTJuO144AOPjk2rqnu3Adj5B+QoB+WxCj01o+raH6mR+kD6iwcxhLVhQQyVF1DMF+IAKOEfAwZ85VlAbtS8YyChH4bEaOM+HgOShYOYr6QOxmxYyIFobi7vN3bkdN++waMOimDHIYfMHk3avmuvrr31PtcJKpdVyHIbSyulHjFLmci3PypCqJi+LvU1IFlSbMNIg6FCsop1JypyxaY5PTo3/pjUsAIFqYAZsjsuqQWAwL9xXRQgAoBMWIVmNTVvNTlvgBwbGdKYVen8UL9GDJS5wT67ByzwjFh4YnWWuTmrRc4PwFTmDsZZjlUuG1JYrUGs1mCGdJikx2qDXgE46xIQZgDYFCAKULIKjqlXfSPbhOosbSJx1jqOWsdXW5AuLW1amkQ9L3enCSnSeQEfJsYn3SEt/XrUHhnLK2fDNpwR+48ZzMcmppS3nTegRHlHcy6TTX4kbbExH5hXDX6MjmjUgDc2MuxwSMnDZmHe/JvUvpEiHRh2XQAgjkdFBh+rb0KSptFTZ3wgjA7Y7+cMrEbWQh36Ps8hSSBlZdoB9wCoEsdFfdKxMmBCcuE5OhnASG/qH0rzWrjpT7EoYAMwxKKIDcAXWE8cxEdwhwEwI3770+mbHWefwQ9VG3WYVVaeA0hZaaZM+A84zP6+tNjj68rBYZ13/X/rZb/8uBaWjKv9QIfuu/wXGrNUXLtwvmoam1VuIOq4804d2L7b447bn9tbidNnV0SR81fiawSBSRdi2mXFn76az42pa0+HHujM6QFLh51LVqkTUDHvxhzPToNzpRvyyvk1ZhNzvsWqCgnPIGTQHSmr0jTX8MFsCJ4DaPAEnmIARWz4k/EayRIDoDYyqJkXDAoMWMRHfcFj+Me8KwMQYfpCDHU4GGeCd43WHBrNW8ISN/yPzmhDHWDs/s69fdEPjyaFpDgbEHEfLYC8+fb7SDBGRPbdAYAhrbiCWJRg9Ez7ClHaACoEfJhY5DqDy84nFTvb0EFo0K7IsqxT2cQcWDyRbILQuon3cEKt9khhBwsNgGOSsqanxi05uQVM5sW+PQwS0wR7+SwZTViiSoMaMfAXOQyb7RUhgdkjm08if+UuI9JdBeDpEbbKI22VJY1qDw6Vvq4JFRrV2mCKWm5QRTXnIN0AwmrftwpSZTCs8HMljifmA13AtOXGUEVHslSWs6rVa9Wpa2BIXX0j6rG7x+6+gZz78rD6LHkwjzPC3KkHgJg3NZhN5F1Oym9QZJFpHBD1IDDqwWHUUnTeAAlQxndtRqzGjroToBYv32iAsGrcbfBjKwYSIKvQy9t83w3dA40mR9xZDHhwiXYHs6gc5vHoGJQBptGxUFWpTzogZJ4GuCKN1CN52HgAjbTZJ0cnBBwzCSTahW1UXOLFn7iRavxILNbEfXdagJItJNxjsY6FBZ4JYJyMxZKyLTtV3j6spn17tWBgvxbvvU3Lbr9Sp17/Pf3pzv/QE3K3qqi6Xlt379S0ebbo+ONVvWSlhhxHV4c1DLej1pVrVJTLaceNN2vYPJp0mUcsPU64TBO5EfPVfk7b8rhGRifU09Gje/ZaXW5Zre5VG9U9VaJ9A+MeWMs1Yv5et69fy+2ecPsfc1y7B/PqGZ3y4GzeVRiEPAgPL1uq6egANpQJoAMEkfaQwAMAfZsVe/oTA0pMMxT4hh+ABzB2u/541tWjKt+L+nE4JMBQo+Gtn2eA4XmkRGtEanBeAFvS5BkWa0iXeqcuSMdp/PuWkaMCiodjILk6JOGjJa7u8ejJ3AlbD0LyCxXGjILpJkZOVnhZAZ1wLZHHcXfKmHxlPos8z2QbpvpZS5ERRxQyFY55mAz7spIxOKZnbBG8cIntS1N6PrmYy/HtALWkaoab8BGERhM7zMIdeIq3rwNMnd9JdwqkLfI/gTSGQfqy/6TBFnU9VrQBYJeZzef0+SlnNMXldJ0WIF5sv5SXogC++KPozhAmJGSHjeccHx0t5/T4eBdfROzqz6mzf0DtPYN2D9s9nMBxcMj3hzWAROyOOmqQAwAnY/7QeaOwMQdl6cNFHXe8Y1Z/c5YqRw2S+y019OfdEaYt/VkS0rpzpQO7HdA9ptz1wqPzFrhDuDMN2i9HvPZjEzcVQgHprCFR2p+OR+fqd1j8kT7wBxR5DsCyMy5Q2ViYaWBTIPG69Ki0mUREpbASHGBAJL7GD0mFTs9KKxJPseMBUCEPFqjAq4f7dEpPr87ZuUkvuedq/e3m7+ijo5frP07p1ud0hT5adYf+tuoGvbz0Ol1ac4ue3bTN2FNkMPJA4UFlw/p1WnjSSQamGu267Q7d+r1vabir3eNFjzofeMDq9IA1gAZ13HGbdt7zgLq7BnRgT6d6rIr3dQ9qb09Ot+0Z0XUD5bqmdrXuX3SsRqwqx0ZuS7Anz6vSYO+omlymC1Y3uQ2UWLv1YOuyLrKaW2PJrs+DQ0yFtC6XFllKC8CzGXP5B80f5vRgC1Jgua9RkbmOxSZfI7nDc+oGU+vrFgMbm+HNpqgL7tfAX9+nnVDnHtBV43tIjFFZNoAo8TE4IVlSR5n6jYAPMTBVl+qAq6UTwH2EaTbm4aYU0ZmONo1Zooh0DYjMf8WcSuQjnX4LgIxbisDwVkW+IJUFuLhBsH9uIsCkUKCiJGWyUpdJHYbSUD+mkDpMTFhDvmvDL2SAid94pHCzIOvZTdtBcs1UYlZpY4+i1WKkOVaYK/FzOZL0V+S+VpjfdD5CSiRd53XKEmVIlRgDCvOWSFgzxuA1Zqku77KjzqKuxjYgANQdgA3jkx4QANOIA5U21FrzCvD1swwahGVVeAqAhQdOe9ThRyz1DY2Mqt9SSL+Br8+S4aAlvUFW2JEOXSd8kiFPek6HeqAvAYRpQEiGBoy3FTyHm7ZANqk7h91JDPAxn7jiGKuXXe4UdQZHq8sT7his0LStoNU5nJ9GasDu25eACGBkQERaocPQcdj2wdxdPfNP9gfEooJMdC7mKum94BjqX507PPGibpsPIUUShmCZ4fnYbGybqNg+wiDL9h5aAgs1w5a++jr13s1f00eOb9cHV+7Qe48b0hvPa9Ezzj1OJ516nBasXq2ShkZt2b1Dm7ferbrmJi1fd7zK69uiXa5es0rHn/sEtW08SaVW23fecYv27rhHx556ppatWqXl69fbHKv5rW0abO92nTn5vKX0vTu0c3BSd5U26+aaZdqyaI36rCKPtszXkCXDCqufSDPDBrZeS513dgypyH7TNl0GsXFL4d0u/4TLws6BJvOs021reqBHU09+hmrGzSf4TPkBpQwg6+0f84w28B5iexPX/o/wGSjydkstA4jve+BIA4+fQVoE5JAWkQR9abUmhUVyj7bj+3ZGpDwXtv1DO/AlaQPO+Duf4wGoR4+ijePIkBL7aKnPgBmDA5INq5uYBM4JFAEQGjbSCtIVKggSFyZAwoaNqvH2B/n2X7Y9BX5GGjO/1EJSaSnxbEDMAhPDrMvgQ1zCJFceamm5K4zX5Gqt1vKmSL1VWF6hq69lRbnSmgFvj1RbO6hSXQ2qrtVeSzxVqMdunCxGAJwlBaAsKpqMETxG8QAgtwrUdoMf6joGoJl2p8UdCx0GvuAFUqdBLgGq+ZEfM8gaVA1qrNrBs3jVsdCmGDvGfc1gM2a+5Q1EKbzDjnmgIQ4/E4BLD3UjjqmD9HiBCgwq8AZMo+kMjBerXwYkFk+YP1y42sBiUFxmcNzdR0g3dEuIzNHx2h3qKJ0GCWO402nZj45qr5k0ULGJjwENVYyOa6+oXyoRkEUtZ/UZP+Ji8r7M6biMkTHipaNRihg8C2nQQbk/YhuJctDxAI6kt7dXRXv7dfH+H+qYecVqWrFUjYsXqhIptKLag8eEOrfu1vWX/0i/+ul3zLshbTjt8WpsW67uvj7lBw7opDPO0vJTzlRNXZMmevu09/67tL9zlzae8Dg1traqsaVVNbX1sZm7sW2ewXGtFi5cLDcHTY8Mq7nnfrXs2ayS4SHjMwA4qSG388rqCjW4/U2YV7st9a+0qryyuVaLGspjjGgwj5g6aasuV7VZ1D3mvHpg6ezsUsm8ZjU+82mxEBz8Agx5CL6jsjIo4c+122jwOurKNrxHggw12oaOW2d+ox4Txv/x7IT9G+yH2/8BjgAc84jECwhmKnrUN+FsqBriIN0AU/sBrtm9R5AO14xnJMUMCLGzQI84ODr6UAeRQKIy3dGC4b7nzpvm81wzgB6qGkBpk8dMu0MbIPDjfU8IPsZcpOOI+bQZKhQys6nsB3Haz8RvRuk91FSP2R49S4K2Y6N2ZaXB0aAXiybVBsPCQkkdK8aFhRP7NQRYApy2WVxxo65xA6l1J6+prIi9jDGHyFYeAydfJqw2eAKilahA7uhs2mVjdWg2LmRZ8ZTbKGUpSLOur1C5YwA5KFkjUU8a5FK5E7Az6DBPC694NkmC2LxayFstliptTxmYeZuFVcx4Swg3YQHZLE2eczi+rd0+YWnANvOtAU7VTVLXfnechvSa3ylrU+eYV+tOhhQHd52JckuS7vgMBAFeISXacBtQpAfTsVClWSQJddj3nJeoHPMwCkPcZI3Je/M94gbgRkAZ27Rp4uQ5pJssPQbewZE079nT7/CD0ratKt18n1aWtKu2udXaQKXxolwDvYM6cM823fuzn+sn//0fHkx6ddyZZ2rDOU9Rz8Cw7r7xatVYlzz+3PPUvGylSgw4Y/1Wfx+4X7v27dJqpMLFS1Xf0hLAhWRb3tKkktZG1S1ZqIbWFi1euUpL1m5UZUmFirbfoVU7r9XKTb9W2eCQi15kiXxMuw3e5Zakz2mrN/6Xx3vTZZTPEnH76IQOGARZcGEeckVDlfqs4g7t2Kuii56qvVPlWmJpjr4WgIgZ9LNIeNkmbPoO4Bc8hG+24R2Mh9fgAtIizyxpLAwq1IevM4MaHZK/646pDeoGCR6/iMf+0bnsJi4k1gyUQ7Uu+HMdaT9ydDjOBSjyM9tkgXA/0oT6BaNjZY2VY1dILKZEyy8Qk2tByeau2Xso0eEj28AsdGhBqZNDiXSTC0VwBkOj7OkiYuIfr7Cz7T6AY5IaY2+e1egEjjUhMdYZAGurbbvD1lUBhL5m1blgAEj2JdZaXYv3kQ2qtZYwWZWu9QgPYNa5IdU6Xg5wqDVg1pRXuCNUun0ZNB1vFeAZIMpewtTIaWOxj83ZpY0FwbIC+yhVGMpim3LFIFi4yWCCf7p/cEoBE2QH7dbQGIa/mPc00OwfRTozlycsJbats6drqWenG7gBClDa1JPUKMDQqmEAFvNOzAHz+sewxRGkNzqpLyMcB0KQCToVHSQyZoNKTYUGiDqOmBO0iczYr8HAW+ZnAsALgJhtq3G8RcMDKrnpp1LngaQesqcR8O3vkIasyu+7Qau3fl3r1q5TuaW6vO93b9+lTVdcqe99+3Pa0n6fNpxxjtae+wxnoVzX/ey7Gt15r8469TQd85RnqmbhwtjeMmJA3HXrjXrAqvXGDeu1Zt16LV63Sq3zGtSwYJ7K3RZ4zY8tVCVuI5UGyIblSyw5tmjpuo1auuY4122NSjq2asMDl2vtjT8yG6a0vrVW8y05DnuwAtxbDSAjrvx2g2UpDLN7WUOFFteUOcy0Bvo86JRPaMmKRQYmC8Lm4yS9iEYS83W2DYirUYnhMw0J3mJzjfRGGAAsQM2Ge3Sa+ZbMzV71u66w6ZwR1g6mQHDzDIMa4UMtp65sAXyZ9AmQ4hmvFNoN4FLfSLO/R/pNgl6Gd4SJVJPaenQpJDqPJKzERod0J2ELAnkpNfNYkWauMV5vsrTAnB3h2Shc5M5U6RquNDNDwnR8WQlmim2HqyL8456vo96i4gpSo3/i/sxDhACq6VAmGGRDHtOmZ6RGbBtHxDwjc4oVnEZT5jyVWPIrxbD52f6Rb4cL8CrYLgf+EcZSIqBW6TAxVxkmzVHGRnDisKksqOCVgDBh/Byr1jwfG63thwTLGyXxpkrGBReOdmCvKEcmLQaPnY9i5yGmLnzNd7jZqM2XDLFZYeV+keMOg9vxZ3tKM/fIdJmGVJAUSXblRql3wB3LHYXOM9hrCc6dh0MIUFPZI8g8IaDltC2KOqyvqQRU4uytJPyJECmQAlA3gCXeITE6PuLATbUhWdLp2CvHPjrnOSRDQC+mWGw2bdf0v71Hk1f9WPriB6Srvu+8WFLcvzuBuFXfuq57dPFKqcmS3Wh+XO1bd+mOK3+hezfdpGOPO03Hn36B6qwq3/vrX2r7Hb/Wyas26NRzztOSs8+1ZNkotj/ltu7QA9dfqb0du3T6Sadq9Qkna8m6taqpr1J5U71ZUVisc7aLkbYpogdG9ilWN9SptrVJrcuXadHatVpz3EmqrWtUbcmYztr6K43ecqN29U5YCC7R/lyRNvdNqmtgWqVuC3Wl0zrGam3e/BoxCPVZerxm327VL25SL3wMlplfZomGbZsl2TziVoAJAKMeCEPd8NZODCoOF8/bPyQI2wAawMeURbzBQ2HsB8U9hwPgCEsjpC3QRty+Ejj6Hmk6TzP1HOqzL6nPAN506/dFv0nQywBzBhQnJtIJKEeTigHBWBQhC07bVqh2rgw6XYVNiUdRjusqC3DgW8xpH2OZOyijbMxDuoERDyp44maBaHSOlg2wUSm+RQl5TxQqWHHPymFyxu/BWEJigknkCzBxGslOQBJvkthmpQ93vD8cxmBt/2TSXCd21LmLHO9Dc88JxjuvlnKScVoOE6BViK/cdizyOM4wLntFCWBqidUGEAUw49VBu+PYMOInLkqAPWOI03lmgAEEbXiHFlNuyZQ9lQG8NlWO65DrMAB1uSVUq/6k67rpmqyPuktSmQGmqdXgYiDMWfJi20bbYhcY0DNQsQ2n3p0CFTp6mh8ErADJjHhnmOpggYR4A/xs86pdRiEKwzgzk47GNhw6LJ3N+YpXyGLlgntpCkE93dLlX3Y8zhudg32Ud/9S+uV/JRW/f6/Nfp1cbRX4pNOtrVfowNa9uvXaK43FYzrz/GeobeW62Nd516+vUn7/Hp26/gQtOmadmjccq9KaWo129anr9vt119U/1WDHXp16wuk65vSztGjpkgA72m1RVUUsikwz0EQeIeaVkcDtcpjSumpV1teoAi2iyWr1qvVqW75CdW4XJ0zv1bqtV2ps870WpCa11yr/WH5EDW4/eQNR3jypNhjVGmTq3XaaBvtVvtB1AAjmzVCkQ1jPVhk6CCvJqM6020xlDcncYWigXEdHssnUaq79WAAa84ox+NhQHKR9VqQDWDHE7cDE4/bjBpjAFOAkOuJ1dcU1h1GgetsK4yw+GkS2ohNmdDTUZijNH7rkpEfHsGRAs2AEZRN2cUVFzN1VsAevqjZOZKmswl2lMquQgCXvkTLXV4oqFvlGfSxIgcRNhYBEVGKAb2oPUMZ3woWdbgclZwKq1CYSyADaAW4AD8ZlSIBJXIQNGI1n4jmucPteLCw5j44yhaWslNt2zNVZYoiFFjewSNd3Ulq0I9KjbRVA1o2NtMtd9nLAEKA0IJSFOpZ4Eqo+g4Yj8qN+DjAkz2mlnw7KxnheFyw3qAKuHGpR4YGnwvyF97wpwyuGnOxS5esqXzOXyiuIVVb5CNc5bUmBYsD/KXeQumapzwCUN1Cx7ebss6U9BkjU6NaGKF+8W8zrc2MGUbhN+UMKdGYBOcIg3ZFxKoP4YYj5Fp0HJlIwrlG7CWRJKTolEofLFBu62WqDug0A/uhLzpclwsNpwGC49/p4BbFxeJ/OO26Vtf5G9Wzeoht+8UPj+LCWrzomJM7hzg5tvvk6tbnOn3zhJVp40olqPWajSqpqNLB9r3Zf8Uvd+LNvOLkenbDxeC1du0pLj12jugWtjtN8yuVU5HJSROYbRw2KbJwvHnHd22Z+PE4kch0V0cbd9nmzi1ZVM2+hWhcvV0vrIi2f16jztEfrbrtKi0bz6rG0nnf9LXTdMMc7yF7IUXpTkeaZL/n2fkuO5leMD+ZPJi3W2o3hnsEp5hqzfomBtyxGwXz6UVSCbbM6qcU870GOvkX9AbgBpHZHtRTiIh4GSLezGbU5ovIPYRjcAMdorDaEcVsNP54/igT+OWXSPboJJ3IjMAiwkszCwBSvfNnNCisDUOzBY/6ulPk0jFUPjqsqrwwVLxYgnG94N2VmTrujT3uEnLQHU1qJKF5ibBTUFHVrSiX2r+sr7tp2VQalZgAIJhN16zQCGH2RYuVeAs44qszMjJNlorUBamnejabJvkPusaARq83cDz+nCFgwIAAEDhur0hEmhUtSJhXFH+Hp+SmHSbqk/RjYXH6ky9hH6YYVYO17vNGAI16FBGXocPajzABnmZ/lbaE4AILn6RwAp93ZBnMkchaZAM4EoFbn7Z4sLlc3223ID3NcrUvc8Xw93O/s+bq3J3WEUV/TeXrs120xwnWX3mZx2WF6lN2ZhY+zDZVEJ2FxBMCkIyJkGvyjI7q9RLpUavDSbjoYEqMHBt9IcX/PgLjjfl8/FPnZogkdt3SeVixaotH9B3THr36mLds32b9IfR0d2rtzm2658Wodu2Stzn76sy0hHqOGVas8sBWp+55N2v7jH+imG35m3hTpcWc+RUtXrtCCVctU3dio8upKFbkN9+7dHe8r5/uHNLh9myYKb99MtXdowm2aQ2UDMV2WKfO92BJvpaXG6pYmVVlqrGpqUt38hWpsbrUE2aoTF1brzO1Xa33PNq2pdp2ZPbXmTY3Lz/azfgP54kWLNDzUrTW1LiYH3iKNWe0+pTavv1s5pSfXuw1V+57LWQNYwmPAiHqhocM/GhIU7z/bptNROVis/jMgsagF6DLHmwEf9cA8IVMmjj+mNbgXCzu+Ji3ScRLh9n8Q7mjY3CfA0aPo7zjonJmEeLQAkv13vDs7Pj6qiZGcJjwis9l1gn1yBkj25AEOdHw6JK/MMdeF6hcd341m4KT12nfB2ep63LEaWrlQQ4vnq2/dcnU94TTtP+9MjS+dnyqjQOFiRAtXFD0s6mSmQkyuRpOByxWz1g07Cx1SLBc2SGzz5hE/7TiBO1tlwrijhmTomBcsXBRlKIrGnkmFCRR5c8a3UvwFgAvAJHwkAzBy4jXhEljSiLDI9axRzWEAbdozoGbfQvGy/GIjJBAu5rMcOOrabsobEqgvmQ5IKnZa/UaiRJpEAg2JNNR0JMwy9QFQdBoiBpzq4Yfdg30GL/cQ1DAWTI5ZK3UOhLQVpz7XuxeOpNcDgyYsNSJNUC6qB9WZjgTPMNywoBX3QopwvOxtZMN2VoHcAyxhDjbbQADkK75u9djg9luoyh34rLZq1VQ3aHB4QNu3bVV3f4f2d+7X/Vvv1L333eqBe1Jtq9eqbt48FdfWaMJg3bFth7b9+lo9sOt+P1ujjeuO1cI1y7TwmA2qXe5BwoBhZdnjRL+62zstsUn7rr9Wwz0Dyrmt7LvzLg/mNSodn4oTczh+bcq8jYUot/FpS+XFlnpLnV6ZpU3U6qqWZrW0LTa752nV+rU6ZXyPxq75mfqGRlTOIcJOo4o6Nh/2uy8VDY9ZuzWf2DIzXqSWew7oA6eWaoF5+sqWab24FuYVxe2ZgQc8gM+0EfoM+wj9H4Qf9UA7q7d7fk26x1Yrzo+MDDj/AHCr62C+B0QODGafECCJNE+bAWBtRf0FENsU2mQAbOY+ykSWonNlUtHRIvYhToyNamo0p8n8sCatSoXJ5zTN+7RWeTgOn1fMEtfIn/Pqih44cb36DIjle9s1/2fXqPGam1R21wMqvWezam65S00/uUbzr73Z0nyJ+p94hvKL3FlNVH2g0Iyd3Iyqz3jqE/XVz39Y//qPf6lPfejdeumLnhMrvSefdFzMt9FAgkc8aptTrS+65JlWIcudR6RBG/YTBiBiksS4av36APMsrYzF2Mm48dqE7dhThWAYqDJ3khpRrdh7GCBMOr5GCj2IConShvFExIfZsHa1XvmSFyR//6T5xuQmQJYXpEgEr5gndZnTNEFhDtUGwA3bnXdbzqBE4yYPTNZyXiKSAi0aSXHPHncUu1ctsHQyqDimv7EuyhOT8BwrVmTeDFliAhSjqp0RTr4mQ0h9+HGPDpOpWHRSOh7pAsYUEAJISlxXdFaeuf4n0oH7UrjfQvWW8JvrqpxtD26W5vp7+9Q/kdOA2+CB3k5t37s59ncODw9qOJ9Xn9X/3l17tfXKK9TRvkunHX+6nvTMF2rdcRvVYrCqX7xQZUwxjE2o2GV64JdXarLM0mL3gPr3d2rYKvq1v/ilOu69R0NuPxwOMeawZJuyMiAHqHswwsSJ3bVWp5lXZxqpoVaNHpRbly3RirXrdey8Cq266+fqvO0WCxcTGrKpncxbu6pRSfcB7YWv/oevuelxbc9NxZsvy2vQBswvV1MuGgSU2SakQniNwT+kOPy5tJs6qfMFm98BXjbMY+PPM9Sfb1fU2Q8gpd7tz+nvqY5tiJfuQj6oOyjbgvUoUMlll1329yMjI7rpppu0ePFidVhVwPAxKzrJ4fT2t7+94Pp/oyuuul73PLDFDEwST6iYgEtc0zIAAvjGQgrSoWUmg9Tu41apdvd+1d7r0X9wyBJa9CQz38bP0uGIo8gNt8INu3zPPg2tX63xxlpVdfe5n8F0g4/jCzByJdOvTzpug+rr6vS2v/0XXXfDzfrfr3+V2j2yn37aSbrttrv0l297g1avXqkzzzpdbQvma//evTr19NPU0tqqU8883X1zSmysPvtJT3IjXas283LPju066/zztX3zJj3zhS/S4mXLNWKp+NwLLtSxJ52sFes2aP+uXbFpum3pMj3n0pdoycpVOvu8J6mzfX/Eff7TL9Ljzjo72uK+3XuibMds3KgXveRSnXLqKbEfcf6CeXqxr88+6wzNn9cqNra/++/foeOOWafnX/IM9fX1uRwn6+wzT4tTeNrcaZ910VN0wRPPUb/vdXamukadBvCQFmNBCT6hVsc9S+f2Q6KM+WCHvbm7RDmkOlaaqYP1ZxvQ6qXtVlUP3G13i7TxBIOlgXBk1NKCRRNLmdrXkU7l7nD9T3gAbLUkuY7z/hwv8SFJ8AoZ0h71iyrM5DxjC0nRMpBiWHFGkgSI456v6XgA5a9+Id13pT1/OyBCE2bwivIRLTLYjOXGtHPvVgPjsBrnL9Bobkh927erpG25WgxONYuXarB/WHuu+JluvvkqLW5t0ynnXaCVJxyvxkVtLnaDygxc0+TLEu3VV/9S3/nYhzTQ2687brhB1994rW785eXq3bRZyzaeouK6Bvf/NCBikHSz9hlk9zRSI+2VcC4zxY/vvCC5e2Cub26ObWDzcj0a2L7DoD2hA+VV6nUfOLBpk0rOPUfjo37IrJlYUq879k+ozDz95WCRvtRtf7N4GpUXdvEdlm7XF3Oy2Wo+izEI5oBrACJum6gPE8/FpnyHA8wy0IT8OPvv8y5Htkg2lQEefsxb+n5IjsTjaKJeDa5vOq5RjUidvwd63/ved0RMq62t1cKFC+OzBDt37qSdFwcoYaAjPfSIEEAIB0gbF9KPTbgtCTD/lj4x4CHEhlAHTl6nRfduU8X+jggXCxVZp7DPhEcaXndj43FmpkfH1XjD7VZJyjW8ZnlKOwjZK6yov4wofW/fgDoMFM1NDXEGIjzhXMQbb7pVP/7Rz7Vm7RoDg5Uip339Nb/SLW7oJxqgzn3KBVHJXR5U5i9apGqrO5yTyJwcCxe3Ws1abvVroL9PP/zGV6xl9unM858cIMPBoWyW/ul3vqX77rpDiwygudHRAN8D+/fpCQbbtMpeomc++5n6zje/pU9+/JO668679cxnXqRv+vq97/uQnnDOWVq3ZpU7TbE++NF/01VXX6sN69bq7nvuV3tHp7709e+oq6dbO3fvjs9AXHD+uS5xoe4x/omVakAxTALLtPJut/0CPN1Jh1n1NY9jQOK94VoDIr0VjgJknJ/IuYNs7WgzQPY6/C5LhUiAoDxv7BS7p43YD8maToUUyPwU0jXgFsb38GMFms5EJkOls0GSQsJAsqCDgSq3/Fq67Ud2pHI9HGI95qaOMR3wYMSBCbWNTZb03EYs9XNS0LRqrJ72ak93p3rc/trvuFW33PhLTRl4Fq1Zo7r5rTGglNsurqzS1EheI25HV13+U33+La/Tri13686rf66dv/ip+u++T/333qXtD9ysu2+/Tftdhz372jU2OKxiA3K51d1y3lemjI6T8rpkUffFRpeyekuM5k9sp2L3AAtidTWat2K5Vh93rJ5wwmqdX96j0x+4VhuHu9RcX+9xy7yD4FO+SDsrqvXZfcX6715f0wECZWGh7UjMP+YJ/TP4DSgCWhiI8IQLKdL3Yp7QN5k+ITz1y33icHp8KSLSYRpkdhoQ12QPgCV/XAPQDHSFIEeLYtB5KDB8xMGR6M2Iw19tpA/AGw4yCIkRcHOTbD/jeLUYEIsGrYYBmA7DAksaWs3Lmmrtfs2L4xLeE31yOwH/N955ryYWztN0VWX2SKLCvjiaXY3VnWMtVb7qj5+vhZa+OASXCkoh3HHc0AFCiAZK/pAOp6zz4NvV3m4QrFZPR7t2bduiUYMOGYn25Y490Nej3s52LVu5UstWrNSSZSu0b9cOtyNy6/iZTnAnHBtlVXZa51/4NHUeaFd3R3fc53AGvpTX092js84+W8cee4xOPuVES4L9lhLP1BmPOzXAqs+dcXSMr/BNWjIddUzTVv14E6JcGy09vvRFz9M99222Kuj8Qc58GiLSHGVsjXKeQlU2QACCSVpESnR57F9mVbCIo8F4wvkKcINRGI+8UfCRPkuDXXY6bs4mpFyNrh1LNxrj+ywGuxK7raImKcPPUOcc/tBgkOVAAqYuAAcWVVy2AFgySWeko8I7nsEP95Z7pWu+bT/Kk6jaeX/tJWfolRefUvA5MjWuWKP95vXw0GDCeQN7nJBuAJpStyZGh9Q72K8Du7brgbtu0u723Vq9YrXmL12pUub9GqujvRUbgK664kq96VlP1q8+/iEtqG0ypFZqYKBd+aFxVTdVW9tsVuVYlW76yf/RA1ahO7fttmrdrzFOnLb6Pj42ntgZmowlQvMz5ovtN+lyTltinWKLC0DpgQFgLLakWI7E2NaqlRvW66wTNuilyyv1/vX1ets1V2rjJvOczgWvqG+zfDIDKlffMluc+RpAzNmQhEGN4gEkuZDyCh+Bi3A2LIDhBsRYyaY/xWb6g+GjzuiwTttNKc6SSCBsQzUx0JEOIAgVpppjYecoUoZ5JW94wxv+PpfLhfq8ZMkSq4ztR0V9/sXVv9bdm7eZMch8VHbqlvA4q4tAbTeIKQNefl6jarftVREjtztBMejpcDSc0XUr1PHcp2mytUkjx61XeU+Pynr6owERZ6y80pF7B9VzynGq27M/Oj71FWqKHXH6juOd75G+xxLc5774dfX3Wz23P2o0doclLSg/lldvV3eAV5f9ONxhqL9fd91yi0Yt3dV6ZD6we1d89pRPGnRa0uMorr6ujjjBe6CvN1YQt95/j3Zu2RQNBtDklO9u83/MElhfb6/uv/c+tcyb7/z0CrF+j6U76B6DNQe61tbVavOWrbrhxpvEdppqg9FXLAnu2bcvgHH7zt3u3O7OPb3avHWHhnMjAWg33nSbli1drN179mn79l2WRDuCR9l2nZAMHQ7eZLwL6dEm5hwNEoMTVp/3Od95t2Be7+Ok7RVWlSurrR7vl3bf7NblnrRoo/2XurcVRAzOHuQNiAOu+46trjxLic2LrD6f6DhcY7Q51KU4jMC1hzpNGrzZwuktdDRXXUgUAF9IMlw7PJuwv/NZdz7EkoP0jPNO1O79PeofzmtBfbX2dntgPYyedOoanbBxlSbKK9W3Y5Nyrqe+kX41tM6PvjrYnlNZc5Olf06oGVWXwzTOX6xzz79IbestKbY2xlsq8Gj3A5t00+e+qK4tm7XKmkFL25JosyP9IyqZLlWZJapo3wa84nyJtm26XjXNS+NU9bKGupD+mDtniY02HKdwux4RAuKPYrtOSj1Ax+IbqjVo4/pjAHTFxWp3eWOdaurr1Lp4vlZXjOuC8Z26qGebNgzmtHeyWr21HtiYbgDwbFU6/hHnaaLLcXZ6wASs4lg21x2LJgxEDjeZSYzZFirqjErAYkGGzbchyfsaVZzBizQcjnKPuA7ZgEDfjQ7K4Ec8FBZmszIdkmiR3rTe6jOLM78H+m3q84IFC7Rr164EikgMGSgerTnFX/zqBt2zyfp7VLM7XbhsYJwNkkmsMnsUHFm+WHUHulVqSS0aRPyZu84egLnvJc/Wgh9fpdbvXK6qrTtV2jugonFLbw5C53avtsMVYWDLnbRR1bv3G1QNxX4+Or/z0+Nn7rj3ft1572Zt2bIjDlVAPUHlZOW1vZ2jzpwfP9RvkKEye3yPxZW8wbHXgIeq1W/VtMsqWM7SBvHi5vCG3q7OaDOYof5ede7bazU6bSRmPhUw7epqdxxTGvKzAwbZwYFBg+EutR84EIBI+4c4emzfnr3a7QocsmTBd5d37tqjzZu3GkAHAvy2btsZ5e4bGrK63BfguHP3Xu0/YPXPoL/d8e7de8DqIoBIvpJKzHYcyg0QRgeMesB2GNwApqXEe7smtLnb4INq63KrYYG0cK3FgDqp3RLJthudUzPJaprWGvDYtM1CyF1GUt542f9AerVuvN+guMKgeFICRRYXsCGnq/6cO4gziEF4QVXG0IlCBTdTcO81IH7j44jz6VnI+W0+fYkaRid1wpolamut0413b9cA85WzaN3iJl14zvEatvr67Svv1tLJPvO1N/Yl1i9eZmyY1uBoj7XAYrFvdmJkUIOu+xWrDKRnnq2WRW1ps7X5Nm4wu+/7l8dc956929Q4r80dbomzXOp6s/TuSuSdZdo1c6dFBozJoWn1T46ovrEt2mOZ2zQSMhhUUgCdGJgKGkn6Ce/4iWPdqC+3o2mmJghAY/GztHPeXqqqqY1Di+c31+u4hkldXNKtfN+EHqip1wRA5DiaaF9+fIRvPrN1CmJPKfO58L8AnpEwAxb1gYl84CZd/B2Rm0RIiIAp98gWQEoaTg8hMGa9oAE7iNf+UbWEwTidN6175EGxrq4u5hMxO3bsSOozAQOMZrkfaWJvHZuHS1FPrE7xreGScLPdI/mzfw7JZMgNuniIfW3mlPOGf3oTwyoLE/eoicev06TV41KHK7WKGSqf04ja8KgDmFFhVQaLyTg0AJpVTjtd8sIF5AbmRgUIQwlc8U4LOZPTVptRG+1G1qUN8HyM1AVDn41GkhHXNnile247LlKKweELYWc/AnFZeNQ/HjAAKQDDvAlQtx15j3qLUEFZNOSJsjBPCxWsGWKtmnhSHCl92nzEFl7+swM3aU1Nl+hyC4ORANtqmD+savS1ewidp2WeO0O9b/p67yY1de8N4aGRd2BRjdl3yApliW02cfOan4E8Msb8FBlASkGlZhO2gUa9vs/Br74dvYnFmABIh/Ngou9/7hBAZEX1T5/xOJ08Wqbj1yzWtt3t+sjXr9FuDn+YTY5qT/uA9nT06cs/vUXd7shDdQanqlLjQYMlqXq3tyrjdLnGejotHJXGgFdWVa0F5RXxrntFXfrM60RlmfZs2qHB7l6V883wpgbt7ew0AFZp0aLlWrxwqeYtXqSqOqvTdY22ay1dsve2TD3336Yt991u1XyPOnfvUc6q9PggOzIsCPDGT/AJBHJ9uNHEoO62Rx1FndlEHbl9shAT/g4TLvMrNuy781c31cdrhPMWt+ovlgzojfu2qI63W/ysh+j04hAYZK9AJ/oc7mi0BjOznK4QAxZ2avhJwouDIGz7keg4BOYehvCuqzLUbHuP4InUT3gWWgBGj1Wx7ZV4C133aFMsKGZgmAHi0aL4HGY5QJjepWWzcDLpbQukllQ5ZlZttfvbuJ1wG28Dg5+P75FYhF/7tZ9oorpGu/7sJWq31DgF6CF+z2IqjYO/GktNMTk/i6iXrOQzHKDC+HcFBWC4UqkrKLbcuMEx/5cOiE38Ix5iy8At8h4Wtk3BGwKgJuzPVh4aXpo/TWFm8jLLHUQ+aPhRT5Qm/dIhImrHMbMpPEuM6PHzH5Cd5SkabpAfjjiz0vFkAaTjL/kkg6RYEtpvmoziFQZTbauNJUVUJvjealA0sHB01/zKKV333Hn65sZp/fQ0h13ie8OugyF3QVRn3onmdJohgxWAShwUjNNX2JrTVJXy3Osw7H1kFCmocfHxEkt3+rYBsb+HnMzQGnf6Cce1ZW+Hltt9/87OVIRZtGx+vV568eM07jz/5/dvUJ/TzLsOrs1VarRmqfqXn6zNI5bqnGS5KjXN5xfcW1mzWLvmWG085iQDX9qczfLqsKX23fft8aBbF6c5Nbat1ERuWF3dXaoySK5YvlrHH3t8UqmXLFPzvIWqa2hRzdJm1TS1atttV1pL2apd2/epx9pBLjeqSbQjawbsc51yHZXYHdIffKAO7c9nDADCaLK0DRYsnUlqfIoFG0um0+4TU5z44z5ncVclHmyqGup16ZKc3r39TjWat6v9KF82CN5G37GDawAvVFrft9cUIyZpG6ObAbkAN4z9kAzZj8iDdDNXYxJ5bezNdOMCO8tC2ijEwzYepq9cvTGnyXPcntV/H0ma6a8FClDMwDA6T8Fkfo8UpdVMthS45P6PfNh/toEncZzp2Jj7+4T7w0QAEvd4tQ9A5c2WMlf8ku/+Qms+8oVQH3qe+vjUuTAzhHtaed6LBYBcKQESbrzRtmxQUVYsWajVK5aKAxZCZXF88fGo+gbVe2TnhJuKqooASeYhy9zQODghPnbF3ks3Vl614psz5C8Of3UaE1Yp2JA+YaBAhaqqq4/5qQlLWvjHMV3257vJzfMWqLq23nlyGq4L1OtKSxTMfTCSpcYKZ6xqWUJh0zCSMPysb3BeG+vV2NgYPKZc1CefMGAFHTDOBhfebeabL0zgJ+4Y26xmLZg/z/hktS7ylfIP8PNBLj6PsJcvxnFuYjDOjblugUrNm1MWVGtZk/PHTPr8DXFvbVuDvvDj2/Xvd/XpK/tdc85LbNwO0caqmQeoRWVDOqOlWC2gD3XWaYkP6ZMwAGUAtv1Zyc7qFdWMxZevWGXuskpeoHm15apbN1+T1SU69fiVevaFp+uqX92tZ593guOh5RTIPLj0ojNVV2spEClmFrX3j+iKXKvuLGpTbpKTxics2VUZFss00rlTlZV1qjVvWpYsUbV5zeBe1Deg9//dp/XpK36tXfkqdRhgB4wA8497nPb3WBW3tNeyco3mLV2rZes3GlQ3asmq9Vq4bLXmr9ioectXqGF+mzbf+BO1792v9q07DYydGunnOzgGxvyEyg1crEgzn17i6xI0IrebeBHA7SskRLcvF9T8SYcyoxpPDJtvvsfUxLj5zXvXfAOGdlvttn3WgnF9Zt/NWtA+yKmYCZQIH4KFDfWQ9aVglX+oe1d1D+BG9WCQGqkv+FkIPrNqzXMF9aPLVsxL8gz+zDNTN34u1ncg/BH8GYCPIiEAxT5FFlpuvvnmozqnePWvb9N9W3clXtGx3EgPds2Mo65k+48zadw/6BGTU+LgnWXFqDDXiis2t7BFRZY0kNz6N65VicNW37/NIamleCDx3AXuf9wJqtlhdY7Je3tSL9w/4Zh1+td3v1MvvfR5etbFT7W5QBwLtsuqzF//5Rv11AvO05lnnqbTHneKTrVhk3aPefQnr32N1qxfp0133R2HvgJAJ55+up7xghdpkRv6vbffFuAJ4IEHJ55xti545iU67fHn6sTHnaljTjglJIyhgQE99dnPDfO4s8+xebzWbNigzvYO9fX26RWvepWe87znasySwvbtO4JDvAf+lre8SU+98AJt2rRJG47doHf+xZv1zIufpmc/w8blWLhgvu7btFVvu+w1uvDJT9AVv7w2pD1A9GlPOU+v/dOX6sqrr9OypQv1p3/yEl3y7It07rln6ZzHn6HWlhZt3bZD4xOcJL1Cr33NK3TsxmP0+ctv174et1gPAuUGrMv+6En6z1eepMse36rXrCvTi1eXWxsu1h033aDdlvDe9tILfG+ZdowX6/Juc3zHHptbtLQ2r//z0Tfrn9/2x3rV2Qv12mMqdIGFzvuHi7Rv1CWM18Qcnu04Hf1JYuFtmDiEwL3l8x+Tdm6mBmfoJRedrnM3rpSGRlXhMt54ywNatXKR+i1R3rkFnR8BtFhvvPS8GGy+d8Xt6mTe8jDKWiAHAq9vqlW1O3t5dW18pqGpbbkWciLNGY+3gNwanyfl+LGnnr5RVz0wrK/ccJsmig2itU1ugeMacytjsWTe0jUqaW5WcU2dpbQGVaJC17cku7FZVXxmYHRUe7bfp6q21ap0PkvMg8qYWnKbZyAPKXHSIGieOE8AIiYal9tYsQeKeJHAYTg8OH3SwmHcNxjgafP0ofimNMOuo6GPlY/ndNr4flV25HXPVJ1Vd/PX/mr0wMU+xaoi1duKBSJHE8MqTAK0sAFHgDNOOLFBQuTG7BVkX3L+BGNcYJ2vPeJKu8z/FgsrSJl0SIeJeztyetMpLWqsBUH/3+nhzCnu27cvYUJGR0NCPJRIK0mmSDBsgI4RKjhiQ6X4v27rDuWWL0wqhP/SO8aFp91Y2jeu0Y4XX6zNl71UJV3darriWj/nISficgQ0GFwGuZxHyVKDEECYEa4XPOfpWrZsiT74sX/Ta9/0Tn33B5frAVbHzaIqgw8LIZ/97H/qM5/6d33205/TzTfeHNFyb96CBTr18WmDdY0ZfMoZZxXe165Q3o03vphnwFy2dp2e8NSna/fOnfrCpz6hL37mk9q1Y7sGBvoNhpdow3En6Pqrf6lPvP89+tZXvmSpz+rNy1+mGkuIFZZwqyztPenJT1KTOxbfyr7o4gu1cNFC1ViCm3ZLZcqh1mrS+z/0Cb369W/VD378c1104ZN0wrHrnc9KVVdXRWOm/UJIwzzLa3yvedVL1drarC/811f113/7z/rJT6/QkAcaPhvBtpxnGWg5kZtPdT7/gjPNTDdrSxuvuuhUvfclp+m27V06+2P36Kk/G9Ftg0XqaVwSm7Ifv36Bzj99vQb6h/USa9TNDe5Z5ldd9bS++LG36vxzTtX7P/1NnfqeG/XnP+rWulrpq+eWWe02M6kjBj9AkO1DzCnCdGsO+soX0vabQt1CvBvOXPIdt2/TE884Vl/+6c26dtN+feknN+m/Lr+tEEq66JzjHG+pLr/6bu3o4GTwh6CSMnV3denHu3u0tW6VWtedqkWLloQ629zUEgdkxKd4kdoMepVWmz/1uifr1U97sn7eLV1hjf7+qXkaaVxh6cgStqW+3KSlf07xrmtS1YLFql20zCC7VAsNtIuXrtPyNcdF57zv6u/p7vu2aMfmXTpgVXrYA/DY0IimcswzjnoAzqvYwE9eii0xApYl8McSaZFVZ9o0x71N81aY29+4pc1xCz/wbtJl5514zn0ssmZSYW2h2u2m1mD2svp2fWL4Zq0cHUz8j7lbIkvTfmAd6yhByBxRR7apBmzuUWeAISBZ2HNXXjEdKvNig2Z51gBNKIqxXStUbhNxEgdBlngAZFA8ihRzigmQAJqDGT3aZPaZnD7/kY+CAWVslw2PaGjpIk1w0khQFtaFcENY+ZNrtewbP1Wp1Y0F3/m5StjLWIgiAmGbRla68d3qjoRkaip4x8hwz70PBB/e+LpX6vnPflrsUWQvX0ZsgXmcJcTHnXmqTjnNkqLjRQJktXjntu066dTTVGcV+/RznxDxHNifpJJQqVGZXdGnWLLgmR9/7zsGw52x0vXdb3w9Ot7KNWtjv9qN11ytfnee++++S9f84kq1zpundZYYoV07LVkj4V30tDil5uyzz9bNt9we98hPVh5Wn/t6HcemLeHPK4kZwdHE78Qa6KSTjg+V+fs/+pluuvkOdfb16We/uEbf+/6PraFOaImBd8mSRfru93+qbdt36o/OP14VzOcVjeuPnnyS1c1R/a8v3KG7th7QzXtH9Yrbp/SD6TqVH3Oe3vfXr1HvwLDe8akrrZpN6u9W+LHlS7Rx3VKdc+aJuvznV+v9H/8vPbCjV9+4vV3vuzmnlbXFOn2+wZOFFIhOMjQQIMyimsw/3X79wQIUiObCq3pskdq5t1O7O/lusPnBeX+243Bgd9hvXnmnPvOVX+iuXR2FJ49Atc3SqsdJy49XV1GtfrWtXb/Y2qHqtmPUUFGr+a0LVO36rnB2igeRSg3JHng43u4vXnCqWk6/UDuLG3Rl75C+1eG6qF+vu/uLtKd3WD1DeY2UV2raoFpuIGX6o6ZlnlrbFmnV2mO1fsNJOvbkx6l72526d/d+PXDfTu3u6FZfZ69G3BdGBoc07gFrwgPW9FBORa7vMlRsphNggnmEml2GgGMGhORokx8Z1eTomKYNjjGNgvGAOFVRpSoPtFWWYD2s6Jj50/rGydv1ksk9qkYwofkAXjYhtBnU2B0VDSm239hmew7VlRnmES1dBlmQXma/BsfT7fy5Jp3HFJ5v/KRITVRWAYCDGjLH0aO0cGnGPTqASJqz0i04kzU7P2aMGdd2xXXqP+0E13nGKFcWnSTyPq1iS3+r/uu76dYRaHzRAuXa5qmiPW2NmZ0EIPaN7/5El77yMn39W9/XqSefoI+87+/12le+2MFSQBYiOJoeyZBjtLKPRkF333lnSJJPfdazdOyJJ+q6q6/WKA3PeSMI84kxL+dr0h4dm9SwwXx4xKqVpYxxVmK54zRKKyy5lXNkFMcIpLRRdyG+v/Lzy6+wCn+qXvvnr7GKmtOvf83Wl0M59ldvf6P+698/qn/8m7/QvgMduotN6AUi/ZTrWRQSNffSBAZhMKheSJPP5NseltSGhof06zs3aen8Jv3dpeeGFMDq/6SlVN7siLk9A3rkpqpMax9/uk498Rj99MobY6rhju3deu2aIs1bXKuiBWvNU6fhjlzU3i4NHrDp8SBSyAuSIisa7Fdk3yKr3Ow/vOIH0g0/izCHE9Lz+//zCv3qrp36xDeuMeMoRYE8EL7wvGP12hc8IQ75HeCVwIci17FOf7609jSD4hOklU+Ulh6n7Qb3Wx64TfOKSjVv1XqVzWuKueW+/R0a2NWuKRdoqqLMGFCikpMtjZ7zAunkl2qkaYNuHOnTrft26O7iZm1rz2lv+7D6XDamQ4qsATBnXL5gvppWr9SyNcdqxfoTddIZ56l2bEhbtmzSHfft0La9+7Wrp0vdvf0asLQ47Prot99Q34AGDrS7DVoqdPqp3U3FIn3MNVu9Z1+jVQJLiyOadlstYp7ejZN9pjEV5UG/srUxvgNDC5kwjy573Ji+WHqHljO9QBN1dbANscbVkYN9BrA2QCxTmWlH+MN2C3/hjoFsWlsYl3y7mx/uZ4s16OPxGp+vs/qigZJePI/H0aMARRxHV2VOBEAARvDCcJEYZWNXckDkjrwZLIotbVXft02dZ5ysKQNGPEflM5I5PBJ5UQGk0oMF8vMjK5ZoZNUytV5zc3hFGlGBvC1DXqS//8s36hlWNX/4s1/qjX/x9xr0SLzcEg0jKg8w7/qzn12pn1gl/fnPfpEWT5w2cY343k+//4N4U4XOf99dd5FCUCyU2ObrfNdfe00A3HMvvVRty5bFNzue++KXqMlSwnZLmxuOPVZnnnOu6hsbtWbdBj3xSU+O+Dbfx7FXaV70lptu0T53hDVrVutb3/puzEdC5AMD/fAnP9fnvvBl/eXfv0eXve3vLHmmzcpUeHNzg1Xgxtj4nenRt955jzq7e/TcZz9dTzz3TM1rbtHTLjxfz73kovgq3apVK4JHf3zp83XRBU+Ib0i//NlPVKOH/i/fn9fipkp9+iUbdWz9pNaOdeuD66f1hAXF+rsLmyL+Zz7lLH3hr5+rlfNrY8fNZatLdL8W6sYbb9fTn/YkvfVNl2pNc5kuWTyhvzmjRnty07qxw3WZdQwm4jkT8Vc/MQN+kSrsIWjcHYs5vEnmzywFVVfyuYgKXXD2cVpz3Hpt6hrWwuULtHTlIjUsXWAVlpXzOndi9ga6J7dYx3/hG9zbF1r9t7S4YqV0qkFxlQFy8bGWqs/QitXLVVdeElIiHwz76K3t+tJ//rcOXH+nWO3tw39+vbRmvnTCEj//eOXPOEe9JRO6evNN+sX+XbrZ0uWmvlHtmCjRgcky9VsNn5z24OJBsbipWRWugybnYd2Jp+r4U05U6VC/7tm8W7fduUN3bT+gu7bs0Q233Klrbr9HX/2vb+j7X/62Dmzfq3yOeW0zwlJx9AzXeZElbk77Zk8tB/COGlBRp5EamcnntPAijo+rrFGl2x4f6y8tqzBGFWtxw6Q+XnyLnrtzp0rGaPPTsRhSCqiZxezmqQbMuA4wK9gMblQ2EiNk4KzxvcgbUmJhII5M4qQt8gx1DkZiUL0LwR4pCg1rVnsCC4s2bdo0zcLKpz/9aZ1xxum6++57dKclHybujwSWnZ3prY7/V3rXB/5N3/ixR3NUWeanYs9fusegNpPy7DzYPdHcqKFjVqnqQI+q93fFK1XsF+SrdhPuOGxsDvHMgDXZWKf+9atU5gpouOs+lVqSiLc1HGW2BaXI16Twv1/3Cj31SQYkgwVMAhQ//8Wv6e57HtD7/+mv1GwgibgLtXRg/wF9+xvf1hvf/Ebb39COrdt0+llnauf2Hdqzc7te9LKXWR2p0ec/9Uk3RqvZfgwV+oxzz9W5Ng0N9TEosHn6Rz/4sbrN12c+6yKtW29V2RlihGfS94ff+752GDBf+Wevjjg+/5l/17wFbTr+xOP0I6u7Cxe16Y1veJ0+8K8f14KF8/XKl71Ef/E379bdHJjhgvKqGgfFvuudb9Kx69dF3NC2bTt17/2b9LSnnK+3vP1dWry0TS96/rO1fNnS2KwO2KKaz5vXEqr1e9/7YfXnp/TlbeW69IzV+vBbXqj//aGv6//Un6u/eXyb/nR9uZos3Y2b17tGivWNfdP6s1Ul+vdre/W3b3hLzGPVLNqgKz72MrUuaNZ5/75Hdd/5F33obRfrrHPP0TRvv5huPzCht945rZtHLIJQUbQPNnvffZ3WLCqxpOLOPjKmqukJ1bmj9xSVqWuSt0QqNNlaq+KKGvOp1P2yKDZJc1jCfHYS1FVr0uDY3jmhcg7DHZ/QXnr3wIh5Qntxe7BfqJ9858VSON9EYTN2rJLv7ZM23aFld3xel134dJ21cZ1GmhfpQ6XL9KOWGq3evkuX3HmtnnjSen2rfo2+UO4BAVGNvZbdfraqXyf4+Y7iaq2sK9Vmg2Kzebyib48W1jWrsaZC853Xag80JQbHvCXjEUvnuaEBdXftV+fOrRZgqw1ctcbuGtVa1a0wf9gkPjbUJw4crrXqfvyG1dpw7uNUXlPpfuEG5/u8FogAEK+kmse0/FLfY/EHbSdWz639JH5PqIhvVg/0Od6hEDoQPjgd6LvdrfrZknXqb63Qfhetwv4cg1pv8OoDwJDqkRrpJoAe0jggSYKOvrZsWkNmRwJE/H2fN146bfNmKFKn5Z24xwe1xoq0/fkrtGJeahv/r9Ta2npETGMO9+STT9aJ1vLAvgDFrq4uffKTn9Tpp5+ue+55aFAELAj7+6C/f/+n9U1AkQ2/oAWgWJBc0voYW0xsz+QhKXfT9iuy+jK6apEGFi5QdU+/pmzKDIhT+XGNAIYVpVaX58eK/rw771eJ1R6iSkdeGQTtZhSESlxjfLLWOYiPSq1evjTC7Npjdc7lraut1rLFCy1t8OEovoNSGiuSk1b7eOukublJQ4NDMY8FserHQlBtfZ3TKFK/VZsgP8M3eYdyoyGdNjc3K2cVZs++/fGRKrb8NNZXG3ybVV9fq5wbIW/RjLGC6Myx6MJAyqkn2LQrtv9QRw2NDdrPq4h2c9LPXsc5YuCIV8EsMbHtaYHBrdpl4I0VpFUm3/k0al1NtTo6uuBslG2RgZVDMHq6e+M70C0u34TDUo4t/VP66b5qVVkWO25xg/qqFmnz4y9xA85r2UCPfnxpq354b5/e3dmiKZdlRV2Z7u/0YPXNb0n3WMprWKjlx5yqxgufogcOjGv0u/+lJdf8lVae9UTVnPen6qxo0y3D7hVs1F+xzL3O7jr3JvQ1ehb7ONjTykbm+kq1up7baTKsAMCUeodj1RrmIBVxyg6djsfZbTDP0mBUE+FtcUoBn0llLs71nCQdNw6AcNzSda5UVW28P+57fACq3eD2b38uPfFPVfvE8zTEa5ePt5rMBNu002IOjWnvXlcYjYz4SqeNh2NaXNWnhp27NZSf1pLGKo06vwOup57rr9VoHXsIa9Wydr0Wup3cPTKpeZ171T/cowb3t+n+PZri7Z/BLo33dSnf26tp84UTwY+3FNvcYInW7aS3t1OVE1N6+sVP1tLj14lvHRV7IJ9wW2f12Q1bfM+b7Vb0FVa0pznarMqg6DCo2bQhesN0fkSTQ4PxSuvkpI1Zlhvo1Q53/8+WrdPmlQvVbbW70jcoS3wKlV6EzeZ8VxWr5QzkAGVxmcE1Re0b/rF/dcmUcvBqyBfca7AxcIq1L3aRjxoUX7ZSK+YfnBP/f6GHC4olr3/962e25GRHhyENHmlLDte/ry05V/7qJt23aZuZBJeYbwsr4aLbP/Iboj3Aksg27ricVmnvoGp2tcc7zoTn5fgpSzjs0yqxX/WW3ardtU/FbizxtJ+L+ZUA2uSG+EQkSRInh9u2d3Zrf6cbnTPEq1ns9Rt1JxweHokFDI7+YlPtiEdT9iMiUTHaUooYmBmR/eyow2CY50L4wGbgjI/HG2zau3rdiPujvHHaifNFmTkUYrC/TwODgyleP0P+ONghh7rj5+PPacCzvBs7Um3ejX0M1W1gIFR1iBhZZeQw22Gn2TcwpAGHHTbojDguXmVkhRlJIPhuMzwyYnW731JF2l5E2yC/3L6jr0Rdw3wAf1z7+obVU79cWmvJ1iByojHh4tXFOnZpgz7zwKSGikrU4cFrivmqUnfa7fc6szn1T1WqvbLVUr2BxMBbvO82dQxO6u5BA3v1Uvc8o1bnTgOh1U6OUGfE6nIdMu/K2YuW6KbzNmVl8UH42N+BRBbtw27ecOFbxOwboa6RVGL+0G6+SewgAYzMV1Lo2Dhsmw3YgCGGfSOASGudGiqKNZJtqmOV9NYb4o2d/LlnOx6eq5EaidfxQ7Qr4meg551eX040leqimklt2tOlWudxlaXyequW+/sHNdTdrq7G5covW+6o6jXf4DE4ziuXVaqpLdVQabVKUafr57vtGljcPqbzQ5oe7tVA+27dd/uvtLenS/NWrbPkaNCzGr53x241WE2uaWDhhL5lY4mR+XiKb+5Fe43dHq5jDqCAFyUM6PDQhk3e8aYURaBMlqZLLM3X1xbpccObtXB3t24abdYo+3TgH4ZmRyfgIXvHYMR1qjb/2PCD7TCxMA0P6aKwr8ZuBrUOmyFH1jeqN5057xHdkkMbZ0tOdnQYZz/E6jMmoyMh6SNBzG8gXcVH7d1A2SjMymxsZPZ1+iC7/d3BOe0lPhCPm7AYPzft56cMTsUGstKde1W2fbdK93fEq36FGigQlX+oz4MJqCEkq3XkL56KhjPi9JgQZyI7N8ICyajNhEFq3ILGRKxuhm31JO8OihbGOQbxeRBHxPW4/VntY26ADddskeHzpzWxYllm7+IAQaS3Uac17tEWAYbtDxhHV8gTc0UeMArliSMDDADxrrg7GnvRAPP4KBjtO8rET6pnAJC5UDabRzkLhtJHW7A/b+uM23BSEQsfebfeMReiI97BcqZImAwtNHA530hkN1rdufDvf6izXvc5De62OBGSicPQnhY0Sic8xczws7zNsmOrwW/YcYxosLRelXyugPCx7caiBj2oydIZCx5WM8M/yCVhCgO1C7Clw5GPnBkM+PF2BUS62WuArAwwSDS5Z3qAi/xwLL/BLgqOHa+e2Y3Eh6YWJ0Tb5CZVwWuJAEWDAZEv16041nmy1MZRWY1lql1o6doSV8SRvWnDDuj5JapmybW5mHdhVGkpvHXxIj197QItsEaypq1FG49ZrZ7Fa1ADdHptuVawuGStobyqREUNTSpvbVPNwtUaXLpKmxat0lDzcpU2zld5bauL6HZU26japoUa6Tigy//907r1vltVUl+vEaf161/fot2bd5l1Y6n9uKyhPrvfsX2LegO7+DZMfCvcfcxcirqfpsG63uNTqG6bmOJiS+gevCutujcuXqZz2kb1H0M/0ytuu1WtHdbJADP/BxgyMNHoeI2TJkNCXBPAt1LCtqPhFdyZhtzttA+4PTA4rvSAQ/08ggTezcY8+oAFpgd7Hg2KV+TYrmJgo1JQ0QBEwHE8gNBgCfC5I/H9FjZGszdrMm+1EFXZqidziJM2nOA9GQDrCvfzgCnqIXaM2EEHy0X7D6LYdKxUYzNEnyJ8LOT4FmCdN8oF8I2MW+qysVoxbCkUQBwJM6lRA9mI0xwLUOG5AqhwbVCkcaKmlHnEjQ9AVXP8vdXRiqp4+4XOR04i624wjKSsANN20ibcVD+TuG2iAPxHHbrh0nlp7AYD5hIBy/QM/I5IzBfnw3nMu0wcQ5ZnEKIubNKmX/LO4ESe0xs42Zs6Y3wNLtJwXEXOJN91ps0aFEYrLaHkG9TDSqWln2AACZPNaudl+TqDowFgpNuS4H6rmAbOYY4Pc1npAMUOnzf48f4yb8ug+ta5p9ApOaB2yGGIm7BIfnRCpAzSoBPThrNr/8c1aRf2UwYgcs/1kUR330O64x4qOhIiEmfsi+NBX1vC66esHHeGP/slAbH9+4LPLORwOG2ejo9uyHyNowttxARWA9rNVqtrzIPllkaLa1znfta45SKbryVMDxRrr6XKycoqLZvXrMolbVq/wOEam7R+5XytnLdINc1tml57uqYWr1NZY7NKKue7nnmzqkrTBqHp6nEd2Ha/rvjO57TPqveApehbb7pZnQe6NDI4Ettx6D+0rXHb8RogbDDox5yizaT7VH7cfWna7cHhaf8cW6aqGhVxLmgd52Wmz1NUG5BbFi3QM2u266/3/EQv2npXSHa0sRJU4PJp1bJtq8LG/wkYcZhBbthVbmvsrwiC5cxFclDHZg+aC82T9R6AYiG8EOYRpNmYR18KUJxNh18/YuROFt9pcWecbVh8oJMCkJwqzTmASJMAZz7sZPJxnfxCyiQudw5GPjo3B9CGkkCBkdKioUO4w0rGQQ6n8PI9mAWYAIppA3beUtyYAdB2GOfPhrccuJe3JMk122zYtD3qvOTdgfPYxEPEtEQDC+9u8yW++Bi6ewiSInmkDWDo96QNkHJNf8W4j7l8aWoBU8iqCdUoSYoxP0TlhmSU7hPHlH+QEuPVPUcM+PG2SgBwpGXpNHiPtFvIN8bX/Qb+0EL9fEh1RIzqCCEZWMJRXYO9DSCDA+4gvKvscI43AITTc9Y+zg3fwDdu9OCsxSLnxfd46yMkx9yQDVKjey6gGGnBAMdT7DC82TJtOzqQJUo6HaVDckRCcRJBluZDkoNidHIY3pYg2wGMDh8LezZuP8FGzgJEsuRQA+JB0qwr1gLi4T4jJXObC5cl8Ab4DA5lFmiHkBLdjwU7jCHx4bRMGvI1mmCdpawV1Vb5Xde1ln4mXFd1ZZVqdjpVJQ3xzeiWlkYtamzUiU31arU02VxTqbL6Os1vadCKlhYNzWtRz/wVliLbVDbf0mK51eNKawUeEP0bGtRwe79uveL7uvOB29U1Uax7b7pNB/bs0SADeOxxHHabpM7pJ84irIjtX+4vZfDcAIsGZh7F+/0Gy2neT3dep2xzbiNhSjyQV1TXqXbeYq1a2qxL6rbpn3f/ROdbdS8dHFeDB5Mhxx1MICHqAN4H/6mW1OZi+ZowACBzw6vdhuY5H31+eK8D+v9oUoAijsOlw6MhLQZgRavB4D7cAF7pL62AuZIKhmvyGOooDRzkwO2wQAUVHmqr7+VZyOEOleL7hX/H4V+SgWA8pnBN3kgjgMNgGKqFOw8qJCo0B7gOW83LGQhH3ID4tgYfTh/FbUDEoAITHjAdDUDF7e7vPEXcJO/GFcnaTREAHRZjkDQBo1HbY+64fAaT6yiPHwwpzg/F/CXtxs8RJ6AZfIkygDnurAZI5pK4Jq3gn5+lbKxcArzxfrbdSI/kkYEoBh9LMkiSDFDsihmLduHESAiUKHFLBkgADc5LtDQTQNPHvkNLDWSM8IAmpzK3Lbf0tdCgYtDM9fq5UuerWL1tK5wxJwAYAnpVRhoWWRIKG+QMlqOOzxIPCwrBrCG7AUzjn3gXGynRweLElZzDQAO2AdLCVEIwnfgym0+wAl4cVwbIuVxVBrgix1mE5EhQ1PSQjG2jHrfOT3HFhJjrlnrgftZnsMNdpFKPEyxcc+BEtXmw1GpxsSU45llrPGDxDrNT01jvAQuqxQ7jwdESVpMBp7GmTA3VtXHYBNuo1ixqVa2BsHee+WceljYtVhFvMsEygMyjAgsb6fs2xdpx1691663Xa5+1mh33bVFPb7/b5LRNOupuwnWLEBJ5RVMzT0IAcDuOqR7XOS8msBBDPU55sJsqqwhg5JMS8KfEZeKgi6radAbkipZpvVLX6S33X6nmfX1qop7ofk4mGjnViZu2Cv9gE22JxSn7xfQFEvluBxr2NYNbxtejQimtAMXZdDQAMWgmncx2gwszm9I1CxBHJJiMKdC4w6UXnGaR7+cjLVcEgOLKSSm6AdgvHXbgQBg6MRXpxhrze244qBostIwZDPPumEiII+HGb0yjllhGrPINu6EN2T1oGzPke8OjOfs5fIQZDUO4Efvl8vYDVDNVPOYrx/xcPlaoWVTJsbnb91l8Gcs7bT+DRMr8JnOPYQzE+QmrPYA2UwzOdzpcIqDdxSoMJDR4yk6Dtx/qMmVn/jZWov0MUmOAMRKH42J6IPLo9DqZpuWthQBEt3RWPJEaaPTwHGBhr1/NPIONpUCXKeYQzc7gK/NufKNl5VkGK6vNIRHSQxwHUwdVVs0GDZR84IoTbwA/gLffYMg70OZJvDpGJwXAiBsCkKocPx3K0QRR33Q0pJCZY/LtBjhZhIlvGdt/wIUqcjxloOCk1tRMaHHJlJZUmkd+BPA8iXk+yofFvFedy1jdmNIvK9Yi+6/IepHjb0F1JHrzie9yTTvbS8EphxtyuMV1JZpnVXrIg2SZVdcJ82zhkiUqqa9Qa215aA/5ybxa6+oMjNUqM4tYJeZcQ3atlNfUK7/8GI2tOkVFbatV0dIWH+KfZgoGxHG+p8qtVtux6+7bdfXN12j3YE77t+9Uj/k66HbFwDpuKT7q2/U0UWKQMz9oO+Nun/kRg6brnMU29jLGAOr6gK2BaUiNxeU2lSHxFjnt2taFalq0TC3LNuiMY5r0N/nbdPGmzezWToMb7YYIYuS3nYGl81Jsv5hSbDdPt7pOqHO+AtloxjEo/d7ot8XFtJTzczgIpvmp32dGHooKadDRPNKlawwtDGM3+bB6hYoValnoMIV7cd9WFs427ThUykOLFJVBMfF29Rrz/OvKoLPiHjc4AAoY3j5B9R23NMh7v7w1ArgN5gC6kbjm2yb9XFvlwz0wlCuYIQ1aPcEM9A+p352OVeS+waF41a2338Z+PVz3D6q7v189A31urAM2XCf/PoclTN+Q/fx8j+Pus5TEJywHhlP6gznb5MENeDhncLYhzxgk2VDn3fEmMTGt4EZtw5aMPI0dt20kYMAVCSHUfxs29nJieDJ2G8Q3j5jvsX3Khk5fajWHgwJirs48R2JE5azhg/du0IRFSmOfHiCGtIgU07Yq1RugCGJwgCkAOGmVlDnGaQPU0mOlrp0JePiwFUfBcdQYh40iYY5a0sTfA0XYgCHHkBX7usQSZ53rFkmyyu4Gu4235eaDiidUXuVG32Q/gLTNyNnAvGhJTJXuM1h1OXNsYzyuvlivahzXCktu0ezotQAwn+pkFdx1Bx863ao66OC+RblGOHuLa5eXz9acXsMuBkt/DsxhtUxxjLgxVjrwkAe9GkuP7ZYeGysqVGFe32/Vs9Is2zU8GrMOC+vLrWlMq6dvRBuc1zMWtql78XKNNdSpZOF6jS9YbL7UxTvMqLgl1kPLbJdWWOqsqlT3lnt19333ac/+DrN0t3IDAzFg59x2GODJKloYOwz47vS0pVWqE80BLQmDkDdhOxY9nQLyQ4RBAp92/zTziizVlta3qNgAWVZTp7rmRj25vlN/13WLTtnb6bryQzwIOLqaItJoSB68PS7m7zI/t9Em7Ec9M1VBm/m9Emn+djLbD6VQvw4DykeEAsicPPYMCNt2xbCplL10nBjMx9rLbfjec5lHTPxYWWWnPvuuojPS6TyixNH5EQfxZXGaQlIyswFBgx5zhOOopQWJkIUHwGLcHR51lwaACgm4hLEEx+g5ZsMWldimYmDi1Otk2OaSrgcBLIAyZ4AcZgvMYJh+A2bYbpS9Nj0DgwbABIJh8B/EAKJ+xqDIyS4ZyLIXcsj+ySY922GGY5PvsAGarzKO2gSYWaocN2iMj/t63LalyTDhl0AzzYWmsEixeSRSS73hLvgjpeb4NjcSHc0iRhfzsnWRWUz92Y9WRC9hVK82KAKcfW7g5m2ovDxHfSGxVVmfXGDQG7M0Gc3Mz+zrUDkgyJaXIvcYRCK+PDduAGwwcDXi4cDDBkM2eVOX81sc1vWPtMo78ajcBgHrqgYw1G/8DXgldk+VyApetJe8paipYYfhPEiAng/0D1qaZg1nsljGHu0bLtKeXIm+2FWiz7sYMdoGKNrwGlyV8wMoOu+LSqY1nzlOR0eYHPyAR+70aJpD9q8xGNZb9W6oLHMTnPTglte+/hH1Duc9TlSqrmxKXcNjqrZEPM/SI58rXd1arVqr8hUGhpX1lWqqL9U+S1gc99ZU26DxtcdpoKlRI5WNKp6/xiAI3936rdYWM/XgDJW4HopLqvTAnTdqZ2+v9rV3qftAe2wFG/Tgx64KvgUzYSkcYSJO1aFOnfdYdHM50CJYDGWqZcIDC1rIBGENbmhllIf3padLKiz0eUApZtAoiR0W9a2tWjuvWC8uekDn7bpftRwUjLRO/VGfSIzwjUW73dYQaD8cRMyKM/xGuj8KdLgQSDU/yPOoEKMMJ2szP4H4zkqa3cWcqu1r9kQlN1sBODfRtu/zri0v3Zc5PKu4nAmXlvIcn01pgKQNlZs4HskhIbKXjwMOkJR4AwYbaSldGxRtI0GhihIOCWscCSoAxKqkVdkRN5wRu5lPZH6R/X5pnhFjFZf9hKi/2AUz4utRj8zsacyx39E2ewUDRC3RDHKdGYMaL/0PB/gmsMMMjhgYQzp1GCTUsB3G4eMZ0rFEy/7J0YJJajfS3pHMiDtEzmFs/Nx43s8YMOMZ+6W42KNof0uh06ySMrKzShybb21QZ5lnQ+pmIGL7SrnDlRk0mAM0/zzqpE6QDVRIWlb7oo64rjSgFZUrz2o0AMqG6loDbj1quJ+zsBgLOHSone0GMaNXmYGJtydY0UAdHkKidFwD9gN4mQLJtse449P5um25oac8YyyQxmILr6LxvB9B4izinjuksUYnNU6pgWcKWQ1izqvaQDsI6JP8VAAhW+wiDPE4S/UGlsk+S3hW4ZnyLHYHZ+FtcW2ppb9SLW+uUV1VqTpdhqKKOgusldox5jbq/LbH92esmhsMl/CNFINFo/lUhwTlNl7mgaW2sl6T81docs1pGl2ySsXzlqiYFwYMsuxhAKjoAtNI7BYmbvv1VU6rWLt37VN/p9Vot7shay2jbve0fd6BZrcErGOhEx7HDD0ChfsFOxXY4ZG3gMBrgSzqTPGcyx3g6AEwvbjg5xFa6MNuC+UemNoWNus5NR16/r5b1bqZj8+5jmkXSI9s2+lyW6l3O2i2YbqChSskdKYi4P1RpgclmQHkIw2UsUpqMOMjSBwUy9sm8bWyADPSxp057Wc1Ld7jZIK68CwSJZ8w4HOjSVpMzxpqSSD5ZUWk0cYIaINdMMwxHrxO/Yk2wfwjqjUqNTYvzyP5RINxhXLNqne2Sp4Baz4DXYMnq9MYFmNy9meujvs0sJgXtB37Mj0as+E6tsDgb79Rp8GcD4s03JuwGsq2JICbZ2NCPNxuqBNWed2oAfBx5wGVeRrb8af9nw82SMNphTkt5NA5YrHIJlRum1gcIt8xKe/OBQqwhxARqAK1024AkZ7AqM7cX1WdQaMpqcKosDR6OgCqJ+o1IFSC5Oc4aGOgD+oo372ZdHiksErHjdS3pM223VsMhh541L3NnceIxXvbjb6PenXAEkaXJUjiJS9UICvXZBf3oB3cy6QSDBu2R+1PvpijhEJCSgtS4MgBY+8Sg9CEvWNlFJugdNrGBc4Liz/MtxXFus4wG7V5ewZeOB8DlLdyWsv8bMzn+rLWQD3qtskCd4/zNuRI2XPQNDWuQfN6wlrQsppSjwtTzuZ0zJHvHbQ07+fZTdDKa4sVliYtGbfW1qi7tlGlzU2aXLBBvYvXq3TBKrOy1AKj+4Slr3H3hCnqy4LCqLWQX//shxqvrFXXnj3qO9BhrcWah8swxjYc1yVvsyAVUufkmf6F5BjaFN+XMbvGfT/mo503d4soF1+zZKsX2hjtKfxt037R3BBkmucv0BmLq/W6ym160p6bVLXTgwpzu+wc2OOIG5D0XTnsITXfUre17f+jTZE0KJ+pzNgA4iOtQgNwgGFSgZH0aB5kh3TNKNsAFpUTB0cEp218TQfcsGqxOAU74rF6XQowQs47QYLCQVx+1PG5WtNqblSqKyJMun+QMv+DYfhD3c5bsmDLCjYrwQghM2nNJqKMGwWDe4ptDgYujAEJngcgZvHYMFIDiIAe4AjgZZLs6LQlUSTdAqjFPkM/G+oM1+5YqP+sGKdV44IpPB+SbzybQD4Zl8wNOvaDzjKALWbahj2iAGywgnIwzgBoSHjsTkcyB5y4HwOT6xMpj7lFpD7Ah+czRqEaEYfVuvBD7WsGdVx/jIJ0YsCWuUj4yEDXudvquNVrFjhaWtPzqOtDljCQXGGeg0X6tBXmKZEkDSgBfIAjFHNUTpO8ArIAPXnAnywQjnZvd43NkOMCIANQAX332yLC8p4wku3IpI6pnFCj1d/oyB4AWirsBimIx9JOm8Gx2ur1Tku9I+NF6jXPuMXhJU1WxftdDwBCkyXQNY5jwGr90trJ2M5SbhRusjq5rLpYDQaMtZayF7Q2aGFDnRY1VmthS5PmtS7QwqWtWrrqWI0uthrdvDj4MDVt0QCp2ao03z6fdrydXYP61c6cej2Iduzfr/6ePvX19lggN1hbe+BwC14OiH2sXLvcZI92CfDFLgXahjWf2AIHkNJ+XCDANNRn8xMQxY8tPajayK2AOmd3Ll3UqkvWVuqt9Vt1zv57pXYPhLQhN4e0FQreOVHqhRXorN0cJQL7aEpug5bAfJF5Hg1iL11REfvyPZa43CGlmX1p9dSd2508NhUDRAUwSltQXG0O+8pLL9HiRQtCsoyjj+hIkJkIAEaE0atcOfxGJSV+Y4wRae43Ki0Rz+HGn8YAKDNK85ZK7DOkcRAPxiH5pR/Rx3iOJDHxfWbUDkcSK8E2pJ0CZQH9NGF9mZoNkkEhLt9P+zaxC8YJYWIF3WEi/UIx2Zrk/5l8RHkx/slMNNwI5+fiLhShIn7STPsUne+CiT2jzjvlSYcmENw/UwY7d6SQupCImFMLSZABLhucDBwHdiXw4T4ZZOWR55gLZBDDr9ToE4totLuI0BaDpZ2AC6pWT4fjsSRZbQkxCoq/AdFWTAKyqo2bHyqWMEiAgHH4OV0aGQxnTsvSsIYB7ALHkBKpcPIZ5Zvy7SmV2a+DtGgQxJPxrtzS6uiw1fVh3eLke+NtDhsXpZu9k6Q/aOGim1c6p9TktFtdnjI33BIDDhu+EYq6B3NWnStjgQXg5QDaipJJ9Y+WxixDznmd9LPM/bU4XfpLOYt9w/l4NbjY+cwZpCdLq7S/damKFy3ReH2bijwoldQ1GqOdiAcZJD6k9NKScd3e2at9HkwGzCe+MNnf3qW+/oHYw8hWr2irJRV2uw8a6OiD0dYMtGgiyH5U4RSDJv0z2gplsm2gnHK/ZQAGXGk3aFQIO9OFfJSXV6m6rl5LW+v1gsXTetPUPTp5YrtKxyx5M4hSP5bS4+SIvsK0xlEk+nYgSSYVZoDI9SMNjkh4cWINHcC5YAuvuRlMRIJxrZjZiPEwekLHrF6md1z2Cr37Ha/T2y57uUdIq2jO41hbs3Y+7ymR33qrFK99xfP1r+96iz7/4X/Qt//zozrv7NM04U7T8fLnu1WWW7Mq1Wv/+Ln66Lv/Uh/+h7/Qi597sVUOPnae+uFodbUGLz5P7a96vrpfdonGjl9HkwjDG2NsZxiziX2PbrAILJOu7B1vfbWGl8yPkZGuBkexiRdOHsLNxO54nvsJDPG0oR9jF/rhoeT03PgCaOOqQHaQHbdjj/Jpa81sE+c5FjLDSB6Alx4jxniWRcE0hXAQELEBXDba8u5sEIEpTRlzXTi5Lti0IxYi6pulJhv2F1pNCwDjeaREpDlWSlmazbv1ByAWDPOQbOtBcgCkAFQ3j9i7CKPd+V34FJeBIdzMszEfNZMPG0CJvDj//inYJu6R/5BCbTOQAoio+DDI9/jMQDDDqvBy34pw5MHxV0S8drsdWR+NZ1qqp2MhJdLnPpXJnKulx2mD7G57XTVmvvp+DfOcDnN/76jVc0v3BsOVtaXaa9BtcLusor07D02VCAPGegNenfNGf2S6lniHPZgsaqpWmQGoydJceUWVVjfUKG/QG2yYr6FjztDY0o0qalykYt58MehOl1rmJO6eEU2VV+rKH12uHg8Inb19Hm8OaLCjJw4lHhwY8ljiNuOkJumR1jRQnydtWEDJ9rUiSNA2JgDBYqvYoYEkCTEAEAky2qmLSz3aBJ44TEyPGSB5+6qmqlrrW2v1koWjepXu1/G921Wxda/bjeuWQY2vWNE0HkHKsC8j8km1B3EzM9n1I0kAYvqSX4nL7cLTYKPF0YCxbWjMrgTeD37P375ZX/vvH+sd7/6IvvHfl+v4jetDwm3NjeuPd3fGyvQ/vP1/xeLFW//mA3rTX/1zqKGYcov7lz6wI16resvrXqb581r1tn/4gP7yPR/RGaccrz+6+MlRWeze73nNi5Sf16z/r70zAbCrqPL+6X6v+/Xenc6+Q0LCThDZUVlEFAEZF0TUcR31Gx1HHdzGT8dtxkFHccZZFdFxHP0UNxRxARQQEGTfQjaSkH3v9L53v+//P/eel+rbr5NOSC957/yS6rvVrVuvlv89Vbdu3cbv/lxqf3+/9NXX6Uj/7ssvkOZ3vFa6X/kSbKels3GKtFx9uex+42UohLO1D6xrydHS+rY/k/aXnosKESUtfw0LWWyz7COeKSSCfi0rsBOFSY/xZEuOBPSiSQboJcJOHAqFT60k82hekMe0ZhWeqgUYB+Eo+nQ6UF6Pcz/Fif4RV/19cNykGLDwcslYsQncCKuOs1ezX5Efn+crXNbfwLBQoaSfFidO2cPRblhnKnGyWh5HvqnKM16wjtR6LFV1gphiPywqneGGg6xpodJkZ9h8FY+WIUWT4kkBZBgMk2WaA7a7cR6DYvOScdqF+NEaxHGdL53h4NDTCCIn9lj20BqmY5w1PXpkA4JqoB9uw2LkuyFsyXDy1aqarDRAZE+AOHYhTvyWCkUljSVvrDtQdtn8TKGNvhlWY3SdUtkFM5BisgvnsBeghsKPaKZ6+jSZ93T1S0V5RrZDEGtRjnbDbyduDMdOmyGtSPO+6Qtk28yFUlpVrVONlcBPij3taIYP9nVIf3OH3HvP7yGk1bK7rUP27NoZDSlDHDhxiFqI+B197DNlnPmTURdLkdb607EjutlCDFk+IIyIfCSavHlBWKL3/FkWojKkN1r8Nn2LhV5wjMZPeUWFvup6/Ox6ecPMHvk/1etkWdNqFC/kfzXTH26c0ZoYCiCVcqytRMJvO3OafM71l4YYcYorfguEQsdE5ZLCWUbhm1Ivjz7+pDy3cQvKf0o2btsuDzz8hGQQxrw5M+Tt11yp3yZZdNQ8uf2uP6IFl5Kerh75j298R84+7RSpQvj/5y/eJI24M73onDNVXPVToGiyfPFfvyUXvOgsnVE7PbVBZN5smfW9W6QCVmtmyw5pvPcRnY+x/PEVUn/7fdK+7ARpPWGJ7L34XGmrrZHaux6UNJoktDpKKjNS9Zs/SPOF50rf/DnxL41gYaIjKpAsPAFRDsT5ENWBCO7Skhgvyb7sikFYagqODJs8/Sy7BNYZgwjPYDON8RoO48k8wYInUcyRNuwj1UKvYoT9LOx8wMESxcHGPKGGAwSxDgtErT2tKHQ4rCfBD8PFlWsEwsTbB8NkXyGbtxABVRhYOWqZwTjVa2jfI8KhY4XkNdjvx7DxX//wGhRFCiDThtemo/DzmpWw9qrgKLxrnsM14Y/CyN9HkSsZkJm0GvFf//BcLimitGQYfwhJFs29zbQsGRecdxosxGWl/bK9AxY7wmOf7UqIJZ8ptHcNyOqmVulq7ZM97e3aUmxPp2VJphxN9X55tq1P2mD9zaool0YIdjWuQRHVj1WVZaUG5WsOrO3ZaFtvR+4dAzGZCmuyC/n5ov5uiGeV1DfirBnzpXrO0dJXOV16Ocg+VQWR6kcq47e2NeGGVSGbn90oDz/+sGSr6mQ3RHLP9m3IpnbpaIG12NEB8eJoDcYf4keh5NNpltmBXtULlhXtDUHcmDQsz3x/WrtnsE17hjal9in2woJEndbWB61LnMuHhrT+eVPmfTaNG2kV8mTO7Ea5aqHI1a0rJIMm/USgxTOfEI61MJZlyvS7J3SVLBRwGVhknLOwCuv8kl4Gd0N+/InDXU464Tg56fglUlVdKScuXSSnn3qSVEDIqiogZqiE/LznJojYy84/R+prqmTOzGnyjre8QZavWivlyCz2YdJieuSxJ+XKS18qDfX1Mr2xXt73zjfJw489rRZrGUz2yt1NsvvSF8tgba0MzJgmbccvlr6zTpamK1+Gpvp0qrmUomLO/MOfpOaJldJy1Sul7cWna2Ure/pZSW/fAxFABY4tRf6lY2rSMOdQCd4AGJ+o6cil+YiXKCy8KeigdXMMj0v6pdWkNkOMCiz2D4P76Q/XQ6GLziqJgsK/VEkaNx59DwJaVCL8bKyOOWO86NgXxWsSChMFkBYRsZJP4WB/I9cpGBS1ajSBeV4dn1AjjB1boyE1tA5ZrjqxTuuPFiU/hI+0T6OqZFo70MTmuQgTlVBoPVHUOKCbnyKgVcjLs2nFJePAcW0cJM5fwf5E1lQbJsRjjD5rnVlzXGcTn+LKOHfimpufEWlnnmGbb8HQLxTrSVwysuixzQtyyeOsrDqAu0fSVSXQavhBWOzju6pqQC6u7ZcMBaF5ED9hUI6FsLMvmkkxt6pMtmbRPMbxVuRbDdJuD+LMYTYz0Fyci3jtUgt6QCeS4BsyfI8/jZ/HV/P24LdTrJagPd2H35ZJl8rMWliEZaXyLJJpLloxqRlTZdb8pbLr+NMhprXaAirlMKJ0tTQgLdMZTqSckmcefEyWr10vXUikJjald+3R4V18zbQDad+H/X3IU32ghxRgM5mv+6nVh7hT5Gycb9T1AqsQFr5al8wC/KHFyEluKYL60JThoBwxRXUUBJvcyH/2T3L4XRlaj5xw4sRppXIBH67hGmNJPp1jkcnLWDefORFCJQpCBe6KGX77BOLGmYUrYfLTVVXCISM5kwzvRP92w/flz69+lfzjpz4k17zucrn3gUdVC9gBvGnrThXRf/nG/8rRRy2UL37mw/J/P/JevQ5n0qYort+wUYX3P2/8f7h2mfzTp6+Vv/+/H5Rde1vk13c+APGtQOEulVn/71eSmTNb9rznGml54xWSRlO7bMceCDTugqccK5W4k5bBUug45QQpWXaclMOaKduySzI792gnOid6yOxqkjJU0BSEmmLNJ+PM8BIc47TwWjtix0HqKfwGTvzJjnRrJrLPVSd0oDCpOEHOsCzRMCHgFEeGQbHncQ2X55mDeCMs7aagg6Bwcl79ghuuYwPgOZkAB8fr9eGvBJWLwWq/HgUO4acYLxbOqJMI+5Ahe9DQRGVRR+Gg4HCdDyvYhKUwzUATuhGWCme92bErsvwYDuPKwsgpw2iplVMSkQZ81EurjqIJS1+FsZP9kTifokhB4jU4jo3XYRzZP0mrg0/CKYiMm86nyNynP/ihELIZrVUR+zg1mE70gG2Gz2u1QxwZBn5HCeLID87vpvWJ6+D2JItosfI4w4FFpYPFB3ukEpfiQGZeoxTp8NzGHbIFN4AUbhbZ9KB04bwVsBrXt/dLazfKBwotYqx9irshyDuxzGZSUoP05+DoFogQv9fECTjacK09EPw27NuB9Q4IdQOu0YntjoGUzKhF/SmrQLkuQWuqQebVwYigtYhr70W+zpzWKNuXvkhkEcoqmtFM81Kk1d40WkQoz0z6B+/8g+zs6I6ea+zapS8eRC8HdEkX8kFHQKAM0HLUQdwUPJSBaGwi+/xhNdL6w3Fus65a32M04oFNamY70oN5jzLJBzODEEwOAeIufWrNcFkKkA4ptATKkb4vyHTAgkb+jDMlK1euzHJS2a9//es68/bTTz+tbtWqVUhDLVlDOFyfI/j37/xUbr37IZTLKLE5JRgTUQsu/msG4vJqUekOLqIHQBQHNrk5bT4HefPJND+AdPVlF8gPfvpraeFdH4X69FOOk6VLFsl3b7pFRZ59G3y9j/cp1geGo6KESs99vGtxzCGbhzrOihUU++Or6/W5oXc/xg3ryMM4nSytkMs8gX4Jf0R8LExO3UvBiX6kXoVxZMHhnVbjBz8Uflpx+rvhJxcEzuO/KEK4ql4vWifqL/7DRfS2D5a4pi7ZBOUKfwtLZvzbcvHmMQV3eQjsqoG5UfOSAkMRnrVE5LVvhehBHDh2j1ZVE/5s2xuJGaf8akTzmXm6fC32QeiOOx53KVhpT21BbfwFCtMKCBT87F0vdTtWSP/CM6TzpEtFltLyRjw4o04/wlp+eySMZ1wpcgyuy7D1cT6uW1WJbcSHj3PZHo1+RCSGzYgPypZ+XoCvJHKmHAqdsQ3hr1wt8ug9Iue/UuT0RSK1KFt8boPyM7WiVLazTtLEtqC34fd87TsinBm8IiuZt16M5qZqjN4vPlq6TTb01sn3aPFCOxdME9kI0fwbWJBHI867IHI7IdrPbGuWZzt7pBM3y1m4gZw/s1qm4qbdgotMxw1sSlUKN6sS2dvdJ60QY05Ku6mtR/b0wpqEoG9u69Ix51PrymV6ihMND8rjaM5nEL1S3IRWtffIlLZWWQvre9amp6Vn8xpYxGtkIF0vTRVTRJ5dhTRG2qC81qDJ+orLr5AqNMGnQ0inz50FCzSNextabnU1WtdICfuUUW5KUCj7aAqikOrktbiLstxq+UYasS5Fk1Rgk/2OKDL6/STUV5bbAdwctbyyPmLBm3FuxiwKJEUX+c8W4rvf+iqZNXOqXv/5MtLM25xg9tRTT9WZt5966qnIUqTKm2WY76SxQK8Hx0qq/YkcmoACXg5XgSZyBZYZWIwZrGf4PYqaGqmAK4flyFeI1AqLBZMTrLLS19bVyutf/Qpk7HQ5+uiF8u53XCNPPLNGMrjrlGUQNgpqhhYhR9rT8UEPrk3LiHPgMR403zm/HAsCLUwOPKVVW4b1MpyTRpNej6sgx9Ydk1FFBo6B0RJiAaCLhbcMTn+nOlpmbPLjfFyXp/JctQ7xm8roB2FzSjFatZyEllYu04gPp2iNUsjpt5RLhgP/bP6aY7M4crT8mFZRPNQvBzMznhyETT9Y1zARb35FMIVrlSKNS3G93tJyGFEQNAoQi4gWD5Tybk76QNFBYadQ0lrkAwF7l1k9Yx/H9TWiUFMUm1ojkWT6EE5Hg4qoImeNFopdH5UI57Pi7VoXncsZeVhmUAlVpDLwz2uxxvF0sxT5QAdeVFT5O/FbtNlOxbK+P/rjcBy+o920G2Ez/3gM+yGs/d2Dcj6atbWo9NWw9qJ+03jZjjjTsuRLA2WDsrg8K/Mrs9LLuxgEd3W6VtqYrkwPnNvCh0IIr6p3QPYibs+2d8sWCNVWCCJbHyfAql7d1C2PtfZIN5rvDbjbUoK6EUcOxeF3WKrZb4g03ds1iDI7IBuauyAmg8gvWIi4zjSUg24Uomqk7VYYFyVlGZleVyl7aurlBRC87QtPkp6jT5JsHRS6DzcX1Cd9UKWZWYafVCp33vF76cbdYCefQnfDcoSgdiDufP+fr5FSvGgdRq/EcqM/GqKDdGaSst9Qx74inZhUag1CCHVmK2YHHHWGRskAyrqeA386WQnOY1bzlk+DQPsZ4Yd1hgbBeINrRhdVS0Qjy58QbY8ltA77erqx7IkSECnEK/OqkT0UCR0tQQpZhi+a89OfqLw8TFM9eoODFmb0buaN3/8Fmi9b5a/febW85pUXyT/923dk7XNb9bdQ9KihajHZNgNi5qCycPYYVgpO3c8LMDMoIPqpAAgFv25GQSyDo1ByPwWFQSjIYK3X8TbrKSRXHRqq2IJjmubSNVryFMLuLI5DVnBI3/1GHNOofKUQ4xSaSXzNMYV46KuNQ0A6xWsabBAPrnATPyXKU1Vg+jYPOKCiQAfxhAiX4RoZpPWWkrmytn+2bGlCxeZ7x0wsBkYh4p2fVhcrP0XG9vGtFa00/EHwi4XOol2FitgBC56znzAOFGValL1oQsM6aOdbLoMQP1rq2o+IE3vgnzPmsN+RYan5jP38HRwbSDHlNoWQQtyJCq81EvHlfoomxZNNecadgktx5DyPfA2Fs7FwGBDNcUaUAs/qi7g/CyHbDBHq4jVZJvhbWUb0KTrinaqT1JQa2YTfvpXh4br95QOyLVsmzzJtkQZlyNQqnLMU4liBdY7tY98aX7Hjp0ab0Uxlf9oLp5TDVUkD0iUFkeUrgXzdjx+Nr4TLwPGGyTpSgfg14jdNQfq0IK04bd2zPVmpwXY1hPC4TBoCg98ymIJgD0grZ7KZMkUqps6SvQthZfOB1ZSFIg2w0JmoLEo4rws3gUeeeFT6JCM7N26XrpY26eR777jZ9OG3c1aoblittBB1vCvzGnmoY3Jh0aEGIc058Dt+mIL467yd8K/CyPTBb+c4WKYnazu7vthtwpYXp7mj6Gr+IVy+RMCHoWOtQ/nQWXJ4YW26BZEwcRwrdBqu9g7kUfy0CwWaBaW3E0KJZR+feKGgU/yQ2kjv2DJEvPQVN3YId7QjjFa4NpzXKV1tbXL3fQ/J57/8dfnaDd+TDRs3IUMhuuz8pXmOJc15zhWns8Sg+cC3TNiBzXX9NAKvx4cKuI4KJB3SRPvnaB3A0YKj1CDVouO2ZJ1innKXgg115ocFwvZF6xwwS6fjD/GPdZ/PLrikFRt9vwXWYjqDVmIGFiH7BHmUMEzkGwoSh8+oFsFpuUNcdFgEjrMAaic4HAeA44I4xt8ZR1gX8Iusp9WYxrU6SqrQzJongw1Hi8x5AZqisNj2wjF9NE14fZxI0WB/G5vWqDQqNrQO+WSX8aMAsnnb0CjSiqY1h+jo6358lIywOFsO8nOQNzsKKWfe7kLF1QHNOM5X/3i9NPzTQmNlpONDF4oRKpaeRzGlucF1/Nffw/OYVOwHZKLwt3Mf/fBNG1R8FV3Ghf2T/A0MEyLAJlwvxIUWkD5IMkHlmEtaoNm0NM6ok7lIywEKpk5HNij3oXn7DAQ7A7EchFg143gX4sLJH7qQaC1In0cQnxbEg5M7cGzi4tqM1CEt+HpqB8SkGeW+AtdupWW5twdLWGfwTzHsR7zZp8i3UHRANy7Lt4/KcLwOBa8UN84uxJkfcKPi7SpPyzk1uDFnGiRdz9cmK5EXcwVtZhwHC2dJ47QZMgXN5iZY/mtWPyNtPYgnwuzY2yRtrU3C70vzHX41QJBXnMWb8wHod6Np+SFd+pFfdDr8hvvwW+xlATaVeT+hFYj/OM59KJXUHeQLt9kFxjdgNPtYnvH72LerdWycGWIpjisoDD2wHChqFDM6ihtdVyfEDkKpk2GiYjAB9RQ6JJ5Oc9XVCb/tOpNwF4RVz8c5PRDH7i6ci+M9EFd+qoCvL/GzBfrJgtgN9NNx9D2tTByHG8S+LJtUKMiMH+9UbJqzGaqz9MCKotWo3z9RVWCGJRxznZmPLYXbjLn+hthP7MIM5xpDVbmLs0I7nXEz4PAlWm+0Vtnkp9nH7KLIqdPrUfxU/nBmtOR+FQeUNI0R/cFpeqp6wlEoeA79wmLS7gSOgRuAJcHjHGt47ItEXvhW1D7ErnUHzoE4tcVzJlKgaObyVTeG29wRWVP8IRRH/UGA3zcpgVDuhAhRXGg59uG37G3HNsKDhdLJ6/GYzbXIph6b0kwPvhYIi1n385qMM+8+FDuKJ2EC0vLR44DHuM048HeqfzjWPFp7fGDCqciYn9rVgWMQxhLkfxvCzzAchkHH69Ei5ucQdHKMUtnbMEXW8H08Cieb73z/GctGpEW6bAD6068fompGnOugXp0QNN4AZ3Sh7KF81gz2SjMErg2i2tQ5qO8/01qkcdsMv/xgP+8naZzLSUfY/643N9zY2xG3KoTbinydiWQtQR7M5w0Utt7C6gqZXZHSsYzTYaXC7pfW6VNk2lFLpJMD62dBFOvmxHmSkqaaqdI1kJK99dPkieVPyKY9e2R3e6+0Q5zbm1ukHaLY0doG8UU8YMjoE2m9GcCIYJlC+gziJsU+eZYhimT0Cil+L/sIKX64ebHEc+wjU1PLLfJE1/G7mCVseuvLGiyjLLHYZjfSeDPkw1VmMY4HHLBp01P1cWorFNJo5houad3hrgSRogjqqHiCqOkU6UhsChpddN6+qa5UAJlZdLAAzZ8+EcN5DI+fIFVxxT5ajdoUoBDaUiuCpQObv5E4RU9zo3459g2qMpmCYalb+MPYWj+tPpTRu2mU0fojFBzDP2Y5HeuzGoAMBEs2d/n0OXoqDOuQT4/hOHMQn2jzSbL2par3qBnC00mcWvF2fD29dHTNff/i/fEJUZ9mSi3hTgoWPxnQuRuVBwJ53KkiV31GZMZxEJOtsLB2iuzYHokN0jKypLBOy42RolWn4ogL6IMQ1NzaWoQH64xvqtA60z5BrO+GOLEJSyuUFhtFsQL+NWw4HmOYFRn8QXjIR11ShJHP2uzlPvplHnIf+/K4TVGk0UqrlBYjr4GbqrRCbGEJadOck1sgXy3vsx39SFtYY7xx0NESZFgUP45RxM1JcLM9pjots9k3R3ON1iQtZsSZkz10dEI4cO4slNf52L+jrQeWWL9sxQ18Pcp5W6ZKGpHO9bgsSizymJYRH/YhDPwudrvyKXIVwp6K+POdK07WwcHPtCKnsDkB82tbO4wACDEnDtkNy3Q6wmlGuaiE/9qajJxWUy4DiG8N6lMNbqj9U6ZG6T7zRJGp80W2tkKB90gTpwjfuF76m7rlwfsfkA5Yi0002jnSooMzMKEpjetz8mPWU5ZnvsqaRUuBb+uw2UzRo9iz7rBOcTYdtSYRz6j8M8pRLeDP1CE+TG/EXYVVBZXZwPessUIjQPN8/GCdVUvRhJDL8bIYjztmQWQu4y7fjztQPxJGX0VCQkVmNBMLDuuMHVtpWhFimMQUNlZIfgxfxZPnZ/m0K0pkPReOCY8VnoEzuY4fjgWlROFxDdtcvB9oYUVFV4GCOFGQ2MSk4rARXYbj7BBmpzmnNNOxVioukCreJeFHPxuJ8ymvsfzBUbI42CPaUhWkPy7jY/GRaAGxir7Qh3ARh6g/k3dfhqEesIxEjXNO6sMVOPYT0q8+EKIViKa4vnfMIUIMxx4IsVuAw3hgDZdinVa1CgaHzaDSSDcKO5uNl8FifOuXRBafJrJiOWo0BIbipOKBdYoTPzhFK5ECwmYqhQrppMLIsYldqG1857kMlorGHaJIYWPaUwA5YWwn+zBxLgd904sOyaGwcRs76J+FgtemIHNJEaWacD+vyX207ogKHPdhSXGD9cPvKOs5FEXOQch1flAF4tjN4T/0h7KEgqjlTJvITJeKeqx3SGdlqWzlKycoYxo2BZddCmyGU0ghVi2IA99MYd5R2Opwg66FqDQiGXag3M3CT9kOsa5K9UtFKfsRB/WJM/vyONibbkdHn2xt75KZzDb87o29WelBOjag2X1mfbn04/dySE9ldYm0D5bKHIQ1G/nIOtHRnpVWCOjpDbXShptbdeM8KWE/6uLjReYgDxtxo+L3qzdsjMaF1tchaUvl3rvv0Fl0mjt7pGt3k7Tz/ehWtMDw8zrZikO95TyjFD41KpBGvJ6KOlAdQZ6zS4r1jy0+dgEwLzmqg60VTS3sYjOaFieNFuatPonG75k6rRZFl/Vg7EgagYy3XjEUwqSnseK4Yxfrh9iHgPRkOY6AGCFekdNN+6ML3pXiFaQsljyPfUrx/lwwWKcXE47ccfzyXBgUI3WsULGjxUPhiUWIVhQjEn03Oj5H90EkYfWUVlSihVctaSxLIDg83heLKWcDouCoQFGIVBhxLh3CoJixcDDOZjvyxSyO32LdYkGLrGMKP++olPdSFKqU8LvVFFxWOj6USfFhVEUVXDUEDulLiwyuBI7x5JNJznNXSkHCsiTNJ9qVaO4h/jyXv4Xxo/gwRrSe+ISY4sYhMjthPVI4TrxY5Oxz4YdiAH8UDy71yTbixHWWJQ7joGVGx75EfraAH6hCZZG05T9/OUSP5zBdKXIULYoMLUk2Vyl0nMuQD02YRPSDJp5mLq8DS0SdxhfhsILxfLMOVSB5jPtxbVqy/GwC+yY5pIjnsT8Ull8KotKFn6zXYJwokPqQhediuwxC0tsl85CllQyTwssZGigOFEQKKNSjBGk2AHGbV9onLbSuIAzL22FpIfAWlKGZTCu4k2pwM0MZ3g0LdS+Efw5+ZwlEpgk3FY5X5Kdz+c7+ToS3oadXShHXDva947fsQvjsl2xC3JogauWIcwXC7kN61eM3t1am5DhY6y0op7P4W9FULuHM5Q24Ecw6AaJ4LH4o1rWsYMm+W1gMzU3NsnL9OtmL+LbhhtjZtEc6mvciW1qFExTrd8PRlObNU2fKgeMMT6yKulThg4WI0NU6xE+leDKLdEgO0lEfxFBUUQe0qKAcaPlGGWDTe+mSuagezOyxI9Q+opYi/5gzERoPaqqr5a1vfBUEBIKBJhOHg3CYSznucGyiRpPK0mrBcYoJawKjhgpnfW18CwUeUZGj5iXfzdRmJY5xYtoS9v/heDRRLS0nhKeOx6OhNuyYLoWVp0v45TkcllIaT2CrlqGKWdRsjoTQMgrXx3FOjkth4cS3Olkux07SqtPjDB+iU1kD46haRYlWWT/OG4D4UtwGIWqcRUSFMBY7ijg7sfWLeyiE+p2YHs6Yze4AVDyWIoo37A8EqPEtgaVaDmGuqKyTyqpaXacA8qk1HxCpdaYPa2DRYj2NZQqCo4KJylCqx8tg4LA5BFXgGEGKrp6La9GaYsWiiLHJyGYw31TZS9HDNl+V04co9ANU1BBPG+5iooffo1/0w7V0gB/TCb+an7HSPCb6Vgf8EYpTJawzmikquAgXQqGCSQGiYDJNGCeKM4WTQkXBYl8nw+W1GQdam9zPsazsHqDgcho0lnuGCXEZbOtGRY1myVG/ainG51FkMzgHzWf2DHBwNgKHo1/sUOsS69jPj1CVI161yMMdLd2yBaI2BYLWgzSdgjQuheuE/zo0vVPwXxX3kW6HZUihaeDM20gafuCKH5Da0NEjM1FX+F71NKTD1tYeKYXAdPTzye2gVCO+AwhrL34DJ1ipQj5Mxc2nKctyzVSGtTqzEWnFtMfvrUeazjwJwjgL28zjGuQHxJHxx7lrH3lantvVLM3dWWlDs7+9rUV6W1qQDINaFvW7QCyXiCvLJSeq1VmWeAPAUh/0MfWZjlziknqDRx2KurfgF79NZ/RGHtMgsHOoAwvnzhg3PTJ4vdyDFmLiOB7QerroJWfJ/HkzYbCwIldJRaYKFZljFGt0zGIGhZVDYHRSWSSkDrRG5nFYCsfspWERlcEPR/FneC5chvsgBhybmNElnIZXq8tyuDIIFM/hdSshVBUVOA5Xjv0c+sMHGhRKzgBOZ4O8dap2FWc6vg7HJbsf6FA1mOsgskojv7Qay1DQGC86Duvha4kcqxgJNMLnAwgKuHaA8TwIYlQ/0HpEswOFTz8joEOYcGdGJaXhwjTR5j3ixjdlSiFsHNtZWVsvFTX1OqaT1iPjGsUZDufwNT69O+d+A9axrUKMcJv4lgfLMYWGFl05h8tQDBAWJxpkTeXX+/g7+Z4yRxFTbGohcjxG8TEhQqFXoaBw8U0UFUeIGa01XoRjG/U3D2rTUSNAP9p8hx8mAs/l7+D1KHa0Onl5Ns+Z8LTyOEsz7w9qKcLxunRcZ9wpXhQ0xpVWIkWRo65RDvV30S/9Ib3TFGNcB7etKD6MJyyyXLi0zAe60GRlxWf84Ci+PJ+O/rphBUGcWOFpDe1BM3RTc5e0oBlcju3Bvm6dgCGLOLRlU9IJK5UPL7oRfhfiwAmA25FuXN/didslzuGbLuyn7MY1ISmwGNn3mcVP6pN6pPcAhKQcxziukZ+q7kL6Z9EUhj0n9TgPUiiz62dAvPD7me7s5pg6V2Q6rEXeHOKyhx8ZLWtSsubJR6SprwRhpKWrrVU60fTmZzk4wzx/Zg/iyJs0+w41ebCuLRzkH4VPLT8sdZA30kJnwcL1kVo4Br1BekUzP3EdSyQ3Y/Cyl5ysb6ONtSjm0zumAoSGFtb4WYmEotjQUC9f+ORfy7Tp06WyBtZNXa1+LrGiugYOlg6sSYqIVnrGDZWXg5fTFbCIOJgblb+6rl6q4Crr6iTDc+Eqq+twHCLIQd/V9ZKpjY9h28KmcNDx3KraBp3jjYKZhpimYdlRfClorDSDuCtT+NQo0OwE2KeWI+KkT8tgSejH/VFQta+TaY04s09ELWCKN4UcYdIapRXMAeFpTohRUaHinyrHfgomrIE0w8VP1qvRUqK1AseOAfZV8kGPDrhWx5sGn47D4Rp6g8HNhZYwZzSPchUR0gKQjaSXdRjb7Mvh3V37XXkXhwh2UQBUECAgtdH73mqhWX8eH4JwSeuRliGfQrPpSQttKioXJ41lnyLFjQJGy441hnHgmyVsGvPVP4o1B2VrjADTm1BMu1qivkUKKERDm7oc5qPhAASvTofpIHwtyQhf+/OwTSGlgNFVYB9nx+F+Np87IOT8ciCtVVr0tFaZNvo0vUf6SuEHcaCoaA7w5kArkddmuGjyZgd75D5EL8tuBQ4Ep/AzHsx7XhNLNhG3w3rkdFzt3X2ys6NTWvG70yjnL2jEzRl531iOsoH8xRnQbIgf0owv3rB/nU+bOZM151bsQzmqQTJVINypiHI/0r8W5/bg7ohbmzQjz6IhZnyNkHMzQuux3VyK87v6ZCNEvhGZ3sw04w2HS5QXmYYb3rzjsYQw8vs6bMlofnBZijj1yWMPPyEdpVV6P2lrbZUuCLs+2OTNmgIOp0NwuA7LkcPpomSAQEI8tc8QaaLFj3mEFZ2BiQKJpFXx5D4oIuvOoqNnytELZuvLE2PdfA4xgdQrMnJkvKxEQlGsgBjMnDFNPva+a6Rx6lRYfdWw4iBK2M8mXylsfkgPEpB3EiQqKy6FBlYD55GL3nSBVUQBpRXImW5oWVJceD6btSg4bC5Hny+I1jn4Wo9BqNisLYP4ct2sUk0VXEfFDtfWyV1RkPiUnHc5LfTwxGY6H2pQlBSKl1o3zPgB6ELc1I/9UPDKEA/9IBeuXwHLsRrxZlM3A7GmaGoccJxvqLAVSt1hdDRKehGg3Q2oTCg0OlSHIgv/0TvUkRBrFwSbSPqf+cpim4Vu8Vw6WqucBIJTWeGw3qURf1ZQ/j6mA/xKFZpbfJWOkWEkWEZQ8KOnu5F4qNhQECiaXFLb6lGxpkNsaB2q4GI//WkRYxhQFNac6AtFUsNu9xJch+HxuipG7NhjIiAsVlbeGLCp8eD1KVAUOV6XS16D8kKrlWFrfLHs4jrD4zH4bYcgd0EUGS9a9/w4llqnOI+fPYXfUoSV5vU0P7HUtIEfWpuoxOmpddLFfkQOydF9cAyP67xW+aBMKx+QTohSBmVnc0urfmSMJn4FjncgLtPxkyCRksE6h7GwfJdhyQcyfBLN7Wm40fDJchfiw6fMzWi2bod1Poi4cvA2RUSFCXHMQHh3IV1a2NfK9EBiLUa+VcKqP6qKZSItc1B3Spt3IU2RdrQWeYPjpwBmLsENaw62+Uod8wR5HGWWdCCtnnluk46778A1OtrapKetSzqx7OzrkW7c5DQOrCtITp0kAr+5v7sLxQXCCD865yLiqONkESxKm4aNXxn1IeJ30B23eK5cdPZJOmsVy/dYExqCtj6kT3E84R2AP5qTPixdvFA++u7XyklL5yO1osKgnbD9fOulSz+sFI097NBmpAokfoCJiwoh1ok+hGAG8O6DAs23XvrZ10EHS4ADwnVIAfxo/wUyhP2QtLSYBjqQFBlM/xz4rcN9cH26nu5o7CTFUSsKKx0qLAsbm8NqbWMXe3goQGxVMdu5Tq98S4Yvu3PMI2cE4gxAFRDlaohyBS1J/A57tUknZ8BZDDEKM7och+FA2tWfvmmDNNQ+U/wO1tnoiXvUJOHvSTFfsc5Kxp5KDvGhYLK/lDcmdgto5xj86XRqLLQUJl6xHk2raQs0T/DjUFeQxhRMFF4VAYoIHfsNaSnyGCOBtMUfhIt1fpCE32SGEEdWI/bxmnxbhRWX4aoI4lRaBTxXxQWiSVGExR5duxrh4Tw+AaG4Mbu5ZFwo/vydrGj8LTxG0WRY9KOCBcd1xoGvJ3bAEuV12XRG/kQTQvSo1VXBSopwdKIH7adAuJouCI+/D2UoVVEmx1WhqVqNbU5hw9cBeR0T4ZZ+NDWjPrM2/OY6WMX8ID4tbj40q0R809jfASuTg7GRe9LU0QsBpHUIYYMF3NLJBy24FvbVIA7pFOKGm1kVHbbZX8kZ+1NIL/5kJmsl4420Z1O8FOt8YLOZ07AhPap5fhUs+V78Vv4OlDE9iRb4lCmw8o/GOloGNVjX7+jE4DdtXbtWtvaVouleIvyqZEd7i1qF3a0tagmzj1GfPqOssDjwSTP7FXUAN45r8xn7WD8pnESbz7oGLUDev+Ss4+T8c06S2loYCWxBoXyGovX8OXBYjKP2KYYmKrfHQyB5HVZO/vgaNIWPXjhP/uotV8pfvvEVctxRs3CvGkDe8W2XVulua5YuuB59cwXCCIHK4k6kJjd+KGPLBNbBoj1Rn4cO4ub5ne3SiWUnB3pjvQvr3QiDjiP0B/jZA2Q6M5RPd/WLZRDDqA+vS/opxBRkfeOmA9udUZ8IKgiTWN8AgchRbPRdZNYhZrxmOISXcaTIcx/TVY/DoXJEfaS0ICNxigpA9Hv0FSe9m3IrAfzZEBsKp55Db4iTfsuZog9Ha4J33xI4jQO8aGM6J4y8JsLhuYifPh2ES7PJSsttyjyIESoMm8is0Fqm4BlxVwsQ19CbA0WGAkjhUTHCEmmp4sarcslocroufZcR22y69kEYNU0QFwQ+wLFyDIMVllOLIQ/USmQceW0NG/4ppvogBUti4kzhYth8sMNxg9qkhWNc1NEPHOd35AQThE12+mHTGeWA1mE160Ma/hgXijuvxfPpL7Yas7C+dkLQ2F2ixyiG/J0UfYok1tknyElg93ZCPJCebe09iFYkGi3wRguQn9llkvZAGDm5EJvLLbA2e3sH9aF4B9b3oInewTGfLFOIUzvO4wCADOLGN0/K8Zv5ah8/cE+d5z2CD2ooqJTbxVWc3AGCxn5SLMvYti5BeEwrCj7Tl33FjTPgcBNsWIi8oihif1Q4kE2lsu6px6Spr1w6caPopHij7iAk6e3pUFHkmzUcj8iyr2MNYSjwQSFrihohTCvWAyy1DiDvG+qr5eQls+XqV50ry05YLHV1tdqC5IsSh7/pzN+yf1gHS1atWpXdtm2bfPOb35SzzjpLZ4kYj1lyDBUNOPZpaR9D4PY0Net3kilWORhp1hDc5fQBDEtBfL512nKbCbAvCXiNeFWhqDAo9sWxwmEjDoMVgYO71fv+0lDPZ/rg+pZOOeFDOIp62hdPoBYc/ukZ2KeixA3u52/QiNpvGAGNPMOLr8uIxv51Fpy4MEXhMaw4PjgvigfPi87VVNLjQ6/HvinJTEM6QxTZhmf48W/IeeU+XovnMx0htLmgNXj8oV/6oxIwfbkDNzXp3Y1VVBL1EO/nd1340Emx/XFg/H4zhxGhoml8aOUwTHqjSDNNqAbcp6qAJU+3n0tYjFgx9VMCsBR5blk9fifCZngUVooEbtJ6EyC6gEd+i4LiyMkxaDGy6YlWjl6L1iQ2NQ68Ps+h5sQ/pbSkXwYhjCjUcGh6V9chuaLuGXquxE2H0WUPhRq1uIzpgfrhQcDoc5NR5YMJzrNIweFYWf7UchygZcZTWY5Yh/ohZrR+S9hlgnSi9dazcwtueGgFROPSovB5A1Dhx82Br1byPXSOEVUPhKGixcERC8hrvp9tN/VoPgHUR/5wRFxrKFZ5Jpc0FnSdwcRUVGakGo4PHdUwCBzr1Vj0JY40S86cOXN0hhybJScnijfccIOK4vLly/XAeImi4zjOeJBPFHnzoCgOmTosskwcx3EctVL5J59F6DiOU+jksxyHNdzdcnQcp5hRUXQhdBynGMmnfSqK3oR2HKcYyad7+qCFB0wxXRwdxylmhkwI4TiOU8zQOFRLkYOWKY6hxeg4jlMshC1ltRS5w5xZjrZ0HMcpdEK98yE5juM4AblZcgxTTBdHx3EKnXw6l3ujxcXQcZxiI2w2Gz4kx3EcJ4b6p32KOmVWjFuKjuMUC0m943bujRbDLUXHcQqRfNqWb19BP33mb+nr46zabv06TrEzWm1TUUx+jiBcjiVPrHhObr/vaXV3PbhCVq/fJl38Otth4rnNu6X85HfK1390d7xn/zAO9z26Ot5yHKcYGdZ8NjUdD4vxX268RS5555fVXfiWL8rxl31Cjr/044dVGA+GN1/7n/KuT367oKxlx3FGD+t+7o2W8bAM81GWTslTP/s7Wfvbf5Trr32NbNi+V6779x9pnK7/+s3yo1/eK088s07u/uNj6p/N4V/efr+8/SP/Kf/8jZtl154W3W88vXK9fPCz35av3vBz6enjNyYi+HUzhkdnonfTLffIv37rFumFv5/95gHp6OiWPc1tcj3C3bJ9j/pp7+iSG7//G3nbh/9Tvv/TO6Wzmx91iujt7ZMb/99t8o6P/pfc9PO7pD/8lozjOEcESe1TS5EfuDGhGG9x5OXmzp4uixbOlqsuO0f3/eL3T+ry2q/eLO/57Pfk1Nd8Tlas3ijdPX3y5g/+i7z6A9+QVWhqf/I/fyVnve7T8sTyder/9rsflRe96Tr5wW8elh/86iG54p1f0v2EgsXw6OKfKj+77UH5xL/9Uo89t22P9PYPSk9vvzyxZouK36atu+RFb/ic/OU/3CRrNmyVv/j0/8rFb/4HaW3r1PS66r1fln+84dcQ1V751Nd+Lrf9IRJux3GODFiPTfuM3DhFYlbjeMLLNbe0yZ6mFvnDn57RfecsO1qXhDFb/ovPyXveeqX8+Jf3yE2/e1L+/eOvlT/++HOy8tZ/gHj1yQev+wGEqV/e/LfflnSqVB768Wf0+CvPWRoFMgo+9PbLZEp9lcyZMUW+80/vkyVHzZbP/McvZM2m3fLwjz8p9/3o8/Kzr/0fuf/pDfK5r92k8X5szXZ5wYlHyz9+5Bp58ldfkldc8MI4NMdxjgRCI9C0cMg3WsZbEAmbtYte/gmZdu4H5JqPfUumQ5g+++E3xkdFTj5ugZywdAHiCAvynhW6723XXKrLeXOmy/lnHqtNXTZlKYxvveJ0mT93uqQgjn/zV69Xf4fK5k3b5ZQls+WU4xfp9ssvPEPmT6+T3z+yXkpLS+T9rz1Hbrn7SVlw0UfkrFf9rextaVd/juMcOZj+cUkNHDIkxw6OJxSvf//E6+V//vHt8rtvf0RW3/YlmT61Pj4q+l1Y49h5jbpcvXaTLvkDNm7eKVPqqtQfrcT7H12rH+ImTz29RpckfMJO8eQwnZVrd8R7Ivj54PC20FBfI1t3NKN5HYW3bWeTbGtql2m1Fbr94fdfLZvu/Ir8zxfeJk9s2C2XveMfdb/jOEcuQyaE4HK8hZEf6L7mVS+WP3/1+XLROSeqEI3E+97ycjlmToO84i+ul7d9/Aa5+C1fkAeWb5Z3XXW+ZMrL5RPvuETuX7FVXvH26+RNH/4vufrab8ZnCo6n5a2Xnqbrb/yb/5DL3v1leXzdTt02Xnj8fNm0bY+8+SNflxt/cLu85+oLZeOuVnnxGz4tb/vbb8olb71OGqrK5V/+75tkz95WOe+qv5Ov3Hir9PX2ajv/xMWz45AcxzlS0eYzrSgux1sQj1s0Wy45e+kQa3AfJfKKc46VM06YF2+LzJrRKL+84cNyxrJFai3yvO/CwvyLN1yMuIt86N1Xyt//1ZXS19cnrS2tcsvXP6BhLJgZWZ5f+fTb5XWXnCY7djXJsmNmyyf/4mK5+MwlSITIivzCh6+WF5+2WDai2dzX3y8XnXeK3HHDh2RKQ52sWrNRjpo/U37xn38tx6M5T/F+7ctOl8dWbJQbf3KfXHPpGfKVv3uHhuM4zpFLyerVq7Nbt26Vb37zm3LmmWfK8uXL9Sv52B97GcquXbviNcdxnCOHadOmDTP82DqeM2eOnHrqqXLKKafIE088ETWf0+l07GUf1qR2HMcpVEKR5DqHJ2rz2WfJcRynWAmFUUWRIsgVw44nzUzHcZwjmlFoGg1EfcIw1DqMTnSL0XGcgmIUkkbdGzZO0cXQcZzCJL+2hZo3TBS5w5vNjuMUKzlRDN/2cBzHKRbyGYKuho7jFC35WsYqimGb2nEcpzAZXdfgkFlyDO9XdByn8Diw8UftG3E+RRdGx3EKi/yalmwp5/oUTRBtmfToOI5zZJNf00IDkLqnotjf358TQRdDx3GKmSGWouM4TjFDHSy1MYpmIXKnC6TjOAXHKHRNm8/8Q2dC6M1nx3EKklFqm4pi8o0WF0bHcYqVIUNyiDedHccpZrRPMRTCpEg6juMUE6WcVHHoJLMuiI7jFA/J7sLc1/wMehiPPkW7TrG5yUy++LqL3GQmX3wLxY0HSUOwZOXKldlt27bJt771LTnjjDNyX/NbtWpVXqvxcH3NjwPGw2/DFAOWnnYj4jJfGo8XLHTMg7AAjldBPJII84j5luxymgiYT2zhhflViHlXVlZ22NI639f8CL/mt2zZMnX33XdfJIr8xOm3v/1tFcWnn35ahRH78wbgnzg9PPCmQMdMT6Xyffd67LAuEy55/bCl4OwfCg+/K074FczxTjvmGa/P6zLvnNEzGlG89957o+az9Slync6thbGHFaqiokLTu7u7e0i/7lhhFZrX4vUzmYwL4kHC/CovL1dBokD19vbmrO2xhNfo6enR6zDfXBAPL5Z/zN9cnyJ3jnXGOsNh2lMczQIYKyiErMC0SlmhmO/OocP0442FzrqCxqr+MHzmH8V4vFsVxYLVB9VDZqRZC9zBbS7NkzM+WDOWwnU4KxfDYoVixWKlcsvw8ML0ZN6ZcB1uYWS4DNNvZGNDMr+4PaSGmAcuk56dsYdWAB0txsOR/gzDLFA2ubxSjQ1MV6avdU0crroTCqIzNuSrEyqKvNuFB73yTBwUReYHK9fzhRWK/VCssM7YU1lZqcJ4OJrSzH+G44I4tiTzidsqirwjGS6IE0/YT3WomIXIJrPn6fhhFiMr16EKI89jN4oL4tiTrBs0SFQU7YBXnskDxcyaTwcLz6Eo8nwKrDN+WJ/toVr6zDvmm/chThz69NlghhxKJXQOP6xcJm4Hg+UhKxafajvjD29oh9qMtrzzm9nEQD3U29rh6L9yDj/sXzyUisVz6Hz4xsRg1uKh3NB4jp3vjD3JupVrPvOAHXSTffJAa8H6p0YL/R7OJ6DOocEb0qHkA61EWprO+GB6Z/mUE0WuuBhOTpgvzLDRVC7zx8roza+JhaJIgTsYS9/8el0cfyzNdfSHZViYGaPNRGfsYZ4cTDOMeUdR9KbzxEJDg/kw2rwL66EzceQsRWacWSTE71STB2bSwVQU+mV+uihOLCaKZLTCeDA3P2dsyIliWPH8TjX5YJ6MJl/MH53f2Cae0eYbCfPOmVhUFK0CcemV6cjGK9bkwfPiyCT39NmWnolHPp6HkwPPhyMPGoU6eJuZF1qLjuM4xQi1MPegxXEcp1gxq14tRa4c7BNOx3GcQiJsIesnTl0QHccpRvJpn/YpmgtJbjuO4xQaSZ3L9SkSU8zk8kiEcU86Z+ywNO4fHJCBbNTyyKW5J71zBEGRzIniEYnVO1TAwYHoy2odnR3S0tIqTU1Nsnv3HnVcb21tla7OLunrTUzp5JX2kNF0hxB29HfJlu5d8mT7BlnXtUPa+rtlAGnMNzoGstGkCLn0dpxJzpBPnJIjodkcVUaIYF+vit2OHTvkuQ2okOvWy3PrN8jmzZtl69btsn37dtm2dZts2rRZnn12naxYuVq/Z7127TocQ+Vta5O+vrH9Elshw5Kyty8r/73zOXnR+hvliq3/IW/d/n35bvN9sqJnq7QP9kp2MMoryzNNZ09qZxKTsxQphnSTXRxomXR1dakFuHnTFgjgFtmzu0l6e6LPd/I7GdXV1VJbWyN1tbVSWwdXU4t9VZIpL1MLZu/evfLccxtk5YpVsm79Og2L52dxzCvs6OmF4N22q0Q+v2mqbOhaKluzZXJ//1b5ROvv5FN7b5WfdDwsa/t3S88gbjxoVjNtWb70H5eTvKw5hU++MliyZs2a7Nq1a+V73/uenHHGGbJ8+XJ5+umn1aLKZzXu2rUrXhtf+gf6pb2rXXbu3Sl7W5qxQ6SqrEoqKyohdtHHwdOc9ie1bxo0+8EDaFrTGuZUTpyfkM3s7p5u6ezqlHY0t3ulR+ob6mXerLkyo3GmVJZHH6mfDNgnT/n7OHRqf9AS4+/r6OiQxsbGeO/YsbtnQD6+pkRu3I20SqNc1NyDTHlUJNUDNyjl6Rr584ol8srMSXJa2XyZma6V8pJ0dAOmnalJzJuxBldwsK7U4sbMvDvQBB3MOyufvKkfKbS3t2v31LZt22TPnj26zd9SVVUlU6ZMkTlz5mhZbGhomPA6NW3atLxxmDt3rpxyyimybNkyeeqpp/aJ4v/+7//KmWeeOelEkVZFR1+HPLDpfrlj1R2yduezsDz6pK68TuY24MfMOkVOmnGSzK2dKxVllZIqoSiqUZKzRrTZBquGwtrT1yPNnc2yZs8aeXLnk7J67xrZ1b5L+hDmzNrpct7i8+TS4y+V+XULJF068XMSTmZR3NY1IB96VuSHe1nhkeKpPSK1d0McH4FI9kaiV1oip5Q1ysXlS+VV5cir9GypK81g976bl4pknrJ2pFOoosgySZ343Oc+JzfffHO8d/9QdL74xS/KBRdcMGGf2z2QKNKpKK5atSq7fv36ySeKqGMD+LelbbP8cMV35V9W/oc0t++U8mzU/8nvD3ajuVaNf1OqGuTSuZfKZUddLifMOEGmVU6T8lQ0ezEFpW+gT9p72mVzyxa5f8sf5eaNN8uTe5+Uzv5O6ZJOqYbWlOGnQjclm6qSC+a8SD582t/KC2edIVVpFNAJrK+TWRS3dvXL31AUW+KbBxOQFmM9LMaax5Co3VQ8Tb9q3GBOSU2Ty8pOlEvKjpMl6elSXVKeE0cra/ssyCOfQhNFfi73H/7hH+TGG2+UrVu3xnsPjqlTp6ow/tu//ZvMmjUr3js+jCSKtGZpJdI9+eSTknr/+9//GfaxUSGpmDt37lRHUzhfAB/96EfjtTGEggjxW9eyRm586l/le89+Qwb7d0lDeZlUlZfD9Us16mENmmilKTSD+5rlmd0r5Vcbb5Nnd69G4RqAn0qpLq+W1p5WeWz7Y/KTlT+S65+8Xn6x8eeyqXsVRLNDasr7pDGDOozmchXCrmb4CHN753OysnmVNJZPk9mwQDOwbLRyTwD2EIyVKl9+hJhVzIrFvtWxpq1/UH7bJLK8F2LNqDF+A7juwBREGLetcliOpVjicF/JoGyWdnkyu0WWyx7sGpRKQXrDpfMMgjjQbz0S6OzsVKuIeXegG5rlHd1k+xwBxfCGG26Q1772tXLrrbfqA8pDhc8DVqxYId/4xjdk9+7d2mU3HmWVfOlLXxpWrpjudXV1KtAzZ87UG1nenJroAskmc1t7mzy3ab2UtZfJGbWny8LaOdJQUQVXDTdN6mENTqlshFVYIzOqMlJX2S7Zkq3ys003yV/d/5fy2Xs+Izc+fqP88wNflQ/84QNy3dN/L6s7HpXKzB6ZVVmC8ypkWsUUmYqwGipq4nCrsb9ellQfLbO6Z8gzK5bL+g3rpAfWGoXaGQoLVLYECcNSpKIIx8rfCwug5VyRjlPhqSo+hj9oSu8u6ZU7BtfIZ/p/J1/su1N+3b9CNg3sld5s9DlX/iO6DudMLOxau/zyy+W9733vIVuH+aCwXn/99XLyySfL/fffPynymrrHeGif4rPPPivf//73J8WDFkaKD0A2btwsLS3NUl5RJpIZlFWdj8lde34sz3Usl/6BHlSdErTWOGAYhglcDwyqXjQ/uvpapKMvK73Y18J05gMZtFymwNirLEtJRboBVmKJYFVSqL8pVNQUKyLWa1INcmL5BXJq2flS1V8vvZ39+hDnhBNOkPnz50o6hbgMT5IxZTI3n7d09snfrMvKTe2wbJjW5pD2wqfNmR0ijX8UqX0CTemuSBhVIOEItheVNMpVpcfKBamlaF7PlmmltZJWf2xIR/6PVKvxSG8+P/roo3LxxRfraI2xhOX6O9/5jlxzzTUHTKfnw2ibz7laZkqtSjmBhZCm+pbNW6V1bwusukqpr66XmTVz5OL5fyZ/dcLfy+Xz3yozq+dA4NJSVVaBJm85XEpqIHp1FWmpr6D1WKfN4tloYs/Acjqs8ykVDVKXmSK1mRL1W8PzcH5VOiOV5SVyfPWZctX0D8mVM94hR9ccC0sUfmtqZQBN8ZUrV6GA74YYQ3mjZHJisiwqLEV0XLftEvzpgcW45zxYjCei1iPRaVVq0Yo9YnPd4G758sCD8pm+2+S/+/4kj/ajkT0AyxyaymE8LI98SKbl09N+3KA4nHfeeWMuiIQ3hLe85S3yla98Jd4zcVD7ch+uMrgzuW+84F1y185dmhFl5WVSiSYu+1fSEMBUKo0m9HHymkXvkqsX/bUcVbtIKspKYPmVQiDZ15iBOKalpqJEqjPlUp9BE7tCIG4Uy0bswzEIovZJQgx5XqYsC3EslbPqr4QYvltOqT1PKtM1kkqn9boVCJP9HX19vbJmzbNquVrzzgEoJ4MmhHRJYYQVLr0zIYwvgtn+ApT+uO+Ix3PLUhmAOf+n7Fa5vv9++XzvbyCOD8qT/Vt0lAHHlTLNVRzjpTO2UBDPPvts6e7ujveMPczXT3ziE/LVr3413jM+JMsTt1l0h1iGE1XmeLdoaW6RnWhyMD4VFMRMRgWR4w9TaOuWopJNrZwlF8x7tbxxycflxIYzpKasXDKwuCvRJM7Ab2VZRoWupgKufBrcVFiHpSqYlbAKKxCOujTCKmuQF0+5Wi6Z/mZZUHmcpEujDm5eh2Z8GYQxA4GtyFQgbq36Zgw7ip0YFBstQCqA0XZumXP40z1bZO/ZEMaTkdG4U7GQ8VgObMDk3JPtkl9l18uX+u+S6/rukpv7npaNg03SO9CvA+vNYtSC7No4JnAkyktf+tIJKed8qPipT31K7rjjjnjP+KOWIldYyLgRuQkobbgk70rsg+lF85lP7Mohduk0xTCFlhgFMXKMI62502ZcKH929F/KSQ1nSn1ZtWRKy+AgjBTHdDn8wNKExlWjaVyB7QwsTRiLWFIU0zK9fLqcM+VV8pKpr5Op5XMRCVbMKFG4ykHgdGmEwz4hxoWvE/LtF75n7cRQ3OhGEkbdjz8Uxt1oSjcvi55QJ+++6p9/RLZkO+UXg8/I3/ffIf/Ue5fc0bdKdg60S99g/DCGLrYaVSCdwwK7rv7yL/9SnwpPFOwPf+Mb34hWWUu8Z2zR+h7A8qTNZ1pp+wrYUE/jAR+YNDU1S0trKyxDiBvfUIFlZ0MZSiB2KthsjgGup0vK5aSpL5aL5r5F5lYukmocq0xRGNEshuWYQdO6Kl2h1mEGTeVy7CsvTUs1BLEa6yfWXiTnQBCnlM+WkixrLjURvx9xsXkyeB0KI5vybE5zMont27aPa7Ni0qNiFjgVQTj2lw85FgvjLjalRxBGA/67soOyAlbi1/sfkff3/Vq+AsvxkYFN0jzQhSZ19D1lE0RdjhCUM3r4sOO3v/1tvHVwsK7U1NQMcQd6MDgSNI7e9a53aR6PN1rnVWzgDCto40l3d5c0792LRMhGfYiwyswqVBf741q0He3hGyob2azd2yEwCKUWgkcrsAziSAGkZViGZjJa0xDLtNRAZGvTaens6pe1u1uktYeDiyGCcd7RSOavz8bv6fI6SCBJIS5laJpTHJubm2UvnL7L6zCRIkeYjrZNF24TlrOeGbAY2ZQ+BcKIpvRIaqbnRCdukN3yHwOPykf7bpPv9j0oT/VtlY7BaJhU9E41buzxQxnn0OAoh89//vPx1sHD0Q583S90J510Unz04PnRj36kT7/HmrDM2LpaiklhHE94fc500w6zmX2HNnzBxM/+DQGbHNz90LaH5OtP3SD3bH1E+vpwp4LwURgrYTWW08JT6zCyEKsQZg1FU8pkd0evfGf9T+Vn638mTT1NcaCoWHCMD5MmSh6KIi1VNqWjuLHfY+eOndLfx3dqHM2a0IVCyHXbtnVa+2oxnhM1pQc5nGc/Ygbv2WwJLMce+dPgBvnswH3y+YE75Cd9j8vq/p3Sh/zQN5Es72LnHBx88svZpZ4PrB+he76a8oUvfGHM8zKMI9d5PbUUyUQVJD5x5gOWgf6++Clz1IeoUmhx078kEkhWgA0tG+R7y/9X7tt5nzQNdEgr7nQZHOPrZFW0FnEu310uK6H1WIp9ZWg2l9G0kD29ndLct0d++txP5b6t90lXfxd+f1Q3LR1ySzjGg5Yr45aCFcv+DvZ9TFSaTTqYTRQ8YuvDxDDe1n34w+E6u88V2XvqqISR9CM3mrPtcvPAs/KZvrvl+p7b5ZGuB6S7d7tkIY7MD80TWzqjgs3U//qv/4q3Do1QXA4XP/vZz2TTpk3x1tiRjHveITnjCfvnOLNGCSwyfcocN5tzFWgIlMOs7O3aKz9d+RP5wYYfQqy60TSG0dHDAd1ZqcL5VaUpWIuw7BAmLcYqiGM192G7DeLZOdgtDdDH53rXyU3rbpKVe1dJ/yAtv6hCaV8Gm2M6CpnRiCJCYUyj+U0hb4aQD3LcYrET5hGFj1jemQsFMeews2cmhPHFscWIDBmNkKmXQdk0uFtWd/xestu/JOnt/yzZtvtksL8TeUfLkaK4r5/cBXL/8K2VjRs3xluHxlil8Xj0KybjrsXYLkwxoofxEkZei++HdsdzIbKJiovzf+yB/y3C0bJ3oEfu3HCnfG3lv0K32qUOdakWhkYHwurqH9QHLRRELrUvEYFxm45vruzu68F1OHhbVBjva7lPfrHh57Kja0c05INXQlh6Nd2IVpgmbEqneDJobWnVd6wdYEJHQmHkOl1yPbeNP+xj3HkBhJHjGEchjDwXgndB10752K775YVNt0pmz39J2daPSenOr0m2+1ncrLpRptnPGAjigcItYthMdfbBoqmCREwQcwVpjGH/HD8RwCWfLPOhBltWLPdEpYn/9a4f+X9ix5PyneXflu1d26U2FsTqsgaBMSjtsPYgrVIB8apJV8rcqmNkWmY6tlNSgYC7UVE4+qqirE4He1MYq8sG5Mfbfyx3b7tL2vpaI2E0h4tGLoqPxhGiSIuxq7tLZ/4uekzkzBEtVTHcZ2LIJYuabavDn95pIrtoMcbCGN2J8pMdkJd07pBrd/9JXtK+Wip5Px9oQ5PjYUk1fUVS2z4oJXt/ItmejRDHXohjdNNXgcRyvMr2kQLHI3KGrGImNALV+InXFTsYehpLWFj5njNVRx/fx9fVYqtiFD1V1B1Y39a+TX66+idy/577ZQZnyYGoVZXV69sqlWXl0q2TjQ1CLKtl2bSXy+uXflIuWfAemVu9RN+n7UDTKp3KSjVMyKqyWghiRuoRTql0yi+33iLLW56W/uy+ByisP4iFrjNmmmAURjTJ+RmD3t4+jWNRowkTrQ5ZN+Ejtt8cj9lxXceKWowUxtOQ6FTOPOmKsnA2BXHXQ3Jx62qptrTnguv9e6W0/TZJ7/64lO76e5G230m2Dy0AHFMX+XYC+JCT71w/X8ZLMw43VjZCWCRziWIHk57GCr5LTGGhGLJPkenKS6vD8SjCEE/86ezrkrs23iU/3/hjKc22wtLjBA8NELcyfQ+6pqxU0qhcmXSDnDLjdXLhwnfJcVPPk3Pmvk7OX/BumVm9DJZeCv7ptxxCylf+aqSSrwYirJXdj8uvt/5KtnVuxTVjiyIXEcaWmc540potVUFn36LXNGDiRqJkijDhs+O2bttD9uFPL4XxJSJ7X4h05c4wcbNybudO+fSOh+RlrSsls79079smqbZvQxzfJ6V7vy7ZzgdgNbbH5ckzLITTBB4OjtR0zSfm+vTZms/Eftx4KD+bMxQWPk+moaj7VIhiMYybsBSgtXuflZvX/kS29myKmr3pejSDYSFC1KqxrEunZEamSl4w+xo5be4bpbHyKIQjUlZaKUsaL5Cz5r1bFtedJg0qipxMolwnglBLEy02zs94V8td8sDuB6SzP3rFCVeP/5FIuGnR6icPsIfDcuxoUcJEMEfiPBxx3xARjLdtny6x0oOm9LaXQhhPxw6mbVZKUAaOhiB+dvvDcmHLqqjJvD8YHk4t6d0gqdbPSnrP/5WS1p/IYN/uXJlyIviWlrMPlo3cOEXD1sej4GhnOARPrQJ1/I9/2qdHay2adJNPm3+45ofyx733SS30uxICGE0Km4KYQRBhLR5VvUguPepaOWPO66Q2M0PDYdOb55eUpGR+3QvkkoUfkNMbXy7TyuukJo0mdLoMokiLcYpann3SKr/a9UtZ075aP09AGA5hsrCVx35FPmxhM1rjGh8vWqLism8ZimC+fSaC5rht/Yy6jp39U0S2XyzSdBYyICund+2S72x5UF7SskIy8DJqmDUoXiU9f5B0yyfRtL5ZsmoxRoedqPns7IP6p5aiClO8Y3xRFVRh0X8srfivYoZ1imNPf4/8cdt9cvPWn0lZtkMfrlSWTdG3VSohiLXlpbKw+ii5cN7b5AUzL5PKVIP+niEPS/j7ILozK5fKS2a/Q06dcoE0lldDFFMIi3MsQmQRVj3CXtW7Wn6/+3fS1NuE+hSnCyLFtOE/G8xNoVW8gg0VOsJtMtK+0L857gv39zVoU/qMjYvlC5t+LWe3rpDy56NmA9ukpOteyaJprW8sOQofXh4Oxl87Dh8Wd9UKuCGWoorSuBJfl/8oZLg+xdAEkctNbRvlVxt+KXu6tkEIB9FkroGIiVSUcz7EUllQfYxcMOctsmzGy6VCBTGyPlUYGY6FqcLIuRUXyTnTr5Fl9S+VKZlahFUGceWkEQ1qgdaU9sqvm34jT7U+qcN/SmjBqiBiAeuQT8hVILGuyzjtihpNnIQbSfiMpAjacVvCnbGpQ/7+e9vlovvapez56pjebDkx8USU88kLJ8E9HBRCmlpdVktxoiq3XTcSMRPDuNkM19nXIfdvu18e3HM/BG8AwsXJHjgXIid/KJHZlbPkJTPfKKdMu0QqSuty5+bEMBZGE0l1A1mZXn60nDXlKjmh+hypQdObU45lYCVmyiohuhzz2CJ/2H2XbO/ZEccxsg5pJbLzk/2K3K9PzIsdKzZcmiPhdrjPhI+Ex81pUzorZ+3ZJl/43ffk4ttvk5I7ThVZPR/Nano4FEqlT46SnvRFMlAyA2Ui3u3oh6QOB/ym07HHHjvEPfHEE/HRI4vcLDmEujieiq/zFkLoWEoj0YpnP4mbvRtan5PfbbtdNvVv1U8KlKertdnMacVmcl7FmbAQGy+WCqnVJ+icJZvNgVzTGY7bkRju+/YzvwM9rewoOafhKjmu6iypprWI8DOpDJrR0aDuxzuelCebH5fubJemiwohLUXGGTvSfLcaYjoRN5NJB5Mg6chI+0JhtPWcy0rF7s1y3a9vlAsevl2ymWrJ7qmQ7K/mSXblXLT3Yn+jAWGzZHfKGdJe8Tnpr3wpzmWvpKuicTi/qLd69eoh7khEjR2zeChC1MPxrOR86l0GgeO1Tbx0HcvO3k55ZNejcm/rvTKVzWUIlc6LiPUp5TVybuNr5JSGCyUj1Tq0RwXPlhA+zqBDZ9t9/X36pHsgtz8rU1NHydm1r5ajKk5QK5QWaHmqXqcea8rulD81PyjberbtazbHTWZWKc4EzrkWR11BC5WcmOVxZKR9oRhynQ4pe8rW9fKrW78j5z56lwjTl3uZ5k3VIr+bL9mnZvOJ2L6wRmBQ0tI5eJS0pP5O2qu/JAPVF+Ea9fFRx6iv9zSJtG/fjTIqitgxERYPRbGqshLXjzp81ZpTi3FQNndskft23gsB60bTmTPd1OsHp+rLa+WMhkvlhQ0vkyqZokLYD7Hj8Jj+vl4VPhPA0EXH9/nlBBT8hPSs1BI5vfJymVO+GKIIkU6nsRS1GB/sfECeaXlGerN9ueazNqEBJ68oLy9D3Rz/dJtUmLAZth3uH2lflJTRenZQztiyTv7xth/KOY/8Abtwo8ZfK6pcZndWifxhoWSfnpNXGFmO6K8nu1BaSt4gLZXXS1f1m9AEOF5KU1Vq5euDsgko65MV9imeddZZ8VZxwvJgZYJaqM3nUCltOR7QQq2uqdZl1KyNrEVOIvr47sfk8fYnpAwVRyeN5ZNiWHIn1JwnZ9a/UupKpmtzWcVOLcHYYXuYIMaWYj/Fkudg29xgf4ksLF0myzIvk8b0dBVeTjDBD+T3D3TKQ3sfkqa+3ZEomkWNuFdWVOjkEA5geTJHwu0D7aMw4u504ub18qnbfyQvefguFFCKG/4MQhRjoYvA9g5YjPcsgDCi2dcDPwxD/bPLsV5aSy6SvRWfkM66j0q26kxJlzfg5st31uO+4NjadyKYFl/84hfjrUOnoaFBHnnkkSFu6dKl8dEjC71XU4iM8SwwLKRVVVWSqcioxUdRy8Ja3NW1Sx7Y80dp6W3ScYllEKqy1KAsqniBnFN7mUxPzYssRBW7yKkFyKVt2zqFsZfiuG+/nhOLJ88rGUjJsamz5eSyl0gtmmzp1DSII+IH93Dbw7K2fT2acDArNW1wJ0EtrK6uUavSiYnFSR0Jt/e3DxbiOds2yedv+7Gc/6c7Ja0KSAsxciqM0cCByHF7K4TxzqNEVswQ6YUYSq10lpwnzeUfktb6L0h/zSsllZmm3Ru8cZnTSUcojC6KQ+BX+6ZPnx5vHRpM39NOO22IG6+P3D8f8hmBKopDDwz3NJZUVVbpp0RpElCgemHNrW5eJSvbHkPd6FErke8rzyqfK2fVvVxmpxfDQsxGYhc7nqdCB/GjNdhPEaTr4fFI/CIXN69VJHkeBTI6p3ywUk4se7EcmzlHm8+coJaC3DnQIQ/vfVDa+zu0MrGCcgbumroatR6LHuoLk8GEbn+O2HpsIZ6xcZ1ce8sP5ML77xJ2RmTRvLUSSJtchRE72NWRK5kqjFXSf/fR0rHxxdKcfo80131ceqa8TdIVC/RBHPuqo1nchwqii+JwmD7nn39+vDV5OOaYY/SbzGNJvrKgtTo8QH0cz0JDgZkypUH76DgVV3tPm6xoXiFbe5v1iTCbz1WpqfKC6pfJMZllsCTKVMwiiy8WRIgcp1PvxXovhFCX3I/jOUHE8Z4e+KGLxZFLWpzRAx6RxtRMOb3iYplfdgzEGBUI1+8v7ZJH9z4iu3p2wt+AVtOq6iptPnvlCmBS0JlAEtsXOsLlQL+8cMNaufY3P5XzH7xXyko4JMusQhNGbAvyJg5Uj8ENIG+6ZkyX5uNeIc2zPyhdU94qJTWnQQgr4GAdoiyZGOYTRWc4/LQoW22Hylh0u1133XV6YxtLRrQUJ7Jy89r1DQ1qLVKc9nTtkXUd66Qr26WCmE5l5Bg0m0+uPEsqszVqEfLpcSR4kRVoIkdLUNcpkBRBLiGC/EqZrsdOLUWcHz3ciWZsZgrw9b2F5UvlhdUXSF16tvYtVsBt694uz7Vv0Ldr2DfV0FCvFc1JEIpeWKRs2xxuLmc+96xce9vP5aI/3SMVwptNdIKV0aj5TCiQUEIwWFoiPfV10nrqybL3Da+Rrj+7UrLHnill1TNUDPM55lMkhtEoCz4Y85vZcObNmydve9vb4q2Dh5NFf/nLXx7ins9kE4sXL5ZXvOIV8dbYka8sqCiGajkRBaYalte06ewDSsvuzt2yuXMzYjaI5qnI9PR8ObPqImksmZV7sBJZfpH1F4litK1WIvapAHZDCFUMuYzE0fxrExviSlFUQcRv1k+aQhQr0tXygroXy/HVL5TyVLWmUPtgu6xvXS9dfV2wEqulBgLuFWs/MGlYsri0ZLJ1tINPhSD+zW9vkQse/KNkkA85QdS/WKoGUhThsJP9iL2wGDqWLpGW11wmnW+9WuTcMyU9Z5aUZ9BU5qiBWABDZ5ah5a2OFLD4OMP47Gc/i1bblHjr4ODnOT7ykY8Mcdu2bYuPHhzMy1tvvRW6gPo3xpj2hRqoojjRTQpef9q0aVIHC6ytv13aBtukFoWXQ3FOyJwhC1LHSslAiTavKWb6UEX7A6M5Den2CaCJYSSEKoYUTTr4p3XJcDiwW6/NYTZxpYk+uI+4lM+U8+pfLjPKp+pXAvtK+mRHxzbJlgxqU59DcZyYpMhw2/bZurnBfliI69BkvkVe9OD9UsVPxWZt6E1kGarDHxiTOlB7AOLWtWCutFx6obS/4xoZuORCScGqKUNTrzw91CLUJZrOuaayLeNhVP7kef+wDt58883x1sTxd3/3d/pGzHhg5SEsF7kJISa6sFRVVcrs2bPUasyiNnQgOtNTS2VJ+UlSKTVq1dmQHTrdpkCqo+DFwpd08TEKIcdB6h0Bv5W/N6o4kRCaIPINGzajl9SeJCfWnIfmOyKHuGTh6tB047gu+nMC8hUd7gsd8uDstc/KX916s1xw/x+luqcb+VzKZyYKv9hHj3qrGkCDGWncOWuatL70PGl721Uy8LorJH3MIilH+eBNqTwUQlqGsRgy76JZjCiGUT7rvwku30cKL3rRi+T666+fsPS6/PLL5WMf+1i8NTEMqd1MiNCMHE9YiKdObZQl85fIjKrpOk5wbtlRMjM9V0pRYTiom+MXI3GkKMYO+9gvGDptZsf++K5z1BwDkR5qZRkihLQooH5aubiO/TVltXJi7Qv1swbpVFqOmrpQZkyboQ+GnDzkq0ORzkHk+uSc9evk3b+5Vc7/4wNSDSs+9zAFf9QqxDLbDzHEem9DnbSfc6p0Xn2F9L3mlZJ64TIpww2JaZ+zCmMrMcozCGIshHazs0qty3xxc/LCtHv/+98v1157ra6PJ5dccol873vf03ydSIZ8zY/rQwrTOJMpz8hJC06SixZdJDMrGmRGGpZjSS0iFseFFYiWIlTOJo1gMxi7sM1jcKxcke9hlSF6d3mfEKZK4/4nvrKHbf0IP5YcapMqScvszDyZXj5PTppyrFy45EJprGuckHQ5YsiXNAP9cv6aNfLuW38pF917n9T09iA7o+Yy0bzCH97AeutrpOP0E6TtTVdI7xuulJILz5Uy9huWc4hN3FQ2MTTLML6JWb6aCHLpeXVosE780z/9k3ziE5+QTOagZrA8JJhPl156qfz0pz+Vurq6eO/4YPoX6qDeCvIVnnyex4NZdbPkTSe/WS5Z+CqZkm5EBNDEimUubmFhRbf4J1iHK4lNQq7Gu/DjUFk4uziWqDxakZDpZh3SWjRhzM2EgxMptmUlGVlUf5x88NQPyjnzz5VMeuwLyBFJWHzCddyllq1bL+/8JS3E+6W6rxd5GTeRFXjuH4RVPyjdSxZKx6svlt63vEbkpS+S8kULpBwVkv2GahnGopgqiyx6u7GZGFpTOSeMzvPm85//vPzwhz8c02ExzC/2Id5yyy3j8mAliZUVLk3rVBRpfYWEQjjeBSxVkpLjp54o7z/1Y3L2wvMkjWbRIJrDHJWhzV4+GGGHOZtLjD6tP+zDX+xnM4qVJXL6VJJ9hCp+sVWoDhULlgZnuUmzoqmFGFUujkNkE539lHUVNfIXJ79fXr3kdVKfqcc1vLKNSJg0WC+HAL7k6aflE9//gbzkgT+hydyHlI2azDoQGyt9yLf2pRDDt/+Z9L7/zZK64mVSfszRkqmpRr7F/YXl0Tvmus59EEmzEE0UWUZ5Q3MxPPxceeWVsmHDBnn7298e7zl88K0Xzqbzmc98RvNyojFh1OZzGKHxtgzzQZFb1LBEzjz6HJk9Y7aKljWVEXP8p2UAR/FDZSiNrcBILCNxyz15jDveKYrR0voOrR8KzWUVVSQIwrfpx9h/tWj2MfLC2WdLbbnPJDIiCTFU198vp65/Tt58++/ltKeWS0UP+xBpf+MgVvhwpaexQbrOP10Grr5USl6Gm9/ihZKuhRjSIjRBzIlgbNlb3sLtE0CWB1t3xgJOL3bDDTfITTfdpK8EPl84JvKf//mf5fe//72OR5wsUPtYlmB8DS1Qtj3RBS2dKpNZU+fIkmOWaiKyb4OR1k8LAI28WoS08uiidfYNcqkVKW5q6RsOWNeKluuLMuHk7+R0ZZF1yCVfPeTrRXNnzJPaCh+TeFBQENeuQ5P513LB3X+U6o6uqA+Rfb99g9JbWSGdLzheev78Msm+8TJJn3OqlE+fJuUVFfvEkPkV51tk5ceCiDxjXpgjnjXjA/Pgqquukrvvvlvd61//ejnuuONGXTdmz54tV1xxhTbH165dKx/4wAcm3bRl/C0qjCtXrswykj/4wQ/kjDPOkKfR5HnmmWdkxYoVeX/wrl274rXxo6e7R3bu2Clbt23TQaI0Zu2hSGQ50M6LKgqb2Pij2+G6/hS1MLnknujOEM34zafWsJhREevr62Q6Kin7Nxj2RMPB6IwnxeJA8WE3CIchMY0aGxvjvWPHlq5e+VCTyI8G4j4nXP/0dc/JO392i1wEQazt7UZtwv4+pHFVufQdM0sGzj5FSk8/ScoWoAUAgTTBi25U+wSQeclWgDWLmX+06I18ZXOywbrCIVzMO/6u/cG869dxtH0T0rd2qFA7HnzwQR1s/dhjj2krizAPjzrqKB1ic+6558rJJ598wDQYazgOM1+5mTt3rpxyyimybNkynS28BG367KpVq9Q0PvPMM+Wpp56adKJIKF5tba0qjk1NTdLFgb8UPq1QbEabQKLiaAViRWKFsgoU/xYIqn2ywD5/QGukprpGpjROkQYO/ShDJR/+0yeEyS6KH4Ao/mQQ6YVrn7Juo/zVT26W8393n1QP9OmnSQf7EaelEMNzT5LU2cskvWi+pGqqVPCSQmiOeZkbaI3/0cOviHxlcrJSDKKYhGXVmGx5NZIoslVIQTRRHPI5AvtB4Q+bLNAa5OP6o44+SudpWzB/vlp1bC7TytMCxYHaKFQ6ThGVkYO7uZ6bKYdvv/DdaO4fGNQmGoVw/vx5smDhfJk6rVHK+KTtyKl3E0oad5hqPuZHWh4DC/GvIYgvuusBqUQ+DPYMSk9VtfS8+jyRd79ayq58qZSfsFjK6qIp1ygU5igY2lyOHYVRh0+hAJsgsjAfSYJYrFg+HUl5FcaV69qneKT8AMaTlYhCtmDhAlmy5Bg55pjFMnvOLKlvqJeKeOLX6PdEliAHfRNWND5t5pszUxoaYDLPhnm/UAWRdxCeG1okzoGpQ3K9MtUrL+arez/5pbz4NvYh9kh/WUZ6XnyCDPz1n0nqDZdI+RknSWbWNCnjEJtADHN9h3BqLbKflxYiHe9MLJv8d4SUT+fIJTQIVQVCy/BIEUlWpJqaGp1Ign0XS5cu0fclj1myGNbkQlmwYH7g5sHPAlm0+GhZvCg6Pms2hBSWJh/geKU7NNK40VxQMSj/Vt4pL+3YK5UNU2TgjBOk5EOvlcxfXy3VLz1bKhfOkwo0B3nTYVpTDHODsYPhNdp0LolHAiA/1FpkvnjWOGNIvlax9ilyrBCfCtmDluXLl8vKlSvzisVE9SkWK5O5T9HZP8XYpziZGe2DlmG1bCSrKZ+iOo7jFBrDms8knzCOJJaO4ziFAocUDXvQQoF0q9BxnGLliH3Q4jiOc7ihFg6ZOszgPhdGx3GKEbUU7dUcwwXRcZxiZcQxHt6v6DhOsWByR4NQRfFA49+cicNvTsWF5/fEEDaOc81nz4zJSbJrY7Qc6nnO4YGDsQ+lG8rr4cTBtI/erELGmbMDzuTBJus4GJixfDPCmTgOJd+I17+JgxqowmgbtrR1Z3JwKOLGPOzWqdWciYL5dijdUi6KEwvrjuaaZQSXnimTB773fLA3Ks1UtxQnnJ6enoMWRcu7rq6ueI8zXoS6N2KuHUxFdMaGzs7O3EQCo80P+qOzySGc8Yf9uRQ2CtxohdHyl/6j2eXdOJkoRswxz5SJx5pgByOIhOdQTPfs2aPbzvjS1taWmw6NHEz+8Twuvf5NDEz7IaI42sxzxh4KGiuIVZLRopmKysj5Jm0qKmf8oJjR0jNRPNibGh3zjtOOuTCOH0x3pjedvuZnic/laDPQGTvYl0hBszkUR1ux6Mf8slJyMtft27cf8pNQ5+BhejMPKGyHIoiWd1xSXJ3xIdQ+tRS5YcLoTCwUw23btuUmJrWMGi30z8rIc1kxuU2r0/N37GltbdUbGm9GTH/Lv9HmoeUd841htLS0+CiCMcbqRZhHOVE055Vn4qAgbt68WSorK3OieDDWhmGiyDD4CQBaHDt37oyPOmMB+xF3796d+06Q3ZAONe94PsPasWOHCq0zfujgbWtehSakM77QIqAgsiLYN0wO1tIg5t8sDobDMPkkm+E7hx/2//Gmw5tZmHcHe0ML845h0DFMthy8KT0+aPpTEMM+J7cUxxemN/uhWPBp1dFZ8+tgK5XBc3g+HSsWw2Tl4kOXdevWSXt7e+zTeT7wRvbcc89ps5npax/m4s3o+eSdVsxYGBkmb2oU3S1btmhrwhlbtPmcr13tjC2sUGxurVmzRtdZqcxKDCvV86lYJooM04SR+1i5NmzYoJXZ35E+OGhA8KbCNKQgsu6Eecf0fj43NMLzeD7Dsbzjx6yYV+vXr9cmtQ/wPryExqB+zY9f7vvRj36kX/Pjl/z4Rb+x/pof+0mK6akoCzTFj286NDc3D7EEWPCtQh2OSmUwo5nGvDatRDqmO52tc1lVVaVfnWPlpiA7Q7G8oxjShTebfHlHR55P/oV5RxfmGR3LEbfr6+tzolyIece0ZV04HIzma36PP/54JIoUwp/+9Ke5T5w+88wzsmLFijEVRfZvFVs/CTPXLADr76OzdatQh0MQjWTlYkWiszGMXNrxYrpJHSzMD8sfujDfLO+4PRZ5Z/kT5putW74Wat4tWLBARf9wMNpPnJag+ZalEJooUiDpxloU2XTk3a6YYHqaKJpjRbLKZO5wVSojWbnMJSsV/Tn5sbyz/GOehcuxzDs6y6Nkvtl+ukJk+vTpai0eDvKJItN23rx5cvLJJ8upp54aieJEWYocwsDMLSas0lgForMKxf3mxgKrXCZ+VsGsQtk+Jz+WN6EAhm488s7yyBzzL9xXiLBbhzeew8FoRPHJJ58c2qd45plnylNPPaWiyH35OFyiSCuxUDNyJKzi0IUVydx4kKxg4Tadk59kXiXzbzyw/Enmm9WjQsw/9rkzrQ8HIzWfTRRzzedVq1ZlKYI/+clP5KyzzlJLcTyaz3aXKzaSFSlfGo8HlvZWsYoxLw6WyZJ3JJlvhZp/tMwPVzrvv0+Rohg0n2ky/vznPx/X5nOxVcKJrEAHQ7Hly2jwvJs4Dmfaj/ZBi9qloXk6XgWA1ykmd6SQL+7F7o4U8sX9SHfjRXhDUTW0i4eRGM8IOY7jTCShBurUYWFHrTefHMcpJkwQTf+GWIqO4zjFhhmC1EG1FHUrIFRNx3GcQoY6lzQKh4iiW4yO4xQzueaz9yk6jlOM0BBMat6IzWe3Gh3HKQZCYeS6imKolLbuFqPjOIVOKIa2PqT57DiOU0wkrUSu6zhFvtHCJXc6juMUC0nd4/qwD1c5juMUC/kMQbUUOV+ZHUwuHcdxCpmkMZizFO1Acuk4jlOo5NM5tRRD3EJ0HKdYoN4lNU+fPtsswiEujo7jFANJw1AtRdtJIbT1pEfHcZxCI5/OaZ+iiSGdW4iO4xQTSc1TUQwx5XRxdByn0Mmnc9qnyI9I8WDowZvPjuMUOnmbz2GT2YXQcZyCZYTWL3Uv1L5hE0I4juMUJCPoXNhKphbmLEUXRsdxnDyWYtiv6DiOU0xQ/3JPn0Pzkbg4Oo5T6IQ6Z9qXG7wdWouO4zjFQKh7FEhua/OZhBajHXQcxylkQkvRyPUphiLI9XyeHcdxCol8xt+wN1oMtxQdxyk2qIfDpg5zMXQcp1gYsflM7KA3mx3HKRbyGYXafM5nHbo4Oo5TjOQsRcME0pvRjuMUOqHxR83jtooiZ95O4pai4ziFTmj8Wat52IMWwy1Fx3GKkdw4RYNqac5xHKeQSeocv2yae83PsHW3FB3HKUZy32gxuO6C6DhOMZA0CvkVgmHNZ8dxnGIhaRRSC4c8aAkPOo7jFDpJS7G/v3+4pcj1pHo6juMUKsMsRe6wcYomiKFIOo7jFAu5p880GYkLouM4xYRZiaZ7NBCHTB1mB1wcHccpJkwH1VLUtQAXRMdxio1Q8/I+aCGhBek4jlPIhHqnfYr5BNCtRcdxipG8zWfHcZxiIal5I36jxXEcpxhIdh+qpRgKo/cpOo5TTJjW2XLYLDk8QBfucxzHKUQoc6Z1XObGKZpChuTb5ziOU1gMfdCcG6fY19enO0LcUnQcpxgItU4tRa6k02ndQcyDW4qO4xQb2oTmSiqV0h2O4ziFTrIVTANwiLXIP2xHG24hOo5TyOxP43KWoguh4zjFiFmJpoFcltJK5HcJjKRp6TiOUyyopWhKGcJtF0fHcYoNtRS5YjNvE+405ziOUzgcWNPUUuRKKIrErUTHcQqP4bqWT+tUDcOnzyRfk9pxHKfQSLaIc4O3Q1F0MXQcp5gZ2m4GbiU6jlMsJLWO+pe3T5EHkmal4zhOoZHUOb7dN+QTp8SU061Fx3EKnaTOaZ8i/+SzCt1SdByn0BnRUgxnyTFPbik6jlNsqKVIEUwOySFuKTqOU4yopZjv3We3FB3HKTZylqJbhY7jOBE6S04oirbuQuk4TqHDFnGoddweNnjb8Oaz4ziFjgliqHfDRNHF0HGcYiJpLaooelPZcZxiJCmIZNgks+bBhdJxnGJk2JAcw5vRjuMUOknjj9sj9im6peg4TqGTz/jT5nM+3FJ0HKfY4BBFbT6HmEi6peg4TqGT1Dlua/M5FEZbd0vRcZxiIyeKnC7HdriF6DhOsZDPIFRRtElmQw8ujo7jFDqhztn6sMHb+ZrP4brjOE6hkNQ7Lof1KRr5FNRxHKeQoLZR/0zjuBxx6rB8Quk4jlNoJPVPh+SEM2+Hiuk4jlPIJI0/bg+zFM2TW4qO4xQ6SeOP28MGbzuO4xQz+qAlH958dhyn0MlnFA4ZvO04jlNM5DP+hsynGHrwZrXjOIWO6Vyod0P6FLluwujNZ8dxCp28liKFMBRGx3GcYsG0L2wxD/scgeM4TrEQ6p9ZjTlLMZ8ZGeLC6ThOIZI0DEc1IQQ5kGg6juMcaZjOhfqmouiv+TmOU4wkdY7bw0TRm8mO4xQj1D663LvPSTPSxdFxnELHdI5L0z590FJaWupi6DhO0WL6R4a9+2wHQ0+O4zjFgjafiVuIjuMUG/mMP20+80GLW4aO4xQbZgyGRuGwWXLyeXIcxznyGdnwC7sNRxyn6DiOUyyExuCwBy120MXRcZzCYuTWb6h3Kor5msrefHYcp5AYraGnT5/9NT/HcZxI90r9ybPjOMXAaBq/2qdIQXRRdByn0BmtzPnM247jFAWj1bkRH7Q4juMUEtYiDvUuuY/bQ5rPXNpBF0rHcQoJkzTTO5LUOW6rpWieuCM8wXEcpxgIdW/EPkUXR8dxCoo8kkadS2pdKedS9Jm3HccpePJoWz6jUC3FUClt3cXRcZxCYrSt3yF9io7jOMUG9S+0GNVSHBgY0A1iB1woHccpJEZq+1LzqHemebmZtw0XQ8dxCpHRKptainzYYpil6DiOU0iMpG1JQ1AtxbD57Jai4ziFSX5tS4rlsActbik6jlOYjE7btPmcxK1Fx3EKjZF0jftDHRw2TtFxHKcQGU0jmHqozeewT9FxHKfYMMOQS33QEn7i1HEcpxAZbYNYLcX+/n7dcBzHKVRGaj0nn6sMe9CS7HR0HMcpCPLoGvXOms6GWoph89kF0XGcYiGf3qkohlOHOY7jFBMmjFzqgxbbEZqQSXPScRynEAmbz1xSD9VSJKaSjuM4hclwfTOj0FBRDIUw6cFxHKdwGJ2+afM5FEO3Fh3HKVaof3kftLjF6DhOMRFqnlqKNp+iWYluLTqOUwzk07xSjlG0HdaUdkvRcZxiIal3ain6OEXHcYqV0EqkHqooJpvLyW3HcZxCJGkl0kDUzsR8Ipj07DiOU2gktY/TKKoo9vX16Q4jn/XoOI5TaFDrQgNQRZHiFz5scTF0HKdYoN4lNS/3oMXUMlRNx3GcQiaf7g3rUzTldHF0HKegSFiEIaaBXOa++2w7jeS24zjOEc0oDD12JWrzmeQzIx3HcQqZpPHHt/ui9/sC3EJ0HKdYSBqD1D8VRXv32XEcpxgxY1AtRSqkf/fZcZxiJuw2HGYpep+i4zjFjKph2I/ofYqO4xQmI2tbqHvDRDHZ8eg4jlMYHFjTqHs6TjEUQBNItxgdxykk9qdpoQaqpehWoeM4hU4+nctnBI4oii6UjuMUOvl0bpgo2ro3nx3HKRZCDYy/+zxcLd1SdByn0MnbfKb4lZam4s38nhzHcQqFkQw+7qfuxZZiBNfdQnQcp5DJZ/CZIJIhr/mFB1wcHccpdEznQt1TUQyVM+nJcRynWKDuafM5FEAXQ8dxio2wZaxDckJ4MPTgOI5T6JgxSO3T5nNSBOnBhdFxnEInbBlT87hdym8SpNPpeLfjOE7xYMafCSLR5nN/f79uhIQK6jiOc+QzXNNM52xJcVRRDAXQxdBxnMJkeJdgspuQ+lcafgifhOak4zhOsVHKTxGwX9FImpOO4zjFxLA+RbcQHccpZkbsU6Q4ukA6jlNs6DjFfENyKI7ehHYcpxgwI5Cap6/58WGL4dah4ziFSD4jL7mP+lfK/kSKoluFjuMUG6ERaBpYWllZOeRj+I7jOMWEiaEJ5LBZcgxvRjuOU0jkkzRqX9JaVBMxn6WYTygdx3GOVPJJWj7jLzckx0XQcZxCJl/bN5/ulfJTBL29vXqQqunNZsdxCg1qXN72cwLq34iDtx3HcQqFtra2UWubiiKH5IT9im4tOo5TSDQ1NY2oa0mxVCWkZzvggug4TqGxbdu2ES3FUPPoR4fkhKLoOI5TaKxbty5e28dImrevzQxMMV0gHccpJJYvXx6v7WMkvdP5FIkdoMfQnEyyd+/eeM1xHOfIYMuWLfHaPqh5SUHkts68HZL0lGT37t3xmuM4zpEBnz6PBhqE2qd4ME+eXRQdxznSCEUxn4UYknv6PFr+8Ic/xGuO4zhHBitXrozXhuudCaTtV1HkztEK42OPPRavOY7jTH42b94sO3bsiLf2kbQYbT0nioTCaOKYPMHYuXNnvOY4jjP5efrpp+O1iHy6FmqgimLyYUtIMoCHHnpov/4dx3EmE1/96lfjteHkE8jcE5bQSgzhvvDE9vZ2FUbHcZzJDie8Wb16dbyVn1DfuD7kQQt3mDiax+SSfO1rX4vXHMdxJi986ry/Lj/qWtINmXk7FMdwSUKhvPPOO6Wvr0/XHcdxJivf/OY3pbOzM94aSqhvIbnm80geDB430eTL1fneJXQcx5ksdHd3y0c+8pF4KyKfztk+W+ZEkZjokZFOTqVSuv6ud73LH7g4jjNpeeKJJ+I1yenWSK3hUO8O+EZL6Dk8ds8998hzzz0XbzmO40wu/v3f/z1e20eoZ1w3Z1AL8/YpGqFnEm3v27d48eJcoO7cuXM3mdx3v/vdWKmGk/Rr+6iBaiKGlqJhHsnQ9XjFcRznCCAUvojh2hYeH9J85vpIbe6QdDodrzmO40xu2J8YyhjXqWuhxoU6p6JoUBDD7XDdGNrAdhzHmfwkegZz0CA0UTS9K9U2dGwpaidjHk/htsmkW4uO40x29qdToa6Z7qke8g9PtAM0NZPiaFjTmmTdZnQc5wjAlMr0LHSmc9RArvO1wCEPWiiIdpAeiS1JuM4rpVNuLTqOMzmJrMRs8FhlKNQzOupdKIolq1atyj7wwANy7733yqmnnqovTz/zzDO6pAc6Wojm+P3UoWSlv38gXncmMxUVFfLhD39YGhsb4z3OaOjv75cbbrhB1qxZE+9xJjtR6xfqFDRop0yZkhNCMwDLy8tl4cKFcvLJJ8vSpUvl7rvvlpKVK1dmn3zySfnVr34lZ599tjz77LM6/xjEUgsDRZFvrpgo8sNVXIZwm/6cyc0XvvAFfRPJOXi6urrkzDPPlO3bt8d7nMlKKsWWbqnqUti6TYpiWVmZGgoUxVNOOUWOOeYYueOOO6I+RVoOPT096pHKmWxCG1GAcTM6OJb05ziOM1GUlkav9IW6ZF2EhPu5bY7iSEf9UyFdvnx5tqOjQ6677jq5/PLLZePGjULLkdZib2/vEGuRtLS0RJbjIB+18B/IDuJCperXmbx48/nQ8ObzkUOKzeZ4PbQUKXh1dXU5IeR2JpORqqoqtRDZfKbF+Otf/1pKnnrqqSwtw49//OPymte8Rr+PSlGk4ywTLBB01oTm/GQDA/0qioPYTuLC6DjOREAdi6AuQQz1/z6rsLa2VkXSms4UxZqaGlmyZImcdNJJMm/ePPntb38bffeZammqap2PPInr3Bc6BqhqjItwO4k1vR3HccYD9iGm0zYLDpvHkf6oIOIYNSudLov2BVpGrbJ+RRPU+vr6qE/RlNPWKYpUUXrkNkXOBDCTQQAp2x9fAP+idnQE91skHcdxxgrqEKQPa5E+UabMwON6qhRGHPxED18ivaKemSBS5+i4zucq7FpSS5FN3jlz5uj3VxhA6DEURboXvOBU3V+uxyJLUuMTxUmVmhvZLKxKF0bHccYICpsaZPhvNpnqVGysUZ9M/BYtWpTTMGpaKIqVlZW65HDDBQsWRJYihxuccMIJ2p9IK5HmZHV19RBhNHGcNWuWqmkZ/FEYGTj30zFq1MgocpFO8jid4zjO4WCIppjeRAsFJpwep3aZW7p0yRBBNJ2jIJoobt26VY477jgp5ZNlPmVetmyZThpryskOSPNswshAuX/ZqafqdjmO2fFIhcN+xqA9jVX7IfuOO47jjA7qBrvtcmIY6ktsjEUaxBZqJIg2vPC0006DbtVCs6L+RR4znePzFC4pkM3NzTJ79uxIFMPmMwOiRz6psRNM+HiBhvp6qcUFqKjcpn9ajFzST9TPyIjyTzwVWaCDptSMuI0nchzHScL+QGqF6gV0Y4g5GGxED1YiK5A6RL0yR5GbPn0adKwCxyO9MkGko5FHnbNzuV5yzz33ZOlp2rRpcuONN2rTmB7Wr1+vzenW1lZ1HMvIITr8ih+F1MYuUvTMGeG64xQCLNPeypm8hHljFqM56hkdjTZahDT4+JS5oaFBRZPjFPnFP45jPP/886WUViIFrrW1RV71qivk4YcfVvWkB55MZ2qatBrtYtanmIwM3Ujs7/j+znP24ek0fnhajz0jaUJyn/nL50yL6KhNZmnSCqQgUsf4vISO69YiXrFihVx44YUqjqV8DE1R7OnphWrO0YvyrkhR5IkmjHTcNmG05rIJo4mjRSwZ2aQzRjo20r5wORIHOm6E4eVbT5L0k3R2zJYjufB4vnVbJtdtm+Q7Nlp3qOfR2bm2DPcb4b7QT7jPCPeNtN+WoZ98+0O3v2NJN5LfkfYfyI10npHvmDk7bsvkej5n5Nufb5ncZyS3Qw50LDxu2yPtG8kZ+fYnNYXYeiiC5iiE1CdrLpsg0sAzRy2jrrH1yyX90UgsueWWW7IUQO6g42t+v/jFL+SMM87QBy98g4V9jeasGU0xZWBmaVpz2prUhMt8TWnbZz+OJP3xWL5zk9BP6Dd5nm3nu5bt2992eK7tJyOdmyQ8nyS3j1TC372/NHg+v7dQ0mqs2F+6j5YwjZPrRr7w93dePv9J6MeuMRr/hp1n53BpzsTRnFmJpm1mIVLvKIoUwqOPPlpbx5wohcJJS7EEF8j+7ne/0x0MYMaMGfKZz3xGn0ZT/DgrDpcUQ3McwpMURutrNGGkI/wB9uNJ+INsPzcDL0MIzz0QFnZ4DZLcPhKx33Ugwt8fLu0YCcPJ588w/yR5zMh33ljyfK9nvynfb32+vyMKemj4+cIdzb7DEZ+JJt9vSpJvHznQ/nCZTwxpLdJSpKMg0io0S9Gazpw1h5Ykn51ce+21OiSHI3FUFG+99VZVTQZAcSSf+tSn5JJLLpFdu3ap+NFRRelMFENhNFGkQFIQTSCZKJYwYQKFcL/9yNBP0r/5GymcyYLFMd8yJN++w8Whhm1xHQ3mL985I+0jyfPC/cl9Rr59hcJIv437yf5+d+jHwrF9SfZ3LMlo/Vrc7NoHIunnULbNUQBtSZdsOofNZxNFLs3RAOT8iZxSj61g07MSiJz+8j/+8Y96MgPkkxl+XR9Nax3UTc8UPZ5gJ4aiSHU1i9FcsjltjiQTO982HX/w/vyaH1s/FPJdIyQ8Hl7L1g8ndq3kMnksycHuf75YnCYS+132Gy1Oyf3GSGmRPC/EjpHwGsS2R7M/3EfCdRL6I7YdEoY3UYwUh/C35CN5PNy29eS+kc6xYyaIFMGkIJooUhBNFOlo8NFxHy1Gzh3LmcGOPfZYbRFTw7T5DPHSX0lrkW1tBsiT+Lj65ptv1tlyOIuENZHpKILmQlEMhZGimE8YSXJJ8q0fyJ+Rb99YwYzYdz1mUHR9yzQj376DYeh18mPhmz87J9x/KHFIhkssrHAZktyXz89EEcY7JNxncd1fvEf7m0J/yXVjNOGMhIXzfMI4HNhvC3+XkTwW+kmuj+Qnud/2mWXIdRNDbpsgmiiG1iKdrXPJFjBnxXnta18ru3fvVh2jo8WozWde8Ktf/aqceOKJqqS8CE/m2MUf//jHakXyUwUUNwqdCV8ohBRG2083kiiGzrD1/e0PYXiEiZI8ltw+WHi+hcvlaMgXDzLS+QcT9sEwUrwP1/UsnHy/dSI5mDhZOpj/yfh7JhNhubH8H4l8x8J9th4u8+2zZXLdnIli6MxKDK1FrlMAw20uOQabcye+5S1vkR07duQMPVqJa9eu3SeK5Dvf+Y7MnTtXBZEnM0AO5r7zzjvlpptu0ifSPGbiaM5EMBRDOvM3kijSERM5Eu4ntp5vn8FtJlY+P9xPkueMJcm4JMl33PZZfA8Ho4nHWBFe90DxOJI53Hk2Vow2npZX5jd5XvJ4yIH22fpI+5LHw30UPts2IbR1il24pHbZdriP8X788cfl3HPP1blj+WkJapa1eq+44gq91hBRNG6//XYVPwZIYeRDGJqbX/7yl9V65IwTPI1iFrpQDEMX+uW6OZJvO9/SONA24T5LzHzHk+Tzz+2R9o8Fdr3nQxjG4YhnvjBs3/ONK7H0PRxh5SMM166TXB4phOkerucj/G3h7z1UDnRuvuPhvmQckv65nTwWLvM5Cl0+ZyJIP1w3v5wBZ/ny5fLOd75TZ9mmnlmrNhREklcUueu2225TdaWjQLKjkg9g2JzmEB5++Yoz5ph/uqQI5luGjvvsfGLbhPv4g+yYLfOR9DsSob+k/5H2J9nf+YYdD8m3j4y030geP5D/wwHDj67D60Xbz+eaYZzzrXM5WszvwZ53IPbFi2EOz9t825H/oXEiyWPJ9dB/eDwkuX8kf2OJXS+M70gczDFuJ3+PrSf3mSMmdnS2zmW+dXNsEvO5yMyZM+V973ufiiCHFVq3H5d8jfnNb36zXoOMKIrf+ta39JG1NaMpjHRsTvOpM5vTDz30kFqOixcv1kfcPC90+YSQjtix5DpJrvPHhftC7LgRbo90LBlWuC/f8SQjhUHC/aO5Fgm3k+cbI4Ub+skH/SXDyXfOcH/6N7fvQNcZC8LfaOuHSjIs+z0HCjf0P5o4jDZcIxl+eH54zXCdjLRt55Pw3JDQX/IccqDj+4N+D3ROvmPhPlsPl6FLCl+4zXXqyc6dO/WLpByG8/a3v12NOHugYs8/KIjct23bNh2CaIwoihS+//mf/4nmToxFkUtehFYjn1QzEo888oj2OW7evFkFlP6nTp2qTW6eQz8MbySBTDrzb4TrSZJ+DxcMlxxM2PnO4a5kEBbn0H+4b+j5+98eif2FRw4URng+CdfHiv1dI3ksX9y4PFwkwwuvNdl4vr99NOebn0NJh+iUfXmXxMI0wm2uH8gxLhQ5WnsUQooc4SdLL7vsMp39i1OCUc84vprdexRDiiOb1O95z3vUf8h+RZFPoq+//nq1GCmEJoxc0jK0ffTHi+3Zs0c2bdqkT3eovvY2DI/xB1DFKZym7FyGcF++pRFtUzyj9ZEyJzyPfsxvMrxDJd91Dzb8kfwfzniGhHEeTXqMNh5jFd+QsUqPQw03PJfrIQcKczTXfb5pOtrzk7/jQOfwOB39GraPzuozDaADYQ9BeF4Iw7bwubTnFHQUPy6pKbZOPeLwwfnz5+vQQVqE06dP1zhQBOmPy7C5zObz61//er0G9SvJAUUxjPR///d/qxAyIrZkoLZunZyh+BGGZxEy09V+qB0PHeF1k81q7uM2lxav0H/Sry3pLCxbD4/R5cvQMDzD/I8W8xv+lnxh2DGLI+PD9XxxMEYKI9wfhkvsmP1e2w6vM9I1w/08j4776Pj7LKzwGOHSrkcsjbk/PMf82zody4iFbfssLem4P5lWYVj5sPOS67ZkeFZ+WVa53+JAC4NlPbwm99u6/U7bb7813E/sHB7nsTAMrnOfncttOmJ+Qr9GuG3xNcL9hPOeDvIzxXE4vF54TYPHDB4LtwnDZR5ZnaYGMH2MMB4WPy6t/ueLp/khzAduM1zqDJdsrdLxdT0ep186Ez6GS50xrbH91LQ3vOENGi6PkectigbnXTRBpGPETBTNWSKHMCzuY/gWriUAl/muZYT+Rjo/HyMdyxfGgRjJX/Ia3LbfznU6pkmywBnhuclr2HroJyT0m0xvku/8ZPgjhR3GJemP6/w94e80wvMM2w7DSIZJktcwkuvhufnCIeG+/V2fjutW6flAkeXZ9hOu8zhbQ/a79xeWlfMDEYZhWFj5yLc/3Gfn2rVtfaTwDhTHkc4/0D47L0ly32i26cLwwqWJqzmKHx3zyASRNzI2od/73vfqeeSwi+LnPve5Ic1nW1Ic6ZKiaAWEYdk+bo9UcOiPP8rWbUm/Fk5IcpuYvzD8pL98YSWxMMKw8q3ztzDOyfDsWL4wCLftGAn3j7Ru2P6kPzrzx/UwXmFYJNy29XCfbYckw8jnhyTDsvXQb7ht/ozwfC5tndh60k+S8Bwj3A7PsyX7ocLKYn6YjhzsaxXKwgmva37DcMn+9hPbZ36S+0ciXx2yMPIx0vVGwsoOXXgdrofXToZj++mHJM+18JLXTvoLCc8LHeNIR1Hk0ixDNpttgmzu//SnPx2HNAaimOS6665TIaRf3mFNGOm4zv12nFhCGbaf1x3pehbN5PHRnEt4LPRj6+G+8Hy7ni33d55h+0PCfWEBCcMj5s+OhfuN8Jx8fsJtK8xJwvOSWLjmJ/SbPJaE+8JKQn+jxcJOkrymueR1zF/4m22/YX7suG0n4X7OxpysLAybxzi+jZUuiYXH5cEQnhfGJ4ynwfXwtxvh+eGxcDt5jNg5RujHjvF3k9BfPpJh5cOOm1+7Vrhuy5BwH9fNMW4mhHQUQnu6zOUnP/nJ+KzhjCyKIv8fwMxY5Ht/EJQAAAAASUVORK5CYII=;" vertex="1" parent="1">
          <mxGeometry x="100" y="195" width="127.33" height="277" as="geometry" />
        </mxCell>
        <mxCell id="pOFbJB_o1-wz1Zq5x3c6-2" value="&lt;b&gt;Feature&lt;/b&gt;" style="rounded=0;whiteSpace=wrap;html=1;fillColor=#007FFF;" vertex="1" parent="1">
          <mxGeometry x="300" y="193.75" width="190" height="30" as="geometry" />
        </mxCell>
        <mxCell id="pOFbJB_o1-wz1Zq5x3c6-3" value="cash" style="rounded=0;whiteSpace=wrap;html=1;" vertex="1" parent="1">
          <mxGeometry x="332.5" y="283.75" width="125" height="40" as="geometry" />
        </mxCell>
        <mxCell id="pOFbJB_o1-wz1Zq5x3c6-5" value="spotlight" style="rounded=0;whiteSpace=wrap;html=1;" vertex="1" parent="1">
          <mxGeometry x="332.5" y="233.75" width="125" height="40" as="geometry" />
        </mxCell>
        <mxCell id="pOFbJB_o1-wz1Zq5x3c6-6" value="product" style="rounded=0;whiteSpace=wrap;html=1;" vertex="1" parent="1">
          <mxGeometry x="332.5" y="343.75" width="125" height="40" as="geometry" />
        </mxCell>
        <mxCell id="pOFbJB_o1-wz1Zq5x3c6-7" value="" style="rounded=0;whiteSpace=wrap;html=1;" vertex="1" parent="1">
          <mxGeometry x="551" y="213.75" width="190" height="210" as="geometry" />
        </mxCell>
        <mxCell id="pOFbJB_o1-wz1Zq5x3c6-8" value="&lt;b&gt;Libraries&lt;/b&gt;" style="rounded=0;whiteSpace=wrap;html=1;fillColor=#FFFF00;" vertex="1" parent="1">
          <mxGeometry x="551" y="183.75" width="190" height="30" as="geometry" />
        </mxCell>
        <mxCell id="pOFbJB_o1-wz1Zq5x3c6-9" value="testcore" style="rounded=0;whiteSpace=wrap;html=1;" vertex="1" parent="1">
          <mxGeometry x="583.5" y="293.75" width="127.5" height="35" as="geometry" />
        </mxCell>
        <mxCell id="pOFbJB_o1-wz1Zq5x3c6-10" value="data" style="rounded=0;whiteSpace=wrap;html=1;" vertex="1" parent="1">
          <mxGeometry x="583.5" y="223.75" width="127.5" height="40" as="geometry" />
        </mxCell>
        <mxCell id="pOFbJB_o1-wz1Zq5x3c6-11" value="uicore" style="rounded=0;whiteSpace=wrap;html=1;" vertex="1" parent="1">
          <mxGeometry x="583.5" y="363.75" width="127.5" height="40" as="geometry" />
        </mxCell>
        <mxCell id="pOFbJB_o1-wz1Zq5x3c6-13" value="&lt;b&gt;App&lt;/b&gt;" style="rounded=0;whiteSpace=wrap;html=1;fillColor=#007FFF;" vertex="1" parent="1">
          <mxGeometry x="90" y="150" width="150" height="30" as="geometry" />
        </mxCell>
        <mxCell id="pOFbJB_o1-wz1Zq5x3c6-14" value="" style="endArrow=classic;html=1;rounded=0;exitX=0.5;exitY=1;exitDx=0;exitDy=0;" edge="1" parent="1" source="pOFbJB_o1-wz1Zq5x3c6-9" target="pOFbJB_o1-wz1Zq5x3c6-11">
          <mxGeometry width="50" height="50" relative="1" as="geometry">
            <mxPoint x="361" y="353.75" as="sourcePoint" />
            <mxPoint x="411" y="303.75" as="targetPoint" />
          </mxGeometry>
        </mxCell>
        <mxCell id="pOFbJB_o1-wz1Zq5x3c6-15" value="" style="endArrow=classic;html=1;rounded=0;entryX=0.5;entryY=1;entryDx=0;entryDy=0;exitX=0.5;exitY=0;exitDx=0;exitDy=0;" edge="1" parent="1" source="pOFbJB_o1-wz1Zq5x3c6-9" target="pOFbJB_o1-wz1Zq5x3c6-10">
          <mxGeometry width="50" height="50" relative="1" as="geometry">
            <mxPoint x="361" y="353.75" as="sourcePoint" />
            <mxPoint x="411" y="303.75" as="targetPoint" />
          </mxGeometry>
        </mxCell>
        <mxCell id="pOFbJB_o1-wz1Zq5x3c6-19" value="" style="endArrow=classic;html=1;rounded=0;entryX=0.993;entryY=0.431;entryDx=0;entryDy=0;entryPerimeter=0;exitX=0.011;exitY=0.422;exitDx=0;exitDy=0;exitPerimeter=0;" edge="1" parent="1" source="pOFbJB_o1-wz1Zq5x3c6-7" target="pOFbJB_o1-wz1Zq5x3c6-4">
          <mxGeometry width="50" height="50" relative="1" as="geometry">
            <mxPoint x="561" y="297.75" as="sourcePoint" />
            <mxPoint x="421" y="298.75" as="targetPoint" />
          </mxGeometry>
        </mxCell>
        <mxCell id="pOFbJB_o1-wz1Zq5x3c6-20" value="" style="endArrow=classic;html=1;rounded=0;entryX=1;entryY=0.5;entryDx=0;entryDy=0;exitX=0;exitY=0.5;exitDx=0;exitDy=0;" edge="1" parent="1" source="pOFbJB_o1-wz1Zq5x3c6-5" target="pOFbJB_o1-wz1Zq5x3c6-22">
          <mxGeometry width="50" height="50" relative="1" as="geometry">
            <mxPoint x="311" y="274.5" as="sourcePoint" />
            <mxPoint x="240" y="274.5" as="targetPoint" />
          </mxGeometry>
        </mxCell>
        <mxCell id="pOFbJB_o1-wz1Zq5x3c6-22" value="" style="rounded=1;whiteSpace=wrap;html=1;fillColor=none;strokeColor=#FF0000;" vertex="1" parent="1">
          <mxGeometry x="110" y="232.5" width="110" height="47.5" as="geometry" />
        </mxCell>
        <mxCell id="pOFbJB_o1-wz1Zq5x3c6-23" value="" style="rounded=1;whiteSpace=wrap;html=1;fillColor=none;strokeColor=#FF0000;" vertex="1" parent="1">
          <mxGeometry x="108.66" y="287.5" width="111.34" height="32.5" as="geometry" />
        </mxCell>
        <mxCell id="pOFbJB_o1-wz1Zq5x3c6-24" value="" style="endArrow=classic;html=1;rounded=0;entryX=1;entryY=0.5;entryDx=0;entryDy=0;exitX=0;exitY=0.5;exitDx=0;exitDy=0;" edge="1" parent="1" source="pOFbJB_o1-wz1Zq5x3c6-3" target="pOFbJB_o1-wz1Zq5x3c6-23">
          <mxGeometry width="50" height="50" relative="1" as="geometry">
            <mxPoint x="362" y="285" as="sourcePoint" />
            <mxPoint x="230" y="266" as="targetPoint" />
          </mxGeometry>
        </mxCell>
        <mxCell id="pOFbJB_o1-wz1Zq5x3c6-25" value="" style="rounded=1;whiteSpace=wrap;html=1;fillColor=none;strokeColor=#FF0000;" vertex="1" parent="1">
          <mxGeometry x="107.99" y="325" width="112.01" height="65" as="geometry" />
        </mxCell>
        <mxCell id="pOFbJB_o1-wz1Zq5x3c6-26" value="" style="endArrow=classic;html=1;rounded=0;entryX=1;entryY=0.5;entryDx=0;entryDy=0;exitX=0;exitY=0.5;exitDx=0;exitDy=0;" edge="1" parent="1" source="pOFbJB_o1-wz1Zq5x3c6-6" target="pOFbJB_o1-wz1Zq5x3c6-25">
          <mxGeometry width="50" height="50" relative="1" as="geometry">
            <mxPoint x="359.33" y="358" as="sourcePoint" />
            <mxPoint x="227.33" y="357" as="targetPoint" />
          </mxGeometry>
        </mxCell>
      </root>
    </mxGraphModel>
  </diagram>
</mxfile>
